<?xml version="1.0" encoding="utf-8" standalone="no"?>
<!DOCTYPE svg PUBLIC "-//W3C//DTD SVG 1.1//EN"
  "http://www.w3.org/Graphics/SVG/1.1/DTD/svg11.dtd">
<svg xmlns:xlink="http://www.w3.org/1999/xlink" width="540pt" height="324pt" viewBox="0 0 540 324" xmlns="http://www.w3.org/2000/svg" version="1.1">
 <metadata>
  <rdf:RDF xmlns:dc="http://purl.org/dc/elements/1.1/" xmlns:cc="http://creativecommons.org/ns#" xmlns:rdf="http://www.w3.org/1999/02/22-rdf-syntax-ns#">
   <cc:Work>
    <dc:type rdf:resource="http://purl.org/dc/dcmitype/StillImage"/>
    <dc:date>2026-06-16T11:27:28.179616</dc:date>
    <dc:format>image/svg+xml</dc:format>
    <dc:creator>
     <cc:Agent>
      <dc:title>Matplotlib v3.10.9, https://matplotlib.org/</dc:title>
     </cc:Agent>
    </dc:creator>
   </cc:Work>
  </rdf:RDF>
 </metadata>
 <defs>
  <style type="text/css">*{stroke-linejoin: round; stroke-linecap: butt}</style>
 </defs>
 <g id="figure_1">
  <g id="patch_1">
   <path d="M 0 324 
L 540 324 
L 540 0 
L 0 0 
z
" style="fill: #ffffff"/>
  </g>
  <g id="axes_1">
   <g id="patch_2">
    <path d="M 87.91 282.04 
L 529.2 282.04 
L 529.2 26.88 
L 87.91 26.88 
z
" style="fill: #ffffff"/>
   </g>
   <g id="patch_3">
    <path d="M 87.91 270.441818 
L 87.91 270.441818 
L 87.91 255.944091 
L 87.91 255.944091 
z
" clip-path="url(#p35b6435cc3)" style="fill: #3a7ca5"/>
   </g>
   <g id="patch_4">
    <path d="M 87.91 252.319659 
L 87.91 252.319659 
L 87.91 237.821932 
L 87.91 237.821932 
z
" clip-path="url(#p35b6435cc3)" style="fill: #3a7ca5"/>
   </g>
   <g id="patch_5">
    <path d="M 87.91 234.1975 
L 87.91 234.1975 
L 87.91 219.699773 
L 87.91 219.699773 
z
" clip-path="url(#p35b6435cc3)" style="fill: #3a7ca5"/>
   </g>
   <g id="patch_6">
    <path d="M 87.91 216.075341 
L 114.177262 216.075341 
L 114.177262 201.577614 
L 87.91 201.577614 
z
" clip-path="url(#p35b6435cc3)" style="fill: #3a7ca5"/>
   </g>
   <g id="patch_7">
    <path d="M 87.91 197.953182 
L 87.91 197.953182 
L 87.91 183.455455 
L 87.91 183.455455 
z
" clip-path="url(#p35b6435cc3)" style="fill: #3a7ca5"/>
   </g>
   <g id="patch_8">
    <path d="M 87.91 179.831023 
L 87.91 179.831023 
L 87.91 165.333295 
L 87.91 165.333295 
z
" clip-path="url(#p35b6435cc3)" style="fill: #3a7ca5"/>
   </g>
   <g id="patch_9">
    <path d="M 87.91 161.708864 
L 87.91 161.708864 
L 87.91 147.211136 
L 87.91 147.211136 
z
" clip-path="url(#p35b6435cc3)" style="fill: #3a7ca5"/>
   </g>
   <g id="patch_10">
    <path d="M 87.91 143.586705 
L 192.979048 143.586705 
L 192.979048 129.088977 
L 87.91 129.088977 
z
" clip-path="url(#p35b6435cc3)" style="fill: #3a7ca5"/>
   </g>
   <g id="patch_11">
    <path d="M 87.91 125.464545 
L 87.91 125.464545 
L 87.91 110.966818 
L 87.91 110.966818 
z
" clip-path="url(#p35b6435cc3)" style="fill: #3a7ca5"/>
   </g>
   <g id="patch_12">
    <path d="M 87.91 107.342386 
L 87.91 107.342386 
L 87.91 92.844659 
L 87.91 92.844659 
z
" clip-path="url(#p35b6435cc3)" style="fill: #3a7ca5"/>
   </g>
   <g id="patch_13">
    <path d="M 87.91 89.220227 
L 140.444524 89.220227 
L 140.444524 74.7225 
L 87.91 74.7225 
z
" clip-path="url(#p35b6435cc3)" style="fill: #3a7ca5"/>
   </g>
   <g id="patch_14">
    <path d="M 87.91 71.098068 
L 350.582619 71.098068 
L 350.582619 56.600341 
L 87.91 56.600341 
z
" clip-path="url(#p35b6435cc3)" style="fill: #3a7ca5"/>
   </g>
   <g id="patch_15">
    <path d="M 87.91 52.975909 
L 298.048095 52.975909 
L 298.048095 38.478182 
L 87.91 38.478182 
z
" clip-path="url(#p35b6435cc3)" style="fill: #3a7ca5"/>
   </g>
   <g id="patch_16">
    <path d="M 87.91 270.441818 
L 114.177262 270.441818 
L 114.177262 255.944091 
L 87.91 255.944091 
z
" clip-path="url(#p35b6435cc3)" style="fill: #cbb09c"/>
   </g>
   <g id="patch_17">
    <path d="M 87.91 252.319659 
L 140.444524 252.319659 
L 140.444524 237.821932 
L 87.91 237.821932 
z
" clip-path="url(#p35b6435cc3)" style="fill: #cbb09c"/>
   </g>
   <g id="patch_18">
    <path d="M 87.91 234.1975 
L 140.444524 234.1975 
L 140.444524 219.699773 
L 87.91 219.699773 
z
" clip-path="url(#p35b6435cc3)" style="fill: #cbb09c"/>
   </g>
   <g id="patch_19">
    <path d="M 114.177262 216.075341 
L 166.711786 216.075341 
L 166.711786 201.577614 
L 114.177262 201.577614 
z
" clip-path="url(#p35b6435cc3)" style="fill: #cbb09c"/>
   </g>
   <g id="patch_20">
    <path d="M 87.91 197.953182 
L 166.711786 197.953182 
L 166.711786 183.455455 
L 87.91 183.455455 
z
" clip-path="url(#p35b6435cc3)" style="fill: #cbb09c"/>
   </g>
   <g id="patch_21">
    <path d="M 87.91 179.831023 
L 192.979048 179.831023 
L 192.979048 165.333295 
L 87.91 165.333295 
z
" clip-path="url(#p35b6435cc3)" style="fill: #cbb09c"/>
   </g>
   <g id="patch_22">
    <path d="M 87.91 161.708864 
L 192.979048 161.708864 
L 192.979048 147.211136 
L 87.91 147.211136 
z
" clip-path="url(#p35b6435cc3)" style="fill: #cbb09c"/>
   </g>
   <g id="patch_23">
    <path d="M 192.979048 143.586705 
L 219.24631 143.586705 
L 219.24631 129.088977 
L 192.979048 129.088977 
z
" clip-path="url(#p35b6435cc3)" style="fill: #cbb09c"/>
   </g>
   <g id="patch_24">
    <path d="M 87.91 125.464545 
L 219.24631 125.464545 
L 219.24631 110.966818 
L 87.91 110.966818 
z
" clip-path="url(#p35b6435cc3)" style="fill: #cbb09c"/>
   </g>
   <g id="patch_25">
    <path d="M 87.91 107.342386 
L 271.780833 107.342386 
L 271.780833 92.844659 
L 87.91 92.844659 
z
" clip-path="url(#p35b6435cc3)" style="fill: #cbb09c"/>
   </g>
   <g id="patch_26">
    <path d="M 140.444524 89.220227 
L 350.582619 89.220227 
L 350.582619 74.7225 
L 140.444524 74.7225 
z
" clip-path="url(#p35b6435cc3)" style="fill: #cbb09c"/>
   </g>
   <g id="patch_27">
    <path d="M 350.582619 71.098068 
L 403.117143 71.098068 
L 403.117143 56.600341 
L 350.582619 56.600341 
z
" clip-path="url(#p35b6435cc3)" style="fill: #cbb09c"/>
   </g>
   <g id="patch_28">
    <path d="M 298.048095 52.975909 
L 508.18619 52.975909 
L 508.18619 38.478182 
L 298.048095 38.478182 
z
" clip-path="url(#p35b6435cc3)" style="fill: #cbb09c"/>
   </g>
   <g id="matplotlib.axis_1">
    <g id="xtick_1">
     <g id="line2d_1">
      <defs>
       <path id="m11c63a3744" d="M 0 0 
L 0 3.5 
" style="stroke: #000000; stroke-width: 0.8"/>
      </defs>
      <g>
       <use xlink:href="#m11c63a3744" x="87.91" y="282.04" style="stroke: #000000; stroke-width: 0.8"/>
      </g>
     </g>
     <g id="text_1">
      <!-- 0 -->
      <g transform="translate(84.72875 296.638438) scale(0.1 -0.1)">
       <defs>
        <path id="DejaVuSans-30" d="M 2034 4250 
Q 1547 4250 1301 3770 
Q 1056 3291 1056 2328 
Q 1056 1369 1301 889 
Q 1547 409 2034 409 
Q 2525 409 2770 889 
Q 3016 1369 3016 2328 
Q 3016 3291 2770 3770 
Q 2525 4250 2034 4250 
z
M 2034 4750 
Q 2819 4750 3233 4129 
Q 3647 3509 3647 2328 
Q 3647 1150 3233 529 
Q 2819 -91 2034 -91 
Q 1250 -91 836 529 
Q 422 1150 422 2328 
Q 422 3509 836 4129 
Q 1250 4750 2034 4750 
z
" transform="scale(0.015625)"/>
       </defs>
       <use xlink:href="#DejaVuSans-30"/>
      </g>
     </g>
    </g>
    <g id="xtick_2">
     <g id="line2d_2">
      <g>
       <use xlink:href="#m11c63a3744" x="140.444524" y="282.04" style="stroke: #000000; stroke-width: 0.8"/>
      </g>
     </g>
     <g id="text_2">
      <!-- 2 -->
      <g transform="translate(137.263274 296.638438) scale(0.1 -0.1)">
       <defs>
        <path id="DejaVuSans-32" d="M 1228 531 
L 3431 531 
L 3431 0 
L 469 0 
L 469 531 
Q 828 903 1448 1529 
Q 2069 2156 2228 2338 
Q 2531 2678 2651 2914 
Q 2772 3150 2772 3378 
Q 2772 3750 2511 3984 
Q 2250 4219 1831 4219 
Q 1534 4219 1204 4116 
Q 875 4013 500 3803 
L 500 4441 
Q 881 4594 1212 4672 
Q 1544 4750 1819 4750 
Q 2544 4750 2975 4387 
Q 3406 4025 3406 3419 
Q 3406 3131 3298 2873 
Q 3191 2616 2906 2266 
Q 2828 2175 2409 1742 
Q 1991 1309 1228 531 
z
" transform="scale(0.015625)"/>
       </defs>
       <use xlink:href="#DejaVuSans-32"/>
      </g>
     </g>
    </g>
    <g id="xtick_3">
     <g id="line2d_3">
      <g>
       <use xlink:href="#m11c63a3744" x="192.979048" y="282.04" style="stroke: #000000; stroke-width: 0.8"/>
      </g>
     </g>
     <g id="text_3">
      <!-- 4 -->
      <g transform="translate(189.797798 296.638438) scale(0.1 -0.1)">
       <defs>
        <path id="DejaVuSans-34" d="M 2419 4116 
L 825 1625 
L 2419 1625 
L 2419 4116 
z
M 2253 4666 
L 3047 4666 
L 3047 1625 
L 3713 1625 
L 3713 1100 
L 3047 1100 
L 3047 0 
L 2419 0 
L 2419 1100 
L 313 1100 
L 313 1709 
L 2253 4666 
z
" transform="scale(0.015625)"/>
       </defs>
       <use xlink:href="#DejaVuSans-34"/>
      </g>
     </g>
    </g>
    <g id="xtick_4">
     <g id="line2d_4">
      <g>
       <use xlink:href="#m11c63a3744" x="245.513571" y="282.04" style="stroke: #000000; stroke-width: 0.8"/>
      </g>
     </g>
     <g id="text_4">
      <!-- 6 -->
      <g transform="translate(242.332321 296.638438) scale(0.1 -0.1)">
       <defs>
        <path id="DejaVuSans-36" d="M 2113 2584 
Q 1688 2584 1439 2293 
Q 1191 2003 1191 1497 
Q 1191 994 1439 701 
Q 1688 409 2113 409 
Q 2538 409 2786 701 
Q 3034 994 3034 1497 
Q 3034 2003 2786 2293 
Q 2538 2584 2113 2584 
z
M 3366 4563 
L 3366 3988 
Q 3128 4100 2886 4159 
Q 2644 4219 2406 4219 
Q 1781 4219 1451 3797 
Q 1122 3375 1075 2522 
Q 1259 2794 1537 2939 
Q 1816 3084 2150 3084 
Q 2853 3084 3261 2657 
Q 3669 2231 3669 1497 
Q 3669 778 3244 343 
Q 2819 -91 2113 -91 
Q 1303 -91 875 529 
Q 447 1150 447 2328 
Q 447 3434 972 4092 
Q 1497 4750 2381 4750 
Q 2619 4750 2861 4703 
Q 3103 4656 3366 4563 
z
" transform="scale(0.015625)"/>
       </defs>
       <use xlink:href="#DejaVuSans-36"/>
      </g>
     </g>
    </g>
    <g id="xtick_5">
     <g id="line2d_5">
      <g>
       <use xlink:href="#m11c63a3744" x="298.048095" y="282.04" style="stroke: #000000; stroke-width: 0.8"/>
      </g>
     </g>
     <g id="text_5">
      <!-- 8 -->
      <g transform="translate(294.866845 296.638438) scale(0.1 -0.1)">
       <defs>
        <path id="DejaVuSans-38" d="M 2034 2216 
Q 1584 2216 1326 1975 
Q 1069 1734 1069 1313 
Q 1069 891 1326 650 
Q 1584 409 2034 409 
Q 2484 409 2743 651 
Q 3003 894 3003 1313 
Q 3003 1734 2745 1975 
Q 2488 2216 2034 2216 
z
M 1403 2484 
Q 997 2584 770 2862 
Q 544 3141 544 3541 
Q 544 4100 942 4425 
Q 1341 4750 2034 4750 
Q 2731 4750 3128 4425 
Q 3525 4100 3525 3541 
Q 3525 3141 3298 2862 
Q 3072 2584 2669 2484 
Q 3125 2378 3379 2068 
Q 3634 1759 3634 1313 
Q 3634 634 3220 271 
Q 2806 -91 2034 -91 
Q 1263 -91 848 271 
Q 434 634 434 1313 
Q 434 1759 690 2068 
Q 947 2378 1403 2484 
z
M 1172 3481 
Q 1172 3119 1398 2916 
Q 1625 2713 2034 2713 
Q 2441 2713 2670 2916 
Q 2900 3119 2900 3481 
Q 2900 3844 2670 4047 
Q 2441 4250 2034 4250 
Q 1625 4250 1398 4047 
Q 1172 3844 1172 3481 
z
" transform="scale(0.015625)"/>
       </defs>
       <use xlink:href="#DejaVuSans-38"/>
      </g>
     </g>
    </g>
    <g id="xtick_6">
     <g id="line2d_6">
      <g>
       <use xlink:href="#m11c63a3744" x="350.582619" y="282.04" style="stroke: #000000; stroke-width: 0.8"/>
      </g>
     </g>
     <g id="text_6">
      <!-- 10 -->
      <g transform="translate(344.220119 296.638438) scale(0.1 -0.1)">
       <defs>
        <path id="DejaVuSans-31" d="M 794 531 
L 1825 531 
L 1825 4091 
L 703 3866 
L 703 4441 
L 1819 4666 
L 2450 4666 
L 2450 531 
L 3481 531 
L 3481 0 
L 794 0 
L 794 531 
z
" transform="scale(0.015625)"/>
       </defs>
       <use xlink:href="#DejaVuSans-31"/>
       <use xlink:href="#DejaVuSans-30" transform="translate(63.623047 0)"/>
      </g>
     </g>
    </g>
    <g id="xtick_7">
     <g id="line2d_7">
      <g>
       <use xlink:href="#m11c63a3744" x="403.117143" y="282.04" style="stroke: #000000; stroke-width: 0.8"/>
      </g>
     </g>
     <g id="text_7">
      <!-- 12 -->
      <g transform="translate(396.754643 296.638438) scale(0.1 -0.1)">
       <use xlink:href="#DejaVuSans-31"/>
       <use xlink:href="#DejaVuSans-32" transform="translate(63.623047 0)"/>
      </g>
     </g>
    </g>
    <g id="xtick_8">
     <g id="line2d_8">
      <g>
       <use xlink:href="#m11c63a3744" x="455.651667" y="282.04" style="stroke: #000000; stroke-width: 0.8"/>
      </g>
     </g>
     <g id="text_8">
      <!-- 14 -->
      <g transform="translate(449.289167 296.638438) scale(0.1 -0.1)">
       <use xlink:href="#DejaVuSans-31"/>
       <use xlink:href="#DejaVuSans-34" transform="translate(63.623047 0)"/>
      </g>
     </g>
    </g>
    <g id="xtick_9">
     <g id="line2d_9">
      <g>
       <use xlink:href="#m11c63a3744" x="508.18619" y="282.04" style="stroke: #000000; stroke-width: 0.8"/>
      </g>
     </g>
     <g id="text_9">
      <!-- 16 -->
      <g transform="translate(501.82369 296.638438) scale(0.1 -0.1)">
       <use xlink:href="#DejaVuSans-31"/>
       <use xlink:href="#DejaVuSans-36" transform="translate(63.623047 0)"/>
      </g>
     </g>
    </g>
    <g id="text_10">
     <!-- number of pooled experiments -->
     <g transform="translate(231.197187 310.316563) scale(0.1 -0.1)">
      <defs>
       <path id="DejaVuSans-6e" d="M 3513 2113 
L 3513 0 
L 2938 0 
L 2938 2094 
Q 2938 2591 2744 2837 
Q 2550 3084 2163 3084 
Q 1697 3084 1428 2787 
Q 1159 2491 1159 1978 
L 1159 0 
L 581 0 
L 581 3500 
L 1159 3500 
L 1159 2956 
Q 1366 3272 1645 3428 
Q 1925 3584 2291 3584 
Q 2894 3584 3203 3211 
Q 3513 2838 3513 2113 
z
" transform="scale(0.015625)"/>
       <path id="DejaVuSans-75" d="M 544 1381 
L 544 3500 
L 1119 3500 
L 1119 1403 
Q 1119 906 1312 657 
Q 1506 409 1894 409 
Q 2359 409 2629 706 
Q 2900 1003 2900 1516 
L 2900 3500 
L 3475 3500 
L 3475 0 
L 2900 0 
L 2900 538 
Q 2691 219 2414 64 
Q 2138 -91 1772 -91 
Q 1169 -91 856 284 
Q 544 659 544 1381 
z
M 1991 3584 
L 1991 3584 
z
" transform="scale(0.015625)"/>
       <path id="DejaVuSans-6d" d="M 3328 2828 
Q 3544 3216 3844 3400 
Q 4144 3584 4550 3584 
Q 5097 3584 5394 3201 
Q 5691 2819 5691 2113 
L 5691 0 
L 5113 0 
L 5113 2094 
Q 5113 2597 4934 2840 
Q 4756 3084 4391 3084 
Q 3944 3084 3684 2787 
Q 3425 2491 3425 1978 
L 3425 0 
L 2847 0 
L 2847 2094 
Q 2847 2600 2669 2842 
Q 2491 3084 2119 3084 
Q 1678 3084 1418 2786 
Q 1159 2488 1159 1978 
L 1159 0 
L 581 0 
L 581 3500 
L 1159 3500 
L 1159 2956 
Q 1356 3278 1631 3431 
Q 1906 3584 2284 3584 
Q 2666 3584 2933 3390 
Q 3200 3197 3328 2828 
z
" transform="scale(0.015625)"/>
       <path id="DejaVuSans-62" d="M 3116 1747 
Q 3116 2381 2855 2742 
Q 2594 3103 2138 3103 
Q 1681 3103 1420 2742 
Q 1159 2381 1159 1747 
Q 1159 1113 1420 752 
Q 1681 391 2138 391 
Q 2594 391 2855 752 
Q 3116 1113 3116 1747 
z
M 1159 2969 
Q 1341 3281 1617 3432 
Q 1894 3584 2278 3584 
Q 2916 3584 3314 3078 
Q 3713 2572 3713 1747 
Q 3713 922 3314 415 
Q 2916 -91 2278 -91 
Q 1894 -91 1617 61 
Q 1341 213 1159 525 
L 1159 0 
L 581 0 
L 581 4863 
L 1159 4863 
L 1159 2969 
z
" transform="scale(0.015625)"/>
       <path id="DejaVuSans-65" d="M 3597 1894 
L 3597 1613 
L 953 1613 
Q 991 1019 1311 708 
Q 1631 397 2203 397 
Q 2534 397 2845 478 
Q 3156 559 3463 722 
L 3463 178 
Q 3153 47 2828 -22 
Q 2503 -91 2169 -91 
Q 1331 -91 842 396 
Q 353 884 353 1716 
Q 353 2575 817 3079 
Q 1281 3584 2069 3584 
Q 2775 3584 3186 3129 
Q 3597 2675 3597 1894 
z
M 3022 2063 
Q 3016 2534 2758 2815 
Q 2500 3097 2075 3097 
Q 1594 3097 1305 2825 
Q 1016 2553 972 2059 
L 3022 2063 
z
" transform="scale(0.015625)"/>
       <path id="DejaVuSans-72" d="M 2631 2963 
Q 2534 3019 2420 3045 
Q 2306 3072 2169 3072 
Q 1681 3072 1420 2755 
Q 1159 2438 1159 1844 
L 1159 0 
L 581 0 
L 581 3500 
L 1159 3500 
L 1159 2956 
Q 1341 3275 1631 3429 
Q 1922 3584 2338 3584 
Q 2397 3584 2469 3576 
Q 2541 3569 2628 3553 
L 2631 2963 
z
" transform="scale(0.015625)"/>
       <path id="DejaVuSans-20" transform="scale(0.015625)"/>
       <path id="DejaVuSans-6f" d="M 1959 3097 
Q 1497 3097 1228 2736 
Q 959 2375 959 1747 
Q 959 1119 1226 758 
Q 1494 397 1959 397 
Q 2419 397 2687 759 
Q 2956 1122 2956 1747 
Q 2956 2369 2687 2733 
Q 2419 3097 1959 3097 
z
M 1959 3584 
Q 2709 3584 3137 3096 
Q 3566 2609 3566 1747 
Q 3566 888 3137 398 
Q 2709 -91 1959 -91 
Q 1206 -91 779 398 
Q 353 888 353 1747 
Q 353 2609 779 3096 
Q 1206 3584 1959 3584 
z
" transform="scale(0.015625)"/>
       <path id="DejaVuSans-66" d="M 2375 4863 
L 2375 4384 
L 1825 4384 
Q 1516 4384 1395 4259 
Q 1275 4134 1275 3809 
L 1275 3500 
L 2222 3500 
L 2222 3053 
L 1275 3053 
L 1275 0 
L 697 0 
L 697 3053 
L 147 3053 
L 147 3500 
L 697 3500 
L 697 3744 
Q 697 4328 969 4595 
Q 1241 4863 1831 4863 
L 2375 4863 
z
" transform="scale(0.015625)"/>
       <path id="DejaVuSans-70" d="M 1159 525 
L 1159 -1331 
L 581 -1331 
L 581 3500 
L 1159 3500 
L 1159 2969 
Q 1341 3281 1617 3432 
Q 1894 3584 2278 3584 
Q 2916 3584 3314 3078 
Q 3713 2572 3713 1747 
Q 3713 922 3314 415 
Q 2916 -91 2278 -91 
Q 1894 -91 1617 61 
Q 1341 213 1159 525 
z
M 3116 1747 
Q 3116 2381 2855 2742 
Q 2594 3103 2138 3103 
Q 1681 3103 1420 2742 
Q 1159 2381 1159 1747 
Q 1159 1113 1420 752 
Q 1681 391 2138 391 
Q 2594 391 2855 752 
Q 3116 1113 3116 1747 
z
" transform="scale(0.015625)"/>
       <path id="DejaVuSans-6c" d="M 603 4863 
L 1178 4863 
L 1178 0 
L 603 0 
L 603 4863 
z
" transform="scale(0.015625)"/>
       <path id="DejaVuSans-64" d="M 2906 2969 
L 2906 4863 
L 3481 4863 
L 3481 0 
L 2906 0 
L 2906 525 
Q 2725 213 2448 61 
Q 2172 -91 1784 -91 
Q 1150 -91 751 415 
Q 353 922 353 1747 
Q 353 2572 751 3078 
Q 1150 3584 1784 3584 
Q 2172 3584 2448 3432 
Q 2725 3281 2906 2969 
z
M 947 1747 
Q 947 1113 1208 752 
Q 1469 391 1925 391 
Q 2381 391 2643 752 
Q 2906 1113 2906 1747 
Q 2906 2381 2643 2742 
Q 2381 3103 1925 3103 
Q 1469 3103 1208 2742 
Q 947 2381 947 1747 
z
" transform="scale(0.015625)"/>
       <path id="DejaVuSans-78" d="M 3513 3500 
L 2247 1797 
L 3578 0 
L 2900 0 
L 1881 1375 
L 863 0 
L 184 0 
L 1544 1831 
L 300 3500 
L 978 3500 
L 1906 2253 
L 2834 3500 
L 3513 3500 
z
" transform="scale(0.015625)"/>
       <path id="DejaVuSans-69" d="M 603 3500 
L 1178 3500 
L 1178 0 
L 603 0 
L 603 3500 
z
M 603 4863 
L 1178 4863 
L 1178 4134 
L 603 4134 
L 603 4863 
z
" transform="scale(0.015625)"/>
       <path id="DejaVuSans-74" d="M 1172 4494 
L 1172 3500 
L 2356 3500 
L 2356 3053 
L 1172 3053 
L 1172 1153 
Q 1172 725 1289 603 
Q 1406 481 1766 481 
L 2356 481 
L 2356 0 
L 1766 0 
Q 1100 0 847 248 
Q 594 497 594 1153 
L 594 3053 
L 172 3053 
L 172 3500 
L 594 3500 
L 594 4494 
L 1172 4494 
z
" transform="scale(0.015625)"/>
       <path id="DejaVuSans-73" d="M 2834 3397 
L 2834 2853 
Q 2591 2978 2328 3040 
Q 2066 3103 1784 3103 
Q 1356 3103 1142 2972 
Q 928 2841 928 2578 
Q 928 2378 1081 2264 
Q 1234 2150 1697 2047 
L 1894 2003 
Q 2506 1872 2764 1633 
Q 3022 1394 3022 966 
Q 3022 478 2636 193 
Q 2250 -91 1575 -91 
Q 1294 -91 989 -36 
Q 684 19 347 128 
L 347 722 
Q 666 556 975 473 
Q 1284 391 1588 391 
Q 1994 391 2212 530 
Q 2431 669 2431 922 
Q 2431 1156 2273 1281 
Q 2116 1406 1581 1522 
L 1381 1569 
Q 847 1681 609 1914 
Q 372 2147 372 2553 
Q 372 3047 722 3315 
Q 1072 3584 1716 3584 
Q 2034 3584 2315 3537 
Q 2597 3491 2834 3397 
z
" transform="scale(0.015625)"/>
      </defs>
      <use xlink:href="#DejaVuSans-6e"/>
      <use xlink:href="#DejaVuSans-75" transform="translate(63.378906 0)"/>
      <use xlink:href="#DejaVuSans-6d" transform="translate(126.757812 0)"/>
      <use xlink:href="#DejaVuSans-62" transform="translate(224.169922 0)"/>
      <use xlink:href="#DejaVuSans-65" transform="translate(287.646484 0)"/>
      <use xlink:href="#DejaVuSans-72" transform="translate(349.169922 0)"/>
      <use xlink:href="#DejaVuSans-20" transform="translate(390.283203 0)"/>
      <use xlink:href="#DejaVuSans-6f" transform="translate(422.070312 0)"/>
      <use xlink:href="#DejaVuSans-66" transform="translate(483.251953 0)"/>
      <use xlink:href="#DejaVuSans-20" transform="translate(518.457031 0)"/>
      <use xlink:href="#DejaVuSans-70" transform="translate(550.244141 0)"/>
      <use xlink:href="#DejaVuSans-6f" transform="translate(613.720703 0)"/>
      <use xlink:href="#DejaVuSans-6f" transform="translate(674.902344 0)"/>
      <use xlink:href="#DejaVuSans-6c" transform="translate(736.083984 0)"/>
      <use xlink:href="#DejaVuSans-65" transform="translate(763.867188 0)"/>
      <use xlink:href="#DejaVuSans-64" transform="translate(825.390625 0)"/>
      <use xlink:href="#DejaVuSans-20" transform="translate(888.867188 0)"/>
      <use xlink:href="#DejaVuSans-65" transform="translate(920.654297 0)"/>
      <use xlink:href="#DejaVuSans-78" transform="translate(980.427734 0)"/>
      <use xlink:href="#DejaVuSans-70" transform="translate(1039.607422 0)"/>
      <use xlink:href="#DejaVuSans-65" transform="translate(1103.083984 0)"/>
      <use xlink:href="#DejaVuSans-72" transform="translate(1164.607422 0)"/>
      <use xlink:href="#DejaVuSans-69" transform="translate(1205.720703 0)"/>
      <use xlink:href="#DejaVuSans-6d" transform="translate(1233.503906 0)"/>
      <use xlink:href="#DejaVuSans-65" transform="translate(1330.916016 0)"/>
      <use xlink:href="#DejaVuSans-6e" transform="translate(1392.439453 0)"/>
      <use xlink:href="#DejaVuSans-74" transform="translate(1455.818359 0)"/>
      <use xlink:href="#DejaVuSans-73" transform="translate(1495.027344 0)"/>
     </g>
    </g>
   </g>
   <g id="matplotlib.axis_2">
    <g id="ytick_1">
     <g id="line2d_10">
      <defs>
       <path id="m8fb8ecdc78" d="M 0 0 
L -3.5 0 
" style="stroke: #000000; stroke-width: 0.8"/>
      </defs>
      <g>
       <use xlink:href="#m8fb8ecdc78" x="87.91" y="263.192955" style="stroke: #000000; stroke-width: 0.8"/>
      </g>
     </g>
     <g id="text_11">
      <!-- temperature -->
      <g transform="translate(18.058438 266.992173) scale(0.1 -0.1)">
       <defs>
        <path id="DejaVuSans-61" d="M 2194 1759 
Q 1497 1759 1228 1600 
Q 959 1441 959 1056 
Q 959 750 1161 570 
Q 1363 391 1709 391 
Q 2188 391 2477 730 
Q 2766 1069 2766 1631 
L 2766 1759 
L 2194 1759 
z
M 3341 1997 
L 3341 0 
L 2766 0 
L 2766 531 
Q 2569 213 2275 61 
Q 1981 -91 1556 -91 
Q 1019 -91 701 211 
Q 384 513 384 1019 
Q 384 1609 779 1909 
Q 1175 2209 1959 2209 
L 2766 2209 
L 2766 2266 
Q 2766 2663 2505 2880 
Q 2244 3097 1772 3097 
Q 1472 3097 1187 3025 
Q 903 2953 641 2809 
L 641 3341 
Q 956 3463 1253 3523 
Q 1550 3584 1831 3584 
Q 2591 3584 2966 3190 
Q 3341 2797 3341 1997 
z
" transform="scale(0.015625)"/>
       </defs>
       <use xlink:href="#DejaVuSans-74"/>
       <use xlink:href="#DejaVuSans-65" transform="translate(39.208984 0)"/>
       <use xlink:href="#DejaVuSans-6d" transform="translate(100.732422 0)"/>
       <use xlink:href="#DejaVuSans-70" transform="translate(198.144531 0)"/>
       <use xlink:href="#DejaVuSans-65" transform="translate(261.621094 0)"/>
       <use xlink:href="#DejaVuSans-72" transform="translate(323.144531 0)"/>
       <use xlink:href="#DejaVuSans-61" transform="translate(364.257812 0)"/>
       <use xlink:href="#DejaVuSans-74" transform="translate(425.537109 0)"/>
       <use xlink:href="#DejaVuSans-75" transform="translate(464.746094 0)"/>
       <use xlink:href="#DejaVuSans-72" transform="translate(528.125 0)"/>
       <use xlink:href="#DejaVuSans-65" transform="translate(566.988281 0)"/>
      </g>
     </g>
    </g>
    <g id="ytick_2">
     <g id="line2d_11">
      <g>
       <use xlink:href="#m8fb8ecdc78" x="87.91" y="245.070795" style="stroke: #000000; stroke-width: 0.8"/>
      </g>
     </g>
     <g id="text_12">
      <!-- growth_phase -->
      <g transform="translate(10.944375 248.870014) scale(0.1 -0.1)">
       <defs>
        <path id="DejaVuSans-67" d="M 2906 1791 
Q 2906 2416 2648 2759 
Q 2391 3103 1925 3103 
Q 1463 3103 1205 2759 
Q 947 2416 947 1791 
Q 947 1169 1205 825 
Q 1463 481 1925 481 
Q 2391 481 2648 825 
Q 2906 1169 2906 1791 
z
M 3481 434 
Q 3481 -459 3084 -895 
Q 2688 -1331 1869 -1331 
Q 1566 -1331 1297 -1286 
Q 1028 -1241 775 -1147 
L 775 -588 
Q 1028 -725 1275 -790 
Q 1522 -856 1778 -856 
Q 2344 -856 2625 -561 
Q 2906 -266 2906 331 
L 2906 616 
Q 2728 306 2450 153 
Q 2172 0 1784 0 
Q 1141 0 747 490 
Q 353 981 353 1791 
Q 353 2603 747 3093 
Q 1141 3584 1784 3584 
Q 2172 3584 2450 3431 
Q 2728 3278 2906 2969 
L 2906 3500 
L 3481 3500 
L 3481 434 
z
" transform="scale(0.015625)"/>
        <path id="DejaVuSans-77" d="M 269 3500 
L 844 3500 
L 1563 769 
L 2278 3500 
L 2956 3500 
L 3675 769 
L 4391 3500 
L 4966 3500 
L 4050 0 
L 3372 0 
L 2619 2869 
L 1863 0 
L 1184 0 
L 269 3500 
z
" transform="scale(0.015625)"/>
        <path id="DejaVuSans-68" d="M 3513 2113 
L 3513 0 
L 2938 0 
L 2938 2094 
Q 2938 2591 2744 2837 
Q 2550 3084 2163 3084 
Q 1697 3084 1428 2787 
Q 1159 2491 1159 1978 
L 1159 0 
L 581 0 
L 581 4863 
L 1159 4863 
L 1159 2956 
Q 1366 3272 1645 3428 
Q 1925 3584 2291 3584 
Q 2894 3584 3203 3211 
Q 3513 2838 3513 2113 
z
" transform="scale(0.015625)"/>
        <path id="DejaVuSans-5f" d="M 3263 -1063 
L 3263 -1509 
L -63 -1509 
L -63 -1063 
L 3263 -1063 
z
" transform="scale(0.015625)"/>
       </defs>
       <use xlink:href="#DejaVuSans-67"/>
       <use xlink:href="#DejaVuSans-72" transform="translate(63.476562 0)"/>
       <use xlink:href="#DejaVuSans-6f" transform="translate(102.339844 0)"/>
       <use xlink:href="#DejaVuSans-77" transform="translate(163.521484 0)"/>
       <use xlink:href="#DejaVuSans-74" transform="translate(245.308594 0)"/>
       <use xlink:href="#DejaVuSans-68" transform="translate(284.517578 0)"/>
       <use xlink:href="#DejaVuSans-5f" transform="translate(347.896484 0)"/>
       <use xlink:href="#DejaVuSans-70" transform="translate(397.896484 0)"/>
       <use xlink:href="#DejaVuSans-68" transform="translate(461.373047 0)"/>
       <use xlink:href="#DejaVuSans-61" transform="translate(524.751953 0)"/>
       <use xlink:href="#DejaVuSans-73" transform="translate(586.03125 0)"/>
       <use xlink:href="#DejaVuSans-65" transform="translate(638.130859 0)"/>
      </g>
     </g>
    </g>
    <g id="ytick_3">
     <g id="line2d_12">
      <g>
       <use xlink:href="#m8fb8ecdc78" x="87.91" y="226.948636" style="stroke: #000000; stroke-width: 0.8"/>
      </g>
     </g>
     <g id="text_13">
      <!-- diel -->
      <g transform="translate(62.852188 230.747855) scale(0.1 -0.1)">
       <use xlink:href="#DejaVuSans-64"/>
       <use xlink:href="#DejaVuSans-69" transform="translate(63.476562 0)"/>
       <use xlink:href="#DejaVuSans-65" transform="translate(91.259766 0)"/>
       <use xlink:href="#DejaVuSans-6c" transform="translate(152.783203 0)"/>
      </g>
     </g>
    </g>
    <g id="ytick_4">
     <g id="line2d_13">
      <g>
       <use xlink:href="#m8fb8ecdc78" x="87.91" y="208.826477" style="stroke: #000000; stroke-width: 0.8"/>
      </g>
     </g>
     <g id="text_14">
      <!-- salt -->
      <g transform="translate(62.874063 212.625696) scale(0.1 -0.1)">
       <use xlink:href="#DejaVuSans-73"/>
       <use xlink:href="#DejaVuSans-61" transform="translate(52.099609 0)"/>
       <use xlink:href="#DejaVuSans-6c" transform="translate(113.378906 0)"/>
       <use xlink:href="#DejaVuSans-74" transform="translate(141.162109 0)"/>
      </g>
     </g>
    </g>
    <g id="ytick_5">
     <g id="line2d_14">
      <g>
       <use xlink:href="#m8fb8ecdc78" x="87.91" y="190.704318" style="stroke: #000000; stroke-width: 0.8"/>
      </g>
     </g>
     <g id="text_15">
      <!-- darkness -->
      <g transform="translate(35.6225 194.503537) scale(0.1 -0.1)">
       <defs>
        <path id="DejaVuSans-6b" d="M 581 4863 
L 1159 4863 
L 1159 1991 
L 2875 3500 
L 3609 3500 
L 1753 1863 
L 3688 0 
L 2938 0 
L 1159 1709 
L 1159 0 
L 581 0 
L 581 4863 
z
" transform="scale(0.015625)"/>
       </defs>
       <use xlink:href="#DejaVuSans-64"/>
       <use xlink:href="#DejaVuSans-61" transform="translate(63.476562 0)"/>
       <use xlink:href="#DejaVuSans-72" transform="translate(124.755859 0)"/>
       <use xlink:href="#DejaVuSans-6b" transform="translate(165.869141 0)"/>
       <use xlink:href="#DejaVuSans-6e" transform="translate(223.779297 0)"/>
       <use xlink:href="#DejaVuSans-65" transform="translate(287.158203 0)"/>
       <use xlink:href="#DejaVuSans-73" transform="translate(348.681641 0)"/>
       <use xlink:href="#DejaVuSans-73" transform="translate(400.78125 0)"/>
      </g>
     </g>
    </g>
    <g id="ytick_6">
     <g id="line2d_15">
      <g>
       <use xlink:href="#m8fb8ecdc78" x="87.91" y="172.582159" style="stroke: #000000; stroke-width: 0.8"/>
      </g>
     </g>
     <g id="text_16">
      <!-- plastic -->
      <g transform="translate(48.249063 176.381378) scale(0.1 -0.1)">
       <defs>
        <path id="DejaVuSans-63" d="M 3122 3366 
L 3122 2828 
Q 2878 2963 2633 3030 
Q 2388 3097 2138 3097 
Q 1578 3097 1268 2742 
Q 959 2388 959 1747 
Q 959 1106 1268 751 
Q 1578 397 2138 397 
Q 2388 397 2633 464 
Q 2878 531 3122 666 
L 3122 134 
Q 2881 22 2623 -34 
Q 2366 -91 2075 -91 
Q 1284 -91 818 406 
Q 353 903 353 1747 
Q 353 2603 823 3093 
Q 1294 3584 2113 3584 
Q 2378 3584 2631 3529 
Q 2884 3475 3122 3366 
z
" transform="scale(0.015625)"/>
       </defs>
       <use xlink:href="#DejaVuSans-70"/>
       <use xlink:href="#DejaVuSans-6c" transform="translate(63.476562 0)"/>
       <use xlink:href="#DejaVuSans-61" transform="translate(91.259766 0)"/>
       <use xlink:href="#DejaVuSans-73" transform="translate(152.539062 0)"/>
       <use xlink:href="#DejaVuSans-74" transform="translate(204.638672 0)"/>
       <use xlink:href="#DejaVuSans-69" transform="translate(243.847656 0)"/>
       <use xlink:href="#DejaVuSans-63" transform="translate(271.630859 0)"/>
      </g>
     </g>
    </g>
    <g id="ytick_7">
     <g id="line2d_16">
      <g>
       <use xlink:href="#m8fb8ecdc78" x="87.91" y="154.46" style="stroke: #000000; stroke-width: 0.8"/>
      </g>
     </g>
     <g id="text_17">
      <!-- viral -->
      <g transform="translate(59.195938 158.259219) scale(0.1 -0.1)">
       <defs>
        <path id="DejaVuSans-76" d="M 191 3500 
L 800 3500 
L 1894 563 
L 2988 3500 
L 3597 3500 
L 2284 0 
L 1503 0 
L 191 3500 
z
" transform="scale(0.015625)"/>
       </defs>
       <use xlink:href="#DejaVuSans-76"/>
       <use xlink:href="#DejaVuSans-69" transform="translate(59.179688 0)"/>
       <use xlink:href="#DejaVuSans-72" transform="translate(86.962891 0)"/>
       <use xlink:href="#DejaVuSans-61" transform="translate(128.076172 0)"/>
       <use xlink:href="#DejaVuSans-6c" transform="translate(189.355469 0)"/>
      </g>
     </g>
    </g>
    <g id="ytick_8">
     <g id="line2d_17">
      <g>
       <use xlink:href="#m8fb8ecdc78" x="87.91" y="136.337841" style="stroke: #000000; stroke-width: 0.8"/>
      </g>
     </g>
     <g id="text_18">
      <!-- coculture -->
      <g transform="translate(34.381875 140.13706) scale(0.1 -0.1)">
       <use xlink:href="#DejaVuSans-63"/>
       <use xlink:href="#DejaVuSans-6f" transform="translate(54.980469 0)"/>
       <use xlink:href="#DejaVuSans-63" transform="translate(116.162109 0)"/>
       <use xlink:href="#DejaVuSans-75" transform="translate(171.142578 0)"/>
       <use xlink:href="#DejaVuSans-6c" transform="translate(234.521484 0)"/>
       <use xlink:href="#DejaVuSans-74" transform="translate(262.304688 0)"/>
       <use xlink:href="#DejaVuSans-75" transform="translate(301.513672 0)"/>
       <use xlink:href="#DejaVuSans-72" transform="translate(364.892578 0)"/>
       <use xlink:href="#DejaVuSans-65" transform="translate(403.755859 0)"/>
      </g>
     </g>
    </g>
    <g id="ytick_9">
     <g id="line2d_18">
      <g>
       <use xlink:href="#m8fb8ecdc78" x="87.91" y="118.215682" style="stroke: #000000; stroke-width: 0.8"/>
      </g>
     </g>
     <g id="text_19">
      <!-- iron -->
      <g transform="translate(61.789688 122.014901) scale(0.1 -0.1)">
       <use xlink:href="#DejaVuSans-69"/>
       <use xlink:href="#DejaVuSans-72" transform="translate(27.783203 0)"/>
       <use xlink:href="#DejaVuSans-6f" transform="translate(66.646484 0)"/>
       <use xlink:href="#DejaVuSans-6e" transform="translate(127.828125 0)"/>
      </g>
     </g>
    </g>
    <g id="ytick_10">
     <g id="line2d_19">
      <g>
       <use xlink:href="#m8fb8ecdc78" x="87.91" y="100.093523" style="stroke: #000000; stroke-width: 0.8"/>
      </g>
     </g>
     <g id="text_20">
      <!-- phosphorus -->
      <g transform="translate(22.433438 103.892741) scale(0.1 -0.1)">
       <use xlink:href="#DejaVuSans-70"/>
       <use xlink:href="#DejaVuSans-68" transform="translate(63.476562 0)"/>
       <use xlink:href="#DejaVuSans-6f" transform="translate(126.855469 0)"/>
       <use xlink:href="#DejaVuSans-73" transform="translate(188.037109 0)"/>
       <use xlink:href="#DejaVuSans-70" transform="translate(240.136719 0)"/>
       <use xlink:href="#DejaVuSans-68" transform="translate(303.613281 0)"/>
       <use xlink:href="#DejaVuSans-6f" transform="translate(366.992188 0)"/>
       <use xlink:href="#DejaVuSans-72" transform="translate(428.173828 0)"/>
       <use xlink:href="#DejaVuSans-75" transform="translate(469.287109 0)"/>
       <use xlink:href="#DejaVuSans-73" transform="translate(532.666016 0)"/>
      </g>
     </g>
    </g>
    <g id="ytick_11">
     <g id="line2d_20">
      <g>
       <use xlink:href="#m8fb8ecdc78" x="87.91" y="81.971364" style="stroke: #000000; stroke-width: 0.8"/>
      </g>
     </g>
     <g id="text_21">
      <!-- light -->
      <g transform="translate(58.7475 85.770582) scale(0.1 -0.1)">
       <use xlink:href="#DejaVuSans-6c"/>
       <use xlink:href="#DejaVuSans-69" transform="translate(27.783203 0)"/>
       <use xlink:href="#DejaVuSans-67" transform="translate(55.566406 0)"/>
       <use xlink:href="#DejaVuSans-68" transform="translate(119.042969 0)"/>
       <use xlink:href="#DejaVuSans-74" transform="translate(182.421875 0)"/>
      </g>
     </g>
    </g>
    <g id="ytick_12">
     <g id="line2d_21">
      <g>
       <use xlink:href="#m8fb8ecdc78" x="87.91" y="63.849205" style="stroke: #000000; stroke-width: 0.8"/>
      </g>
     </g>
     <g id="text_22">
      <!-- nitrogen -->
      <g transform="translate(39.030313 67.648423) scale(0.1 -0.1)">
       <use xlink:href="#DejaVuSans-6e"/>
       <use xlink:href="#DejaVuSans-69" transform="translate(63.378906 0)"/>
       <use xlink:href="#DejaVuSans-74" transform="translate(91.162109 0)"/>
       <use xlink:href="#DejaVuSans-72" transform="translate(130.371094 0)"/>
       <use xlink:href="#DejaVuSans-6f" transform="translate(169.234375 0)"/>
       <use xlink:href="#DejaVuSans-67" transform="translate(230.416016 0)"/>
       <use xlink:href="#DejaVuSans-65" transform="translate(293.892578 0)"/>
       <use xlink:href="#DejaVuSans-6e" transform="translate(355.416016 0)"/>
      </g>
     </g>
    </g>
    <g id="ytick_13">
     <g id="line2d_22">
      <g>
       <use xlink:href="#m8fb8ecdc78" x="87.91" y="45.727045" style="stroke: #000000; stroke-width: 0.8"/>
      </g>
     </g>
     <g id="text_23">
      <!-- carbon -->
      <g transform="translate(46.367813 49.526264) scale(0.1 -0.1)">
       <use xlink:href="#DejaVuSans-63"/>
       <use xlink:href="#DejaVuSans-61" transform="translate(54.980469 0)"/>
       <use xlink:href="#DejaVuSans-72" transform="translate(116.259766 0)"/>
       <use xlink:href="#DejaVuSans-62" transform="translate(157.373047 0)"/>
       <use xlink:href="#DejaVuSans-6f" transform="translate(220.849609 0)"/>
       <use xlink:href="#DejaVuSans-6e" transform="translate(282.03125 0)"/>
      </g>
     </g>
    </g>
   </g>
   <g id="patch_29">
    <path d="M 87.91 282.04 
L 87.91 26.88 
" style="fill: none; stroke: #000000; stroke-width: 0.8; stroke-linejoin: miter; stroke-linecap: square"/>
   </g>
   <g id="patch_30">
    <path d="M 529.2 282.04 
L 529.2 26.88 
" style="fill: none; stroke: #000000; stroke-width: 0.8; stroke-linejoin: miter; stroke-linecap: square"/>
   </g>
   <g id="patch_31">
    <path d="M 87.91 282.04 
L 529.2 282.04 
" style="fill: none; stroke: #000000; stroke-width: 0.8; stroke-linejoin: miter; stroke-linecap: square"/>
   </g>
   <g id="patch_32">
    <path d="M 87.91 26.88 
L 529.2 26.88 
" style="fill: none; stroke: #000000; stroke-width: 0.8; stroke-linejoin: miter; stroke-linecap: square"/>
   </g>
   <g id="text_24">
    <!-- Breadth axis: 13 treatment types in the pooled gene-DE set (n=74) -->
    <g transform="translate(105.879688 20.88) scale(0.12 -0.12)">
     <defs>
      <path id="DejaVuSans-42" d="M 1259 2228 
L 1259 519 
L 2272 519 
Q 2781 519 3026 730 
Q 3272 941 3272 1375 
Q 3272 1813 3026 2020 
Q 2781 2228 2272 2228 
L 1259 2228 
z
M 1259 4147 
L 1259 2741 
L 2194 2741 
Q 2656 2741 2882 2914 
Q 3109 3088 3109 3444 
Q 3109 3797 2882 3972 
Q 2656 4147 2194 4147 
L 1259 4147 
z
M 628 4666 
L 2241 4666 
Q 2963 4666 3353 4366 
Q 3744 4066 3744 3513 
Q 3744 3084 3544 2831 
Q 3344 2578 2956 2516 
Q 3422 2416 3680 2098 
Q 3938 1781 3938 1306 
Q 3938 681 3513 340 
Q 3088 0 2303 0 
L 628 0 
L 628 4666 
z
" transform="scale(0.015625)"/>
      <path id="DejaVuSans-3a" d="M 750 794 
L 1409 794 
L 1409 0 
L 750 0 
L 750 794 
z
M 750 3309 
L 1409 3309 
L 1409 2516 
L 750 2516 
L 750 3309 
z
" transform="scale(0.015625)"/>
      <path id="DejaVuSans-33" d="M 2597 2516 
Q 3050 2419 3304 2112 
Q 3559 1806 3559 1356 
Q 3559 666 3084 287 
Q 2609 -91 1734 -91 
Q 1441 -91 1130 -33 
Q 819 25 488 141 
L 488 750 
Q 750 597 1062 519 
Q 1375 441 1716 441 
Q 2309 441 2620 675 
Q 2931 909 2931 1356 
Q 2931 1769 2642 2001 
Q 2353 2234 1838 2234 
L 1294 2234 
L 1294 2753 
L 1863 2753 
Q 2328 2753 2575 2939 
Q 2822 3125 2822 3475 
Q 2822 3834 2567 4026 
Q 2313 4219 1838 4219 
Q 1578 4219 1281 4162 
Q 984 4106 628 3988 
L 628 4550 
Q 988 4650 1302 4700 
Q 1616 4750 1894 4750 
Q 2613 4750 3031 4423 
Q 3450 4097 3450 3541 
Q 3450 3153 3228 2886 
Q 3006 2619 2597 2516 
z
" transform="scale(0.015625)"/>
      <path id="DejaVuSans-79" d="M 2059 -325 
Q 1816 -950 1584 -1140 
Q 1353 -1331 966 -1331 
L 506 -1331 
L 506 -850 
L 844 -850 
Q 1081 -850 1212 -737 
Q 1344 -625 1503 -206 
L 1606 56 
L 191 3500 
L 800 3500 
L 1894 763 
L 2988 3500 
L 3597 3500 
L 2059 -325 
z
" transform="scale(0.015625)"/>
      <path id="DejaVuSans-2d" d="M 313 2009 
L 1997 2009 
L 1997 1497 
L 313 1497 
L 313 2009 
z
" transform="scale(0.015625)"/>
      <path id="DejaVuSans-44" d="M 1259 4147 
L 1259 519 
L 2022 519 
Q 2988 519 3436 956 
Q 3884 1394 3884 2338 
Q 3884 3275 3436 3711 
Q 2988 4147 2022 4147 
L 1259 4147 
z
M 628 4666 
L 1925 4666 
Q 3281 4666 3915 4102 
Q 4550 3538 4550 2338 
Q 4550 1131 3912 565 
Q 3275 0 1925 0 
L 628 0 
L 628 4666 
z
" transform="scale(0.015625)"/>
      <path id="DejaVuSans-45" d="M 628 4666 
L 3578 4666 
L 3578 4134 
L 1259 4134 
L 1259 2753 
L 3481 2753 
L 3481 2222 
L 1259 2222 
L 1259 531 
L 3634 531 
L 3634 0 
L 628 0 
L 628 4666 
z
" transform="scale(0.015625)"/>
      <path id="DejaVuSans-28" d="M 1984 4856 
Q 1566 4138 1362 3434 
Q 1159 2731 1159 2009 
Q 1159 1288 1364 580 
Q 1569 -128 1984 -844 
L 1484 -844 
Q 1016 -109 783 600 
Q 550 1309 550 2009 
Q 550 2706 781 3412 
Q 1013 4119 1484 4856 
L 1984 4856 
z
" transform="scale(0.015625)"/>
      <path id="DejaVuSans-3d" d="M 678 2906 
L 4684 2906 
L 4684 2381 
L 678 2381 
L 678 2906 
z
M 678 1631 
L 4684 1631 
L 4684 1100 
L 678 1100 
L 678 1631 
z
" transform="scale(0.015625)"/>
      <path id="DejaVuSans-37" d="M 525 4666 
L 3525 4666 
L 3525 4397 
L 1831 0 
L 1172 0 
L 2766 4134 
L 525 4134 
L 525 4666 
z
" transform="scale(0.015625)"/>
      <path id="DejaVuSans-29" d="M 513 4856 
L 1013 4856 
Q 1481 4119 1714 3412 
Q 1947 2706 1947 2009 
Q 1947 1309 1714 600 
Q 1481 -109 1013 -844 
L 513 -844 
Q 928 -128 1133 580 
Q 1338 1288 1338 2009 
Q 1338 2731 1133 3434 
Q 928 4138 513 4856 
z
" transform="scale(0.015625)"/>
     </defs>
     <use xlink:href="#DejaVuSans-42"/>
     <use xlink:href="#DejaVuSans-72" transform="translate(68.603516 0)"/>
     <use xlink:href="#DejaVuSans-65" transform="translate(107.466797 0)"/>
     <use xlink:href="#DejaVuSans-61" transform="translate(168.990234 0)"/>
     <use xlink:href="#DejaVuSans-64" transform="translate(230.269531 0)"/>
     <use xlink:href="#DejaVuSans-74" transform="translate(293.746094 0)"/>
     <use xlink:href="#DejaVuSans-68" transform="translate(332.955078 0)"/>
     <use xlink:href="#DejaVuSans-20" transform="translate(396.333984 0)"/>
     <use xlink:href="#DejaVuSans-61" transform="translate(428.121094 0)"/>
     <use xlink:href="#DejaVuSans-78" transform="translate(489.400391 0)"/>
     <use xlink:href="#DejaVuSans-69" transform="translate(548.580078 0)"/>
     <use xlink:href="#DejaVuSans-73" transform="translate(576.363281 0)"/>
     <use xlink:href="#DejaVuSans-3a" transform="translate(628.462891 0)"/>
     <use xlink:href="#DejaVuSans-20" transform="translate(662.154297 0)"/>
     <use xlink:href="#DejaVuSans-31" transform="translate(693.941406 0)"/>
     <use xlink:href="#DejaVuSans-33" transform="translate(757.564453 0)"/>
     <use xlink:href="#DejaVuSans-20" transform="translate(821.1875 0)"/>
     <use xlink:href="#DejaVuSans-74" transform="translate(852.974609 0)"/>
     <use xlink:href="#DejaVuSans-72" transform="translate(892.183594 0)"/>
     <use xlink:href="#DejaVuSans-65" transform="translate(931.046875 0)"/>
     <use xlink:href="#DejaVuSans-61" transform="translate(992.570312 0)"/>
     <use xlink:href="#DejaVuSans-74" transform="translate(1053.849609 0)"/>
     <use xlink:href="#DejaVuSans-6d" transform="translate(1093.058594 0)"/>
     <use xlink:href="#DejaVuSans-65" transform="translate(1190.470703 0)"/>
     <use xlink:href="#DejaVuSans-6e" transform="translate(1251.994141 0)"/>
     <use xlink:href="#DejaVuSans-74" transform="translate(1315.373047 0)"/>
     <use xlink:href="#DejaVuSans-20" transform="translate(1354.582031 0)"/>
     <use xlink:href="#DejaVuSans-74" transform="translate(1386.369141 0)"/>
     <use xlink:href="#DejaVuSans-79" transform="translate(1425.578125 0)"/>
     <use xlink:href="#DejaVuSans-70" transform="translate(1484.757812 0)"/>
     <use xlink:href="#DejaVuSans-65" transform="translate(1548.234375 0)"/>
     <use xlink:href="#DejaVuSans-73" transform="translate(1609.757812 0)"/>
     <use xlink:href="#DejaVuSans-20" transform="translate(1661.857422 0)"/>
     <use xlink:href="#DejaVuSans-69" transform="translate(1693.644531 0)"/>
     <use xlink:href="#DejaVuSans-6e" transform="translate(1721.427734 0)"/>
     <use xlink:href="#DejaVuSans-20" transform="translate(1784.806641 0)"/>
     <use xlink:href="#DejaVuSans-74" transform="translate(1816.59375 0)"/>
     <use xlink:href="#DejaVuSans-68" transform="translate(1855.802734 0)"/>
     <use xlink:href="#DejaVuSans-65" transform="translate(1919.181641 0)"/>
     <use xlink:href="#DejaVuSans-20" transform="translate(1980.705078 0)"/>
     <use xlink:href="#DejaVuSans-70" transform="translate(2012.492188 0)"/>
     <use xlink:href="#DejaVuSans-6f" transform="translate(2075.96875 0)"/>
     <use xlink:href="#DejaVuSans-6f" transform="translate(2137.150391 0)"/>
     <use xlink:href="#DejaVuSans-6c" transform="translate(2198.332031 0)"/>
     <use xlink:href="#DejaVuSans-65" transform="translate(2226.115234 0)"/>
     <use xlink:href="#DejaVuSans-64" transform="translate(2287.638672 0)"/>
     <use xlink:href="#DejaVuSans-20" transform="translate(2351.115234 0)"/>
     <use xlink:href="#DejaVuSans-67" transform="translate(2382.902344 0)"/>
     <use xlink:href="#DejaVuSans-65" transform="translate(2446.378906 0)"/>
     <use xlink:href="#DejaVuSans-6e" transform="translate(2507.902344 0)"/>
     <use xlink:href="#DejaVuSans-65" transform="translate(2571.28125 0)"/>
     <use xlink:href="#DejaVuSans-2d" transform="translate(2632.804688 0)"/>
     <use xlink:href="#DejaVuSans-44" transform="translate(2668.888672 0)"/>
     <use xlink:href="#DejaVuSans-45" transform="translate(2745.890625 0)"/>
     <use xlink:href="#DejaVuSans-20" transform="translate(2809.074219 0)"/>
     <use xlink:href="#DejaVuSans-73" transform="translate(2840.861328 0)"/>
     <use xlink:href="#DejaVuSans-65" transform="translate(2892.960938 0)"/>
     <use xlink:href="#DejaVuSans-74" transform="translate(2954.484375 0)"/>
     <use xlink:href="#DejaVuSans-20" transform="translate(2993.693359 0)"/>
     <use xlink:href="#DejaVuSans-28" transform="translate(3025.480469 0)"/>
     <use xlink:href="#DejaVuSans-6e" transform="translate(3064.494141 0)"/>
     <use xlink:href="#DejaVuSans-3d" transform="translate(3127.873047 0)"/>
     <use xlink:href="#DejaVuSans-37" transform="translate(3211.662109 0)"/>
     <use xlink:href="#DejaVuSans-34" transform="translate(3275.285156 0)"/>
     <use xlink:href="#DejaVuSans-29" transform="translate(3338.908203 0)"/>
    </g>
   </g>
   <g id="legend_1">
    <g id="patch_33">
     <path d="M 315.23125 278.04 
L 523.6 278.04 
Q 525.2 278.04 525.2 276.44 
L 525.2 253.5325 
Q 525.2 251.9325 523.6 251.9325 
L 315.23125 251.9325 
Q 313.63125 251.9325 313.63125 253.5325 
L 313.63125 276.44 
Q 313.63125 278.04 315.23125 278.04 
z
" style="fill: #ffffff; opacity: 0.8; stroke: #cccccc; stroke-linejoin: miter"/>
    </g>
    <g id="patch_34">
     <path d="M 316.83125 261.21125 
L 332.83125 261.21125 
L 332.83125 255.61125 
L 316.83125 255.61125 
z
" style="fill: #3a7ca5"/>
    </g>
    <g id="text_25">
     <!-- all_detected_genes (real tested denominator) -->
     <g transform="translate(339.23125 261.21125) scale(0.08 -0.08)">
      <use xlink:href="#DejaVuSans-61"/>
      <use xlink:href="#DejaVuSans-6c" transform="translate(61.279297 0)"/>
      <use xlink:href="#DejaVuSans-6c" transform="translate(89.0625 0)"/>
      <use xlink:href="#DejaVuSans-5f" transform="translate(116.845703 0)"/>
      <use xlink:href="#DejaVuSans-64" transform="translate(166.845703 0)"/>
      <use xlink:href="#DejaVuSans-65" transform="translate(230.322266 0)"/>
      <use xlink:href="#DejaVuSans-74" transform="translate(291.845703 0)"/>
      <use xlink:href="#DejaVuSans-65" transform="translate(331.054688 0)"/>
      <use xlink:href="#DejaVuSans-63" transform="translate(392.578125 0)"/>
      <use xlink:href="#DejaVuSans-74" transform="translate(447.558594 0)"/>
      <use xlink:href="#DejaVuSans-65" transform="translate(486.767578 0)"/>
      <use xlink:href="#DejaVuSans-64" transform="translate(548.291016 0)"/>
      <use xlink:href="#DejaVuSans-5f" transform="translate(611.767578 0)"/>
      <use xlink:href="#DejaVuSans-67" transform="translate(661.767578 0)"/>
      <use xlink:href="#DejaVuSans-65" transform="translate(725.244141 0)"/>
      <use xlink:href="#DejaVuSans-6e" transform="translate(786.767578 0)"/>
      <use xlink:href="#DejaVuSans-65" transform="translate(850.146484 0)"/>
      <use xlink:href="#DejaVuSans-73" transform="translate(911.669922 0)"/>
      <use xlink:href="#DejaVuSans-20" transform="translate(963.769531 0)"/>
      <use xlink:href="#DejaVuSans-28" transform="translate(995.556641 0)"/>
      <use xlink:href="#DejaVuSans-72" transform="translate(1034.570312 0)"/>
      <use xlink:href="#DejaVuSans-65" transform="translate(1073.433594 0)"/>
      <use xlink:href="#DejaVuSans-61" transform="translate(1134.957031 0)"/>
      <use xlink:href="#DejaVuSans-6c" transform="translate(1196.236328 0)"/>
      <use xlink:href="#DejaVuSans-20" transform="translate(1224.019531 0)"/>
      <use xlink:href="#DejaVuSans-74" transform="translate(1255.806641 0)"/>
      <use xlink:href="#DejaVuSans-65" transform="translate(1295.015625 0)"/>
      <use xlink:href="#DejaVuSans-73" transform="translate(1356.539062 0)"/>
      <use xlink:href="#DejaVuSans-74" transform="translate(1408.638672 0)"/>
      <use xlink:href="#DejaVuSans-65" transform="translate(1447.847656 0)"/>
      <use xlink:href="#DejaVuSans-64" transform="translate(1509.371094 0)"/>
      <use xlink:href="#DejaVuSans-20" transform="translate(1572.847656 0)"/>
      <use xlink:href="#DejaVuSans-64" transform="translate(1604.634766 0)"/>
      <use xlink:href="#DejaVuSans-65" transform="translate(1668.111328 0)"/>
      <use xlink:href="#DejaVuSans-6e" transform="translate(1729.634766 0)"/>
      <use xlink:href="#DejaVuSans-6f" transform="translate(1793.013672 0)"/>
      <use xlink:href="#DejaVuSans-6d" transform="translate(1854.195312 0)"/>
      <use xlink:href="#DejaVuSans-69" transform="translate(1951.607422 0)"/>
      <use xlink:href="#DejaVuSans-6e" transform="translate(1979.390625 0)"/>
      <use xlink:href="#DejaVuSans-61" transform="translate(2042.769531 0)"/>
      <use xlink:href="#DejaVuSans-74" transform="translate(2104.048828 0)"/>
      <use xlink:href="#DejaVuSans-6f" transform="translate(2143.257812 0)"/>
      <use xlink:href="#DejaVuSans-72" transform="translate(2204.439453 0)"/>
      <use xlink:href="#DejaVuSans-29" transform="translate(2245.552734 0)"/>
     </g>
    </g>
    <g id="patch_35">
     <path d="M 316.83125 273.17625 
L 332.83125 273.17625 
L 332.83125 267.57625 
L 316.83125 267.57625 
z
" style="fill: #cbb09c"/>
    </g>
    <g id="text_26">
     <!-- other scopes (significant-only etc.) -->
     <g transform="translate(339.23125 273.17625) scale(0.08 -0.08)">
      <defs>
       <path id="DejaVuSans-2e" d="M 684 794 
L 1344 794 
L 1344 0 
L 684 0 
L 684 794 
z
" transform="scale(0.015625)"/>
      </defs>
      <use xlink:href="#DejaVuSans-6f"/>
      <use xlink:href="#DejaVuSans-74" transform="translate(61.181641 0)"/>
      <use xlink:href="#DejaVuSans-68" transform="translate(100.390625 0)"/>
      <use xlink:href="#DejaVuSans-65" transform="translate(163.769531 0)"/>
      <use xlink:href="#DejaVuSans-72" transform="translate(225.292969 0)"/>
      <use xlink:href="#DejaVuSans-20" transform="translate(266.40625 0)"/>
      <use xlink:href="#DejaVuSans-73" transform="translate(298.193359 0)"/>
      <use xlink:href="#DejaVuSans-63" transform="translate(350.292969 0)"/>
      <use xlink:href="#DejaVuSans-6f" transform="translate(405.273438 0)"/>
      <use xlink:href="#DejaVuSans-70" transform="translate(466.455078 0)"/>
      <use xlink:href="#DejaVuSans-65" transform="translate(529.931641 0)"/>
      <use xlink:href="#DejaVuSans-73" transform="translate(591.455078 0)"/>
      <use xlink:href="#DejaVuSans-20" transform="translate(643.554688 0)"/>
      <use xlink:href="#DejaVuSans-28" transform="translate(675.341797 0)"/>
      <use xlink:href="#DejaVuSans-73" transform="translate(714.355469 0)"/>
      <use xlink:href="#DejaVuSans-69" transform="translate(766.455078 0)"/>
      <use xlink:href="#DejaVuSans-67" transform="translate(794.238281 0)"/>
      <use xlink:href="#DejaVuSans-6e" transform="translate(857.714844 0)"/>
      <use xlink:href="#DejaVuSans-69" transform="translate(921.09375 0)"/>
      <use xlink:href="#DejaVuSans-66" transform="translate(948.876953 0)"/>
      <use xlink:href="#DejaVuSans-69" transform="translate(984.082031 0)"/>
      <use xlink:href="#DejaVuSans-63" transform="translate(1011.865234 0)"/>
      <use xlink:href="#DejaVuSans-61" transform="translate(1066.845703 0)"/>
      <use xlink:href="#DejaVuSans-6e" transform="translate(1128.125 0)"/>
      <use xlink:href="#DejaVuSans-74" transform="translate(1191.503906 0)"/>
      <use xlink:href="#DejaVuSans-2d" transform="translate(1230.712891 0)"/>
      <use xlink:href="#DejaVuSans-6f" transform="translate(1268.671875 0)"/>
      <use xlink:href="#DejaVuSans-6e" transform="translate(1329.853516 0)"/>
      <use xlink:href="#DejaVuSans-6c" transform="translate(1393.232422 0)"/>
      <use xlink:href="#DejaVuSans-79" transform="translate(1421.015625 0)"/>
      <use xlink:href="#DejaVuSans-20" transform="translate(1480.195312 0)"/>
      <use xlink:href="#DejaVuSans-65" transform="translate(1511.982422 0)"/>
      <use xlink:href="#DejaVuSans-74" transform="translate(1573.505859 0)"/>
      <use xlink:href="#DejaVuSans-63" transform="translate(1612.714844 0)"/>
      <use xlink:href="#DejaVuSans-2e" transform="translate(1667.695312 0)"/>
      <use xlink:href="#DejaVuSans-29" transform="translate(1699.482422 0)"/>
     </g>
    </g>
   </g>
  </g>
 </g>
 <defs>
  <clipPath id="p35b6435cc3">
   <rect x="87.91" y="26.88" width="441.29" height="255.16"/>
  </clipPath>
 </defs>
</svg>
