<?xml version="1.0" encoding="utf-8" standalone="no"?>
<!DOCTYPE svg PUBLIC "-//W3C//DTD SVG 1.1//EN"
  "http://www.w3.org/Graphics/SVG/1.1/DTD/svg11.dtd">
<svg xmlns:xlink="http://www.w3.org/1999/xlink" width="504pt" height="360pt" viewBox="0 0 504 360" xmlns="http://www.w3.org/2000/svg" version="1.1">
 <metadata>
  <rdf:RDF xmlns:dc="http://purl.org/dc/elements/1.1/" xmlns:cc="http://creativecommons.org/ns#" xmlns:rdf="http://www.w3.org/1999/02/22-rdf-syntax-ns#">
   <cc:Work>
    <dc:type rdf:resource="http://purl.org/dc/dcmitype/StillImage"/>
    <dc:date>2026-06-16T11:27:28.362662</dc:date>
    <dc:format>image/svg+xml</dc:format>
    <dc:creator>
     <cc:Agent>
      <dc:title>Matplotlib v3.10.9, https://matplotlib.org/</dc:title>
     </cc:Agent>
    </dc:creator>
   </cc:Work>
  </rdf:RDF>
 </metadata>
 <defs>
  <style type="text/css">*{stroke-linejoin: round; stroke-linecap: butt}</style>
 </defs>
 <g id="figure_1">
  <g id="patch_1">
   <path d="M 0 360 
L 504 360 
L 504 0 
L 0 0 
z
" style="fill: #ffffff"/>
  </g>
  <g id="axes_1">
   <g id="patch_2">
    <path d="M 38.63 318.04 
L 490.005 318.04 
L 490.005 41.856 
L 38.63 41.856 
z
" style="fill: #ffffff"/>
   </g>
   <g id="matplotlib.axis_1">
    <g id="xtick_1">
     <g id="line2d_1">
      <defs>
       <path id="m6ec06db176" d="M 0 0 
L 0 3.5 
" style="stroke: #000000; stroke-width: 0.8"/>
      </defs>
      <g>
       <use xlink:href="#m6ec06db176" x="73.351154" y="318.04" style="stroke: #000000; stroke-width: 0.8"/>
      </g>
     </g>
     <g id="text_1">
      <!-- 0 -->
      <g transform="translate(70.169904 332.638438) scale(0.1 -0.1)">
       <defs>
        <path id="DejaVuSans-30" d="M 2034 4250 
Q 1547 4250 1301 3770 
Q 1056 3291 1056 2328 
Q 1056 1369 1301 889 
Q 1547 409 2034 409 
Q 2525 409 2770 889 
Q 3016 1369 3016 2328 
Q 3016 3291 2770 3770 
Q 2525 4250 2034 4250 
z
M 2034 4750 
Q 2819 4750 3233 4129 
Q 3647 3509 3647 2328 
Q 3647 1150 3233 529 
Q 2819 -91 2034 -91 
Q 1250 -91 836 529 
Q 422 1150 422 2328 
Q 422 3509 836 4129 
Q 1250 4750 2034 4750 
z
" transform="scale(0.015625)"/>
       </defs>
       <use xlink:href="#DejaVuSans-30"/>
      </g>
     </g>
    </g>
    <g id="xtick_2">
     <g id="line2d_2">
      <g>
       <use xlink:href="#m6ec06db176" x="142.793462" y="318.04" style="stroke: #000000; stroke-width: 0.8"/>
      </g>
     </g>
     <g id="text_2">
      <!-- 1 -->
      <g transform="translate(139.612212 332.638438) scale(0.1 -0.1)">
       <defs>
        <path id="DejaVuSans-31" d="M 794 531 
L 1825 531 
L 1825 4091 
L 703 3866 
L 703 4441 
L 1819 4666 
L 2450 4666 
L 2450 531 
L 3481 531 
L 3481 0 
L 794 0 
L 794 531 
z
" transform="scale(0.015625)"/>
       </defs>
       <use xlink:href="#DejaVuSans-31"/>
      </g>
     </g>
    </g>
    <g id="xtick_3">
     <g id="line2d_3">
      <g>
       <use xlink:href="#m6ec06db176" x="212.235769" y="318.04" style="stroke: #000000; stroke-width: 0.8"/>
      </g>
     </g>
     <g id="text_3">
      <!-- 2 -->
      <g transform="translate(209.054519 332.638438) scale(0.1 -0.1)">
       <defs>
        <path id="DejaVuSans-32" d="M 1228 531 
L 3431 531 
L 3431 0 
L 469 0 
L 469 531 
Q 828 903 1448 1529 
Q 2069 2156 2228 2338 
Q 2531 2678 2651 2914 
Q 2772 3150 2772 3378 
Q 2772 3750 2511 3984 
Q 2250 4219 1831 4219 
Q 1534 4219 1204 4116 
Q 875 4013 500 3803 
L 500 4441 
Q 881 4594 1212 4672 
Q 1544 4750 1819 4750 
Q 2544 4750 2975 4387 
Q 3406 4025 3406 3419 
Q 3406 3131 3298 2873 
Q 3191 2616 2906 2266 
Q 2828 2175 2409 1742 
Q 1991 1309 1228 531 
z
" transform="scale(0.015625)"/>
       </defs>
       <use xlink:href="#DejaVuSans-32"/>
      </g>
     </g>
    </g>
    <g id="xtick_4">
     <g id="line2d_4">
      <g>
       <use xlink:href="#m6ec06db176" x="281.678077" y="318.04" style="stroke: #000000; stroke-width: 0.8"/>
      </g>
     </g>
     <g id="text_4">
      <!-- 3 -->
      <g transform="translate(278.496827 332.638438) scale(0.1 -0.1)">
       <defs>
        <path id="DejaVuSans-33" d="M 2597 2516 
Q 3050 2419 3304 2112 
Q 3559 1806 3559 1356 
Q 3559 666 3084 287 
Q 2609 -91 1734 -91 
Q 1441 -91 1130 -33 
Q 819 25 488 141 
L 488 750 
Q 750 597 1062 519 
Q 1375 441 1716 441 
Q 2309 441 2620 675 
Q 2931 909 2931 1356 
Q 2931 1769 2642 2001 
Q 2353 2234 1838 2234 
L 1294 2234 
L 1294 2753 
L 1863 2753 
Q 2328 2753 2575 2939 
Q 2822 3125 2822 3475 
Q 2822 3834 2567 4026 
Q 2313 4219 1838 4219 
Q 1578 4219 1281 4162 
Q 984 4106 628 3988 
L 628 4550 
Q 988 4650 1302 4700 
Q 1616 4750 1894 4750 
Q 2613 4750 3031 4423 
Q 3450 4097 3450 3541 
Q 3450 3153 3228 2886 
Q 3006 2619 2597 2516 
z
" transform="scale(0.015625)"/>
       </defs>
       <use xlink:href="#DejaVuSans-33"/>
      </g>
     </g>
    </g>
    <g id="xtick_5">
     <g id="line2d_5">
      <g>
       <use xlink:href="#m6ec06db176" x="351.120385" y="318.04" style="stroke: #000000; stroke-width: 0.8"/>
      </g>
     </g>
     <g id="text_5">
      <!-- 4 -->
      <g transform="translate(347.939135 332.638438) scale(0.1 -0.1)">
       <defs>
        <path id="DejaVuSans-34" d="M 2419 4116 
L 825 1625 
L 2419 1625 
L 2419 4116 
z
M 2253 4666 
L 3047 4666 
L 3047 1625 
L 3713 1625 
L 3713 1100 
L 3047 1100 
L 3047 0 
L 2419 0 
L 2419 1100 
L 313 1100 
L 313 1709 
L 2253 4666 
z
" transform="scale(0.015625)"/>
       </defs>
       <use xlink:href="#DejaVuSans-34"/>
      </g>
     </g>
    </g>
    <g id="xtick_6">
     <g id="line2d_6">
      <g>
       <use xlink:href="#m6ec06db176" x="420.562692" y="318.04" style="stroke: #000000; stroke-width: 0.8"/>
      </g>
     </g>
     <g id="text_6">
      <!-- 5 -->
      <g transform="translate(417.381442 332.638438) scale(0.1 -0.1)">
       <defs>
        <path id="DejaVuSans-35" d="M 691 4666 
L 3169 4666 
L 3169 4134 
L 1269 4134 
L 1269 2991 
Q 1406 3038 1543 3061 
Q 1681 3084 1819 3084 
Q 2600 3084 3056 2656 
Q 3513 2228 3513 1497 
Q 3513 744 3044 326 
Q 2575 -91 1722 -91 
Q 1428 -91 1123 -41 
Q 819 9 494 109 
L 494 744 
Q 775 591 1075 516 
Q 1375 441 1709 441 
Q 2250 441 2565 725 
Q 2881 1009 2881 1497 
Q 2881 1984 2565 2268 
Q 2250 2553 1709 2553 
Q 1456 2553 1204 2497 
Q 953 2441 691 2322 
L 691 4666 
z
" transform="scale(0.015625)"/>
       </defs>
       <use xlink:href="#DejaVuSans-35"/>
      </g>
     </g>
    </g>
    <g id="xtick_7">
     <g id="line2d_7">
      <g>
       <use xlink:href="#m6ec06db176" x="490.005" y="318.04" style="stroke: #000000; stroke-width: 0.8"/>
      </g>
     </g>
     <g id="text_7">
      <!-- 6 -->
      <g transform="translate(486.82375 332.638438) scale(0.1 -0.1)">
       <defs>
        <path id="DejaVuSans-36" d="M 2113 2584 
Q 1688 2584 1439 2293 
Q 1191 2003 1191 1497 
Q 1191 994 1439 701 
Q 1688 409 2113 409 
Q 2538 409 2786 701 
Q 3034 994 3034 1497 
Q 3034 2003 2786 2293 
Q 2538 2584 2113 2584 
z
M 3366 4563 
L 3366 3988 
Q 3128 4100 2886 4159 
Q 2644 4219 2406 4219 
Q 1781 4219 1451 3797 
Q 1122 3375 1075 2522 
Q 1259 2794 1537 2939 
Q 1816 3084 2150 3084 
Q 2853 3084 3261 2657 
Q 3669 2231 3669 1497 
Q 3669 778 3244 343 
Q 2819 -91 2113 -91 
Q 1303 -91 875 529 
Q 447 1150 447 2328 
Q 447 3434 972 4092 
Q 1497 4750 2381 4750 
Q 2619 4750 2861 4703 
Q 3103 4656 3366 4563 
z
" transform="scale(0.015625)"/>
       </defs>
       <use xlink:href="#DejaVuSans-36"/>
      </g>
     </g>
    </g>
    <g id="text_8">
     <!-- breadth (distinct treatment types responded) -->
     <g transform="translate(150.797188 346.316563) scale(0.1 -0.1)">
      <defs>
       <path id="DejaVuSans-62" d="M 3116 1747 
Q 3116 2381 2855 2742 
Q 2594 3103 2138 3103 
Q 1681 3103 1420 2742 
Q 1159 2381 1159 1747 
Q 1159 1113 1420 752 
Q 1681 391 2138 391 
Q 2594 391 2855 752 
Q 3116 1113 3116 1747 
z
M 1159 2969 
Q 1341 3281 1617 3432 
Q 1894 3584 2278 3584 
Q 2916 3584 3314 3078 
Q 3713 2572 3713 1747 
Q 3713 922 3314 415 
Q 2916 -91 2278 -91 
Q 1894 -91 1617 61 
Q 1341 213 1159 525 
L 1159 0 
L 581 0 
L 581 4863 
L 1159 4863 
L 1159 2969 
z
" transform="scale(0.015625)"/>
       <path id="DejaVuSans-72" d="M 2631 2963 
Q 2534 3019 2420 3045 
Q 2306 3072 2169 3072 
Q 1681 3072 1420 2755 
Q 1159 2438 1159 1844 
L 1159 0 
L 581 0 
L 581 3500 
L 1159 3500 
L 1159 2956 
Q 1341 3275 1631 3429 
Q 1922 3584 2338 3584 
Q 2397 3584 2469 3576 
Q 2541 3569 2628 3553 
L 2631 2963 
z
" transform="scale(0.015625)"/>
       <path id="DejaVuSans-65" d="M 3597 1894 
L 3597 1613 
L 953 1613 
Q 991 1019 1311 708 
Q 1631 397 2203 397 
Q 2534 397 2845 478 
Q 3156 559 3463 722 
L 3463 178 
Q 3153 47 2828 -22 
Q 2503 -91 2169 -91 
Q 1331 -91 842 396 
Q 353 884 353 1716 
Q 353 2575 817 3079 
Q 1281 3584 2069 3584 
Q 2775 3584 3186 3129 
Q 3597 2675 3597 1894 
z
M 3022 2063 
Q 3016 2534 2758 2815 
Q 2500 3097 2075 3097 
Q 1594 3097 1305 2825 
Q 1016 2553 972 2059 
L 3022 2063 
z
" transform="scale(0.015625)"/>
       <path id="DejaVuSans-61" d="M 2194 1759 
Q 1497 1759 1228 1600 
Q 959 1441 959 1056 
Q 959 750 1161 570 
Q 1363 391 1709 391 
Q 2188 391 2477 730 
Q 2766 1069 2766 1631 
L 2766 1759 
L 2194 1759 
z
M 3341 1997 
L 3341 0 
L 2766 0 
L 2766 531 
Q 2569 213 2275 61 
Q 1981 -91 1556 -91 
Q 1019 -91 701 211 
Q 384 513 384 1019 
Q 384 1609 779 1909 
Q 1175 2209 1959 2209 
L 2766 2209 
L 2766 2266 
Q 2766 2663 2505 2880 
Q 2244 3097 1772 3097 
Q 1472 3097 1187 3025 
Q 903 2953 641 2809 
L 641 3341 
Q 956 3463 1253 3523 
Q 1550 3584 1831 3584 
Q 2591 3584 2966 3190 
Q 3341 2797 3341 1997 
z
" transform="scale(0.015625)"/>
       <path id="DejaVuSans-64" d="M 2906 2969 
L 2906 4863 
L 3481 4863 
L 3481 0 
L 2906 0 
L 2906 525 
Q 2725 213 2448 61 
Q 2172 -91 1784 -91 
Q 1150 -91 751 415 
Q 353 922 353 1747 
Q 353 2572 751 3078 
Q 1150 3584 1784 3584 
Q 2172 3584 2448 3432 
Q 2725 3281 2906 2969 
z
M 947 1747 
Q 947 1113 1208 752 
Q 1469 391 1925 391 
Q 2381 391 2643 752 
Q 2906 1113 2906 1747 
Q 2906 2381 2643 2742 
Q 2381 3103 1925 3103 
Q 1469 3103 1208 2742 
Q 947 2381 947 1747 
z
" transform="scale(0.015625)"/>
       <path id="DejaVuSans-74" d="M 1172 4494 
L 1172 3500 
L 2356 3500 
L 2356 3053 
L 1172 3053 
L 1172 1153 
Q 1172 725 1289 603 
Q 1406 481 1766 481 
L 2356 481 
L 2356 0 
L 1766 0 
Q 1100 0 847 248 
Q 594 497 594 1153 
L 594 3053 
L 172 3053 
L 172 3500 
L 594 3500 
L 594 4494 
L 1172 4494 
z
" transform="scale(0.015625)"/>
       <path id="DejaVuSans-68" d="M 3513 2113 
L 3513 0 
L 2938 0 
L 2938 2094 
Q 2938 2591 2744 2837 
Q 2550 3084 2163 3084 
Q 1697 3084 1428 2787 
Q 1159 2491 1159 1978 
L 1159 0 
L 581 0 
L 581 4863 
L 1159 4863 
L 1159 2956 
Q 1366 3272 1645 3428 
Q 1925 3584 2291 3584 
Q 2894 3584 3203 3211 
Q 3513 2838 3513 2113 
z
" transform="scale(0.015625)"/>
       <path id="DejaVuSans-20" transform="scale(0.015625)"/>
       <path id="DejaVuSans-28" d="M 1984 4856 
Q 1566 4138 1362 3434 
Q 1159 2731 1159 2009 
Q 1159 1288 1364 580 
Q 1569 -128 1984 -844 
L 1484 -844 
Q 1016 -109 783 600 
Q 550 1309 550 2009 
Q 550 2706 781 3412 
Q 1013 4119 1484 4856 
L 1984 4856 
z
" transform="scale(0.015625)"/>
       <path id="DejaVuSans-69" d="M 603 3500 
L 1178 3500 
L 1178 0 
L 603 0 
L 603 3500 
z
M 603 4863 
L 1178 4863 
L 1178 4134 
L 603 4134 
L 603 4863 
z
" transform="scale(0.015625)"/>
       <path id="DejaVuSans-73" d="M 2834 3397 
L 2834 2853 
Q 2591 2978 2328 3040 
Q 2066 3103 1784 3103 
Q 1356 3103 1142 2972 
Q 928 2841 928 2578 
Q 928 2378 1081 2264 
Q 1234 2150 1697 2047 
L 1894 2003 
Q 2506 1872 2764 1633 
Q 3022 1394 3022 966 
Q 3022 478 2636 193 
Q 2250 -91 1575 -91 
Q 1294 -91 989 -36 
Q 684 19 347 128 
L 347 722 
Q 666 556 975 473 
Q 1284 391 1588 391 
Q 1994 391 2212 530 
Q 2431 669 2431 922 
Q 2431 1156 2273 1281 
Q 2116 1406 1581 1522 
L 1381 1569 
Q 847 1681 609 1914 
Q 372 2147 372 2553 
Q 372 3047 722 3315 
Q 1072 3584 1716 3584 
Q 2034 3584 2315 3537 
Q 2597 3491 2834 3397 
z
" transform="scale(0.015625)"/>
       <path id="DejaVuSans-6e" d="M 3513 2113 
L 3513 0 
L 2938 0 
L 2938 2094 
Q 2938 2591 2744 2837 
Q 2550 3084 2163 3084 
Q 1697 3084 1428 2787 
Q 1159 2491 1159 1978 
L 1159 0 
L 581 0 
L 581 3500 
L 1159 3500 
L 1159 2956 
Q 1366 3272 1645 3428 
Q 1925 3584 2291 3584 
Q 2894 3584 3203 3211 
Q 3513 2838 3513 2113 
z
" transform="scale(0.015625)"/>
       <path id="DejaVuSans-63" d="M 3122 3366 
L 3122 2828 
Q 2878 2963 2633 3030 
Q 2388 3097 2138 3097 
Q 1578 3097 1268 2742 
Q 959 2388 959 1747 
Q 959 1106 1268 751 
Q 1578 397 2138 397 
Q 2388 397 2633 464 
Q 2878 531 3122 666 
L 3122 134 
Q 2881 22 2623 -34 
Q 2366 -91 2075 -91 
Q 1284 -91 818 406 
Q 353 903 353 1747 
Q 353 2603 823 3093 
Q 1294 3584 2113 3584 
Q 2378 3584 2631 3529 
Q 2884 3475 3122 3366 
z
" transform="scale(0.015625)"/>
       <path id="DejaVuSans-6d" d="M 3328 2828 
Q 3544 3216 3844 3400 
Q 4144 3584 4550 3584 
Q 5097 3584 5394 3201 
Q 5691 2819 5691 2113 
L 5691 0 
L 5113 0 
L 5113 2094 
Q 5113 2597 4934 2840 
Q 4756 3084 4391 3084 
Q 3944 3084 3684 2787 
Q 3425 2491 3425 1978 
L 3425 0 
L 2847 0 
L 2847 2094 
Q 2847 2600 2669 2842 
Q 2491 3084 2119 3084 
Q 1678 3084 1418 2786 
Q 1159 2488 1159 1978 
L 1159 0 
L 581 0 
L 581 3500 
L 1159 3500 
L 1159 2956 
Q 1356 3278 1631 3431 
Q 1906 3584 2284 3584 
Q 2666 3584 2933 3390 
Q 3200 3197 3328 2828 
z
" transform="scale(0.015625)"/>
       <path id="DejaVuSans-79" d="M 2059 -325 
Q 1816 -950 1584 -1140 
Q 1353 -1331 966 -1331 
L 506 -1331 
L 506 -850 
L 844 -850 
Q 1081 -850 1212 -737 
Q 1344 -625 1503 -206 
L 1606 56 
L 191 3500 
L 800 3500 
L 1894 763 
L 2988 3500 
L 3597 3500 
L 2059 -325 
z
" transform="scale(0.015625)"/>
       <path id="DejaVuSans-70" d="M 1159 525 
L 1159 -1331 
L 581 -1331 
L 581 3500 
L 1159 3500 
L 1159 2969 
Q 1341 3281 1617 3432 
Q 1894 3584 2278 3584 
Q 2916 3584 3314 3078 
Q 3713 2572 3713 1747 
Q 3713 922 3314 415 
Q 2916 -91 2278 -91 
Q 1894 -91 1617 61 
Q 1341 213 1159 525 
z
M 3116 1747 
Q 3116 2381 2855 2742 
Q 2594 3103 2138 3103 
Q 1681 3103 1420 2742 
Q 1159 2381 1159 1747 
Q 1159 1113 1420 752 
Q 1681 391 2138 391 
Q 2594 391 2855 752 
Q 3116 1113 3116 1747 
z
" transform="scale(0.015625)"/>
       <path id="DejaVuSans-6f" d="M 1959 3097 
Q 1497 3097 1228 2736 
Q 959 2375 959 1747 
Q 959 1119 1226 758 
Q 1494 397 1959 397 
Q 2419 397 2687 759 
Q 2956 1122 2956 1747 
Q 2956 2369 2687 2733 
Q 2419 3097 1959 3097 
z
M 1959 3584 
Q 2709 3584 3137 3096 
Q 3566 2609 3566 1747 
Q 3566 888 3137 398 
Q 2709 -91 1959 -91 
Q 1206 -91 779 398 
Q 353 888 353 1747 
Q 353 2609 779 3096 
Q 1206 3584 1959 3584 
z
" transform="scale(0.015625)"/>
       <path id="DejaVuSans-29" d="M 513 4856 
L 1013 4856 
Q 1481 4119 1714 3412 
Q 1947 2706 1947 2009 
Q 1947 1309 1714 600 
Q 1481 -109 1013 -844 
L 513 -844 
Q 928 -128 1133 580 
Q 1338 1288 1338 2009 
Q 1338 2731 1133 3434 
Q 928 4138 513 4856 
z
" transform="scale(0.015625)"/>
      </defs>
      <use xlink:href="#DejaVuSans-62"/>
      <use xlink:href="#DejaVuSans-72" transform="translate(63.476562 0)"/>
      <use xlink:href="#DejaVuSans-65" transform="translate(102.339844 0)"/>
      <use xlink:href="#DejaVuSans-61" transform="translate(163.863281 0)"/>
      <use xlink:href="#DejaVuSans-64" transform="translate(225.142578 0)"/>
      <use xlink:href="#DejaVuSans-74" transform="translate(288.619141 0)"/>
      <use xlink:href="#DejaVuSans-68" transform="translate(327.828125 0)"/>
      <use xlink:href="#DejaVuSans-20" transform="translate(391.207031 0)"/>
      <use xlink:href="#DejaVuSans-28" transform="translate(422.994141 0)"/>
      <use xlink:href="#DejaVuSans-64" transform="translate(462.007812 0)"/>
      <use xlink:href="#DejaVuSans-69" transform="translate(525.484375 0)"/>
      <use xlink:href="#DejaVuSans-73" transform="translate(553.267578 0)"/>
      <use xlink:href="#DejaVuSans-74" transform="translate(605.367188 0)"/>
      <use xlink:href="#DejaVuSans-69" transform="translate(644.576172 0)"/>
      <use xlink:href="#DejaVuSans-6e" transform="translate(672.359375 0)"/>
      <use xlink:href="#DejaVuSans-63" transform="translate(735.738281 0)"/>
      <use xlink:href="#DejaVuSans-74" transform="translate(790.71875 0)"/>
      <use xlink:href="#DejaVuSans-20" transform="translate(829.927734 0)"/>
      <use xlink:href="#DejaVuSans-74" transform="translate(861.714844 0)"/>
      <use xlink:href="#DejaVuSans-72" transform="translate(900.923828 0)"/>
      <use xlink:href="#DejaVuSans-65" transform="translate(939.787109 0)"/>
      <use xlink:href="#DejaVuSans-61" transform="translate(1001.310547 0)"/>
      <use xlink:href="#DejaVuSans-74" transform="translate(1062.589844 0)"/>
      <use xlink:href="#DejaVuSans-6d" transform="translate(1101.798828 0)"/>
      <use xlink:href="#DejaVuSans-65" transform="translate(1199.210938 0)"/>
      <use xlink:href="#DejaVuSans-6e" transform="translate(1260.734375 0)"/>
      <use xlink:href="#DejaVuSans-74" transform="translate(1324.113281 0)"/>
      <use xlink:href="#DejaVuSans-20" transform="translate(1363.322266 0)"/>
      <use xlink:href="#DejaVuSans-74" transform="translate(1395.109375 0)"/>
      <use xlink:href="#DejaVuSans-79" transform="translate(1434.318359 0)"/>
      <use xlink:href="#DejaVuSans-70" transform="translate(1493.498047 0)"/>
      <use xlink:href="#DejaVuSans-65" transform="translate(1556.974609 0)"/>
      <use xlink:href="#DejaVuSans-73" transform="translate(1618.498047 0)"/>
      <use xlink:href="#DejaVuSans-20" transform="translate(1670.597656 0)"/>
      <use xlink:href="#DejaVuSans-72" transform="translate(1702.384766 0)"/>
      <use xlink:href="#DejaVuSans-65" transform="translate(1741.248047 0)"/>
      <use xlink:href="#DejaVuSans-73" transform="translate(1802.771484 0)"/>
      <use xlink:href="#DejaVuSans-70" transform="translate(1854.871094 0)"/>
      <use xlink:href="#DejaVuSans-6f" transform="translate(1918.347656 0)"/>
      <use xlink:href="#DejaVuSans-6e" transform="translate(1979.529297 0)"/>
      <use xlink:href="#DejaVuSans-64" transform="translate(2042.908203 0)"/>
      <use xlink:href="#DejaVuSans-65" transform="translate(2106.384766 0)"/>
      <use xlink:href="#DejaVuSans-64" transform="translate(2167.908203 0)"/>
      <use xlink:href="#DejaVuSans-29" transform="translate(2231.384766 0)"/>
     </g>
    </g>
   </g>
   <g id="matplotlib.axis_2">
    <g id="ytick_1">
     <g id="line2d_8">
      <defs>
       <path id="m3629551042" d="M 0 0 
L -3.5 0 
" style="stroke: #000000; stroke-width: 0.8"/>
      </defs>
      <g>
       <use xlink:href="#m3629551042" x="38.63" y="286.172615" style="stroke: #000000; stroke-width: 0.8"/>
      </g>
     </g>
     <g id="text_9">
      <!-- 0 -->
      <g transform="translate(25.2675 289.971834) scale(0.1 -0.1)">
       <use xlink:href="#DejaVuSans-30"/>
      </g>
     </g>
    </g>
    <g id="ytick_2">
     <g id="line2d_9">
      <g>
       <use xlink:href="#m3629551042" x="38.63" y="250.998902" style="stroke: #000000; stroke-width: 0.8"/>
      </g>
     </g>
     <g id="text_10">
      <!-- 1 -->
      <g transform="translate(25.2675 254.79812) scale(0.1 -0.1)">
       <use xlink:href="#DejaVuSans-31"/>
      </g>
     </g>
    </g>
    <g id="ytick_3">
     <g id="line2d_10">
      <g>
       <use xlink:href="#m3629551042" x="38.63" y="215.825188" style="stroke: #000000; stroke-width: 0.8"/>
      </g>
     </g>
     <g id="text_11">
      <!-- 2 -->
      <g transform="translate(25.2675 219.624407) scale(0.1 -0.1)">
       <use xlink:href="#DejaVuSans-32"/>
      </g>
     </g>
    </g>
    <g id="ytick_4">
     <g id="line2d_11">
      <g>
       <use xlink:href="#m3629551042" x="38.63" y="180.651474" style="stroke: #000000; stroke-width: 0.8"/>
      </g>
     </g>
     <g id="text_12">
      <!-- 3 -->
      <g transform="translate(25.2675 184.450693) scale(0.1 -0.1)">
       <use xlink:href="#DejaVuSans-33"/>
      </g>
     </g>
    </g>
    <g id="ytick_5">
     <g id="line2d_12">
      <g>
       <use xlink:href="#m3629551042" x="38.63" y="145.477761" style="stroke: #000000; stroke-width: 0.8"/>
      </g>
     </g>
     <g id="text_13">
      <!-- 4 -->
      <g transform="translate(25.2675 149.276979) scale(0.1 -0.1)">
       <use xlink:href="#DejaVuSans-34"/>
      </g>
     </g>
    </g>
    <g id="ytick_6">
     <g id="line2d_13">
      <g>
       <use xlink:href="#m3629551042" x="38.63" y="110.304047" style="stroke: #000000; stroke-width: 0.8"/>
      </g>
     </g>
     <g id="text_14">
      <!-- 5 -->
      <g transform="translate(25.2675 114.103266) scale(0.1 -0.1)">
       <use xlink:href="#DejaVuSans-35"/>
      </g>
     </g>
    </g>
    <g id="ytick_7">
     <g id="line2d_14">
      <g>
       <use xlink:href="#m3629551042" x="38.63" y="75.130333" style="stroke: #000000; stroke-width: 0.8"/>
      </g>
     </g>
     <g id="text_15">
      <!-- 6 -->
      <g transform="translate(25.2675 78.929552) scale(0.1 -0.1)">
       <use xlink:href="#DejaVuSans-36"/>
      </g>
     </g>
    </g>
    <g id="text_16">
     <!-- prominence (max |log2 fold change|) -->
     <g transform="translate(18.909688 272.732375) rotate(-90) scale(0.1 -0.1)">
      <defs>
       <path id="DejaVuSans-78" d="M 3513 3500 
L 2247 1797 
L 3578 0 
L 2900 0 
L 1881 1375 
L 863 0 
L 184 0 
L 1544 1831 
L 300 3500 
L 978 3500 
L 1906 2253 
L 2834 3500 
L 3513 3500 
z
" transform="scale(0.015625)"/>
       <path id="DejaVuSans-7c" d="M 1344 4891 
L 1344 -1509 
L 813 -1509 
L 813 4891 
L 1344 4891 
z
" transform="scale(0.015625)"/>
       <path id="DejaVuSans-6c" d="M 603 4863 
L 1178 4863 
L 1178 0 
L 603 0 
L 603 4863 
z
" transform="scale(0.015625)"/>
       <path id="DejaVuSans-67" d="M 2906 1791 
Q 2906 2416 2648 2759 
Q 2391 3103 1925 3103 
Q 1463 3103 1205 2759 
Q 947 2416 947 1791 
Q 947 1169 1205 825 
Q 1463 481 1925 481 
Q 2391 481 2648 825 
Q 2906 1169 2906 1791 
z
M 3481 434 
Q 3481 -459 3084 -895 
Q 2688 -1331 1869 -1331 
Q 1566 -1331 1297 -1286 
Q 1028 -1241 775 -1147 
L 775 -588 
Q 1028 -725 1275 -790 
Q 1522 -856 1778 -856 
Q 2344 -856 2625 -561 
Q 2906 -266 2906 331 
L 2906 616 
Q 2728 306 2450 153 
Q 2172 0 1784 0 
Q 1141 0 747 490 
Q 353 981 353 1791 
Q 353 2603 747 3093 
Q 1141 3584 1784 3584 
Q 2172 3584 2450 3431 
Q 2728 3278 2906 2969 
L 2906 3500 
L 3481 3500 
L 3481 434 
z
" transform="scale(0.015625)"/>
       <path id="DejaVuSans-66" d="M 2375 4863 
L 2375 4384 
L 1825 4384 
Q 1516 4384 1395 4259 
Q 1275 4134 1275 3809 
L 1275 3500 
L 2222 3500 
L 2222 3053 
L 1275 3053 
L 1275 0 
L 697 0 
L 697 3053 
L 147 3053 
L 147 3500 
L 697 3500 
L 697 3744 
Q 697 4328 969 4595 
Q 1241 4863 1831 4863 
L 2375 4863 
z
" transform="scale(0.015625)"/>
      </defs>
      <use xlink:href="#DejaVuSans-70"/>
      <use xlink:href="#DejaVuSans-72" transform="translate(63.476562 0)"/>
      <use xlink:href="#DejaVuSans-6f" transform="translate(102.339844 0)"/>
      <use xlink:href="#DejaVuSans-6d" transform="translate(163.521484 0)"/>
      <use xlink:href="#DejaVuSans-69" transform="translate(260.933594 0)"/>
      <use xlink:href="#DejaVuSans-6e" transform="translate(288.716797 0)"/>
      <use xlink:href="#DejaVuSans-65" transform="translate(352.095703 0)"/>
      <use xlink:href="#DejaVuSans-6e" transform="translate(413.619141 0)"/>
      <use xlink:href="#DejaVuSans-63" transform="translate(476.998047 0)"/>
      <use xlink:href="#DejaVuSans-65" transform="translate(531.978516 0)"/>
      <use xlink:href="#DejaVuSans-20" transform="translate(593.501953 0)"/>
      <use xlink:href="#DejaVuSans-28" transform="translate(625.289062 0)"/>
      <use xlink:href="#DejaVuSans-6d" transform="translate(664.302734 0)"/>
      <use xlink:href="#DejaVuSans-61" transform="translate(761.714844 0)"/>
      <use xlink:href="#DejaVuSans-78" transform="translate(822.994141 0)"/>
      <use xlink:href="#DejaVuSans-20" transform="translate(882.173828 0)"/>
      <use xlink:href="#DejaVuSans-7c" transform="translate(913.960938 0)"/>
      <use xlink:href="#DejaVuSans-6c" transform="translate(947.652344 0)"/>
      <use xlink:href="#DejaVuSans-6f" transform="translate(975.435547 0)"/>
      <use xlink:href="#DejaVuSans-67" transform="translate(1036.617188 0)"/>
      <use xlink:href="#DejaVuSans-32" transform="translate(1100.09375 0)"/>
      <use xlink:href="#DejaVuSans-20" transform="translate(1163.716797 0)"/>
      <use xlink:href="#DejaVuSans-66" transform="translate(1195.503906 0)"/>
      <use xlink:href="#DejaVuSans-6f" transform="translate(1230.708984 0)"/>
      <use xlink:href="#DejaVuSans-6c" transform="translate(1291.890625 0)"/>
      <use xlink:href="#DejaVuSans-64" transform="translate(1319.673828 0)"/>
      <use xlink:href="#DejaVuSans-20" transform="translate(1383.150391 0)"/>
      <use xlink:href="#DejaVuSans-63" transform="translate(1414.9375 0)"/>
      <use xlink:href="#DejaVuSans-68" transform="translate(1469.917969 0)"/>
      <use xlink:href="#DejaVuSans-61" transform="translate(1533.296875 0)"/>
      <use xlink:href="#DejaVuSans-6e" transform="translate(1594.576172 0)"/>
      <use xlink:href="#DejaVuSans-67" transform="translate(1657.955078 0)"/>
      <use xlink:href="#DejaVuSans-65" transform="translate(1721.431641 0)"/>
      <use xlink:href="#DejaVuSans-7c" transform="translate(1782.955078 0)"/>
      <use xlink:href="#DejaVuSans-29" transform="translate(1816.646484 0)"/>
     </g>
    </g>
   </g>
   <g id="patch_3">
    <path d="M 38.63 318.04 
L 38.63 41.856 
" style="fill: none; stroke: #000000; stroke-width: 0.8; stroke-linejoin: miter; stroke-linecap: square"/>
   </g>
   <g id="patch_4">
    <path d="M 490.005 318.04 
L 490.005 41.856 
" style="fill: none; stroke: #000000; stroke-width: 0.8; stroke-linejoin: miter; stroke-linecap: square"/>
   </g>
   <g id="patch_5">
    <path d="M 38.63 318.04 
L 490.005 318.04 
" style="fill: none; stroke: #000000; stroke-width: 0.8; stroke-linejoin: miter; stroke-linecap: square"/>
   </g>
   <g id="patch_6">
    <path d="M 38.63 41.856 
L 490.005 41.856 
" style="fill: none; stroke: #000000; stroke-width: 0.8; stroke-linejoin: miter; stroke-linecap: square"/>
   </g>
   <g id="PathCollection_1">
    <defs>
     <path id="mbee210aaa0" d="M 0 9.591663 
C 2.543739 9.591663 4.983635 8.581025 6.78233 6.78233 
C 8.581025 4.983635 9.591663 2.543739 9.591663 0 
C 9.591663 -2.543739 8.581025 -4.983635 6.78233 -6.78233 
C 4.983635 -8.581025 2.543739 -9.591663 0 -9.591663 
C -2.543739 -9.591663 -4.983635 -8.581025 -6.78233 -6.78233 
C -8.581025 -4.983635 -9.591663 -2.543739 -9.591663 0 
C -9.591663 2.543739 -8.581025 4.983635 -6.78233 6.78233 
C -4.983635 8.581025 -2.543739 9.591663 0 9.591663 
z
" style="stroke: #000000; stroke-width: 0.6"/>
    </defs>
    <g clip-path="url(#p8ccff78996)">
     <use xlink:href="#mbee210aaa0" x="420.562692" y="73.723385" style="fill: #16425b; stroke: #000000; stroke-width: 0.6"/>
    </g>
   </g>
   <g id="text_17">
    <!-- hli -->
    <g transform="translate(427.562692 69.723385) scale(0.09 -0.09)">
     <use xlink:href="#DejaVuSans-68"/>
     <use xlink:href="#DejaVuSans-6c" transform="translate(63.378906 0)"/>
     <use xlink:href="#DejaVuSans-69" transform="translate(91.162109 0)"/>
    </g>
   </g>
   <g id="PathCollection_2">
    <defs>
     <path id="mbe4671d174" d="M 0 10.148892 
C 2.691518 10.148892 5.27316 9.07954 7.17635 7.17635 
C 9.07954 5.27316 10.148892 2.691518 10.148892 0 
C 10.148892 -2.691518 9.07954 -5.27316 7.17635 -7.17635 
C 5.27316 -9.07954 2.691518 -10.148892 0 -10.148892 
C -2.691518 -10.148892 -5.27316 -9.07954 -7.17635 -7.17635 
C -9.07954 -5.27316 -10.148892 -2.691518 -10.148892 0 
C -10.148892 2.691518 -9.07954 5.27316 -7.17635 7.17635 
C -5.27316 9.07954 -2.691518 10.148892 0 10.148892 
z
" style="stroke: #000000; stroke-width: 0.6"/>
    </defs>
    <g clip-path="url(#p8ccff78996)">
     <use xlink:href="#mbe4671d174" x="281.678077" y="121.911372" style="fill: #d1495b; stroke: #000000; stroke-width: 0.6"/>
    </g>
   </g>
   <g id="text_18">
    <!-- pstS -->
    <g transform="translate(288.678077 117.911372) scale(0.09 -0.09)">
     <defs>
      <path id="DejaVuSans-53" d="M 3425 4513 
L 3425 3897 
Q 3066 4069 2747 4153 
Q 2428 4238 2131 4238 
Q 1616 4238 1336 4038 
Q 1056 3838 1056 3469 
Q 1056 3159 1242 3001 
Q 1428 2844 1947 2747 
L 2328 2669 
Q 3034 2534 3370 2195 
Q 3706 1856 3706 1288 
Q 3706 609 3251 259 
Q 2797 -91 1919 -91 
Q 1588 -91 1214 -16 
Q 841 59 441 206 
L 441 856 
Q 825 641 1194 531 
Q 1563 422 1919 422 
Q 2459 422 2753 634 
Q 3047 847 3047 1241 
Q 3047 1584 2836 1778 
Q 2625 1972 2144 2069 
L 1759 2144 
Q 1053 2284 737 2584 
Q 422 2884 422 3419 
Q 422 4038 858 4394 
Q 1294 4750 2059 4750 
Q 2388 4750 2728 4690 
Q 3069 4631 3425 4513 
z
" transform="scale(0.015625)"/>
     </defs>
     <use xlink:href="#DejaVuSans-70"/>
     <use xlink:href="#DejaVuSans-73" transform="translate(63.476562 0)"/>
     <use xlink:href="#DejaVuSans-74" transform="translate(115.576172 0)"/>
     <use xlink:href="#DejaVuSans-53" transform="translate(154.785156 0)"/>
    </g>
   </g>
   <g id="PathCollection_3">
    <defs>
     <path id="m15ca3270a2" d="M 0 7.314369 
C 1.939793 7.314369 3.800399 6.543681 5.17204 5.17204 
C 6.543681 3.800399 7.314369 1.939793 7.314369 0 
C 7.314369 -1.939793 6.543681 -3.800399 5.17204 -5.17204 
C 3.800399 -6.543681 1.939793 -7.314369 0 -7.314369 
C -1.939793 -7.314369 -3.800399 -6.543681 -5.17204 -5.17204 
C -6.543681 -3.800399 -7.314369 -1.939793 -7.314369 0 
C -7.314369 1.939793 -6.543681 3.800399 -5.17204 5.17204 
C -3.800399 6.543681 -1.939793 7.314369 0 7.314369 
z
" style="stroke: #000000; stroke-width: 0.6"/>
    </defs>
    <g clip-path="url(#p8ccff78996)">
     <use xlink:href="#m15ca3270a2" x="281.678077" y="177.837577" style="fill: #3a7ca5; stroke: #000000; stroke-width: 0.6"/>
    </g>
   </g>
   <g id="text_19">
    <!-- groL1/groEL -->
    <g transform="translate(288.678077 173.837577) scale(0.09 -0.09)">
     <defs>
      <path id="DejaVuSans-4c" d="M 628 4666 
L 1259 4666 
L 1259 531 
L 3531 531 
L 3531 0 
L 628 0 
L 628 4666 
z
" transform="scale(0.015625)"/>
      <path id="DejaVuSans-2f" d="M 1625 4666 
L 2156 4666 
L 531 -594 
L 0 -594 
L 1625 4666 
z
" transform="scale(0.015625)"/>
      <path id="DejaVuSans-45" d="M 628 4666 
L 3578 4666 
L 3578 4134 
L 1259 4134 
L 1259 2753 
L 3481 2753 
L 3481 2222 
L 1259 2222 
L 1259 531 
L 3634 531 
L 3634 0 
L 628 0 
L 628 4666 
z
" transform="scale(0.015625)"/>
     </defs>
     <use xlink:href="#DejaVuSans-67"/>
     <use xlink:href="#DejaVuSans-72" transform="translate(63.476562 0)"/>
     <use xlink:href="#DejaVuSans-6f" transform="translate(102.339844 0)"/>
     <use xlink:href="#DejaVuSans-4c" transform="translate(163.521484 0)"/>
     <use xlink:href="#DejaVuSans-31" transform="translate(219.234375 0)"/>
     <use xlink:href="#DejaVuSans-2f" transform="translate(282.857422 0)"/>
     <use xlink:href="#DejaVuSans-67" transform="translate(316.548828 0)"/>
     <use xlink:href="#DejaVuSans-72" transform="translate(380.025391 0)"/>
     <use xlink:href="#DejaVuSans-6f" transform="translate(418.888672 0)"/>
     <use xlink:href="#DejaVuSans-45" transform="translate(480.070312 0)"/>
     <use xlink:href="#DejaVuSans-4c" transform="translate(543.253906 0)"/>
    </g>
   </g>
   <g id="PathCollection_4">
    <defs>
     <path id="m9339eaeced" d="M 0 7.681146 
C 2.037064 7.681146 3.990969 6.871812 5.43139 5.43139 
C 6.871812 3.990969 7.681146 2.037064 7.681146 0 
C 7.681146 -2.037064 6.871812 -3.990969 5.43139 -5.43139 
C 3.990969 -6.871812 2.037064 -7.681146 0 -7.681146 
C -2.037064 -7.681146 -3.990969 -6.871812 -5.43139 -5.43139 
C -6.871812 -3.990969 -7.681146 -2.037064 -7.681146 0 
C -7.681146 2.037064 -6.871812 3.990969 -5.43139 5.43139 
C -3.990969 6.871812 -2.037064 7.681146 0 7.681146 
z
" style="stroke: #000000; stroke-width: 0.6"/>
    </defs>
    <g clip-path="url(#p8ccff78996)">
     <use xlink:href="#m9339eaeced" x="142.793462" y="188.037954" style="fill: #9e9e9e; stroke: #000000; stroke-width: 0.6"/>
    </g>
   </g>
   <g id="text_20">
    <!-- htpG -->
    <g transform="translate(149.793462 184.037954) scale(0.09 -0.09)">
     <defs>
      <path id="DejaVuSans-47" d="M 3809 666 
L 3809 1919 
L 2778 1919 
L 2778 2438 
L 4434 2438 
L 4434 434 
Q 4069 175 3628 42 
Q 3188 -91 2688 -91 
Q 1594 -91 976 548 
Q 359 1188 359 2328 
Q 359 3472 976 4111 
Q 1594 4750 2688 4750 
Q 3144 4750 3555 4637 
Q 3966 4525 4313 4306 
L 4313 3634 
Q 3963 3931 3569 4081 
Q 3175 4231 2741 4231 
Q 1884 4231 1454 3753 
Q 1025 3275 1025 2328 
Q 1025 1384 1454 906 
Q 1884 428 2741 428 
Q 3075 428 3337 486 
Q 3600 544 3809 666 
z
" transform="scale(0.015625)"/>
     </defs>
     <use xlink:href="#DejaVuSans-68"/>
     <use xlink:href="#DejaVuSans-74" transform="translate(63.378906 0)"/>
     <use xlink:href="#DejaVuSans-70" transform="translate(102.587891 0)"/>
     <use xlink:href="#DejaVuSans-47" transform="translate(166.064453 0)"/>
    </g>
   </g>
   <g id="PathCollection_5">
    <defs>
     <path id="m36a6d381a5" d="M 0 3.872983 
C 1.027127 3.872983 2.012324 3.464901 2.738613 2.738613 
C 3.464901 2.012324 3.872983 1.027127 3.872983 0 
C 3.872983 -1.027127 3.464901 -2.012324 2.738613 -2.738613 
C 2.012324 -3.464901 1.027127 -3.872983 0 -3.872983 
C -1.027127 -3.872983 -2.012324 -3.464901 -2.738613 -2.738613 
C -3.464901 -2.012324 -3.872983 -1.027127 -3.872983 0 
C -3.872983 1.027127 -3.464901 2.012324 -2.738613 2.738613 
C -2.012324 3.464901 -1.027127 3.872983 0 3.872983 
z
" style="stroke: #000000; stroke-width: 0.6"/>
    </defs>
    <g clip-path="url(#p8ccff78996)">
     <use xlink:href="#m36a6d381a5" x="73.351154" y="286.172615" style="fill: #9e9e9e; stroke: #000000; stroke-width: 0.6"/>
    </g>
   </g>
   <g id="text_21">
    <!-- dnaK1 -->
    <g transform="translate(80.351154 282.172615) scale(0.09 -0.09)">
     <defs>
      <path id="DejaVuSans-4b" d="M 628 4666 
L 1259 4666 
L 1259 2694 
L 3353 4666 
L 4166 4666 
L 1850 2491 
L 4331 0 
L 3500 0 
L 1259 2247 
L 1259 0 
L 628 0 
L 628 4666 
z
" transform="scale(0.015625)"/>
     </defs>
     <use xlink:href="#DejaVuSans-64"/>
     <use xlink:href="#DejaVuSans-6e" transform="translate(63.476562 0)"/>
     <use xlink:href="#DejaVuSans-61" transform="translate(126.855469 0)"/>
     <use xlink:href="#DejaVuSans-4b" transform="translate(188.134766 0)"/>
     <use xlink:href="#DejaVuSans-31" transform="translate(253.710938 0)"/>
    </g>
   </g>
   <g id="text_22">
    <!-- Control validation — breadth and prominence are independent axes -->
    <g transform="translate(59.97625 22.418625) scale(0.12 -0.12)">
     <defs>
      <path id="DejaVuSans-43" d="M 4122 4306 
L 4122 3641 
Q 3803 3938 3442 4084 
Q 3081 4231 2675 4231 
Q 1875 4231 1450 3742 
Q 1025 3253 1025 2328 
Q 1025 1406 1450 917 
Q 1875 428 2675 428 
Q 3081 428 3442 575 
Q 3803 722 4122 1019 
L 4122 359 
Q 3791 134 3420 21 
Q 3050 -91 2638 -91 
Q 1578 -91 968 557 
Q 359 1206 359 2328 
Q 359 3453 968 4101 
Q 1578 4750 2638 4750 
Q 3056 4750 3426 4639 
Q 3797 4528 4122 4306 
z
" transform="scale(0.015625)"/>
      <path id="DejaVuSans-76" d="M 191 3500 
L 800 3500 
L 1894 563 
L 2988 3500 
L 3597 3500 
L 2284 0 
L 1503 0 
L 191 3500 
z
" transform="scale(0.015625)"/>
      <path id="DejaVuSans-2014" d="M 313 1978 
L 6088 1978 
L 6088 1528 
L 313 1528 
L 313 1978 
z
" transform="scale(0.015625)"/>
     </defs>
     <use xlink:href="#DejaVuSans-43"/>
     <use xlink:href="#DejaVuSans-6f" transform="translate(69.824219 0)"/>
     <use xlink:href="#DejaVuSans-6e" transform="translate(131.005859 0)"/>
     <use xlink:href="#DejaVuSans-74" transform="translate(194.384766 0)"/>
     <use xlink:href="#DejaVuSans-72" transform="translate(233.59375 0)"/>
     <use xlink:href="#DejaVuSans-6f" transform="translate(272.457031 0)"/>
     <use xlink:href="#DejaVuSans-6c" transform="translate(333.638672 0)"/>
     <use xlink:href="#DejaVuSans-20" transform="translate(361.421875 0)"/>
     <use xlink:href="#DejaVuSans-76" transform="translate(393.208984 0)"/>
     <use xlink:href="#DejaVuSans-61" transform="translate(452.388672 0)"/>
     <use xlink:href="#DejaVuSans-6c" transform="translate(513.667969 0)"/>
     <use xlink:href="#DejaVuSans-69" transform="translate(541.451172 0)"/>
     <use xlink:href="#DejaVuSans-64" transform="translate(569.234375 0)"/>
     <use xlink:href="#DejaVuSans-61" transform="translate(632.710938 0)"/>
     <use xlink:href="#DejaVuSans-74" transform="translate(693.990234 0)"/>
     <use xlink:href="#DejaVuSans-69" transform="translate(733.199219 0)"/>
     <use xlink:href="#DejaVuSans-6f" transform="translate(760.982422 0)"/>
     <use xlink:href="#DejaVuSans-6e" transform="translate(822.164062 0)"/>
     <use xlink:href="#DejaVuSans-20" transform="translate(885.542969 0)"/>
     <use xlink:href="#DejaVuSans-2014" transform="translate(917.330078 0)"/>
     <use xlink:href="#DejaVuSans-20" transform="translate(1017.330078 0)"/>
     <use xlink:href="#DejaVuSans-62" transform="translate(1049.117188 0)"/>
     <use xlink:href="#DejaVuSans-72" transform="translate(1112.59375 0)"/>
     <use xlink:href="#DejaVuSans-65" transform="translate(1151.457031 0)"/>
     <use xlink:href="#DejaVuSans-61" transform="translate(1212.980469 0)"/>
     <use xlink:href="#DejaVuSans-64" transform="translate(1274.259766 0)"/>
     <use xlink:href="#DejaVuSans-74" transform="translate(1337.736328 0)"/>
     <use xlink:href="#DejaVuSans-68" transform="translate(1376.945312 0)"/>
     <use xlink:href="#DejaVuSans-20" transform="translate(1440.324219 0)"/>
     <use xlink:href="#DejaVuSans-61" transform="translate(1472.111328 0)"/>
     <use xlink:href="#DejaVuSans-6e" transform="translate(1533.390625 0)"/>
     <use xlink:href="#DejaVuSans-64" transform="translate(1596.769531 0)"/>
     <use xlink:href="#DejaVuSans-20" transform="translate(1660.246094 0)"/>
     <use xlink:href="#DejaVuSans-70" transform="translate(1692.033203 0)"/>
     <use xlink:href="#DejaVuSans-72" transform="translate(1755.509766 0)"/>
     <use xlink:href="#DejaVuSans-6f" transform="translate(1794.373047 0)"/>
     <use xlink:href="#DejaVuSans-6d" transform="translate(1855.554688 0)"/>
     <use xlink:href="#DejaVuSans-69" transform="translate(1952.966797 0)"/>
     <use xlink:href="#DejaVuSans-6e" transform="translate(1980.75 0)"/>
     <use xlink:href="#DejaVuSans-65" transform="translate(2044.128906 0)"/>
     <use xlink:href="#DejaVuSans-6e" transform="translate(2105.652344 0)"/>
     <use xlink:href="#DejaVuSans-63" transform="translate(2169.03125 0)"/>
     <use xlink:href="#DejaVuSans-65" transform="translate(2224.011719 0)"/>
     <use xlink:href="#DejaVuSans-20" transform="translate(2285.535156 0)"/>
     <use xlink:href="#DejaVuSans-61" transform="translate(2317.322266 0)"/>
     <use xlink:href="#DejaVuSans-72" transform="translate(2378.601562 0)"/>
     <use xlink:href="#DejaVuSans-65" transform="translate(2417.464844 0)"/>
     <use xlink:href="#DejaVuSans-20" transform="translate(2478.988281 0)"/>
     <use xlink:href="#DejaVuSans-69" transform="translate(2510.775391 0)"/>
     <use xlink:href="#DejaVuSans-6e" transform="translate(2538.558594 0)"/>
     <use xlink:href="#DejaVuSans-64" transform="translate(2601.9375 0)"/>
     <use xlink:href="#DejaVuSans-65" transform="translate(2665.414062 0)"/>
     <use xlink:href="#DejaVuSans-70" transform="translate(2726.9375 0)"/>
     <use xlink:href="#DejaVuSans-65" transform="translate(2790.414062 0)"/>
     <use xlink:href="#DejaVuSans-6e" transform="translate(2851.9375 0)"/>
     <use xlink:href="#DejaVuSans-64" transform="translate(2915.316406 0)"/>
     <use xlink:href="#DejaVuSans-65" transform="translate(2978.792969 0)"/>
     <use xlink:href="#DejaVuSans-6e" transform="translate(3040.316406 0)"/>
     <use xlink:href="#DejaVuSans-74" transform="translate(3103.695312 0)"/>
     <use xlink:href="#DejaVuSans-20" transform="translate(3142.904297 0)"/>
     <use xlink:href="#DejaVuSans-61" transform="translate(3174.691406 0)"/>
     <use xlink:href="#DejaVuSans-78" transform="translate(3235.970703 0)"/>
     <use xlink:href="#DejaVuSans-65" transform="translate(3292.025391 0)"/>
     <use xlink:href="#DejaVuSans-73" transform="translate(3353.548828 0)"/>
    </g>
    <!-- (marker size ∝ # significant datapoints) -->
    <g transform="translate(144.8275 35.856) scale(0.12 -0.12)">
     <defs>
      <path id="DejaVuSans-6b" d="M 581 4863 
L 1159 4863 
L 1159 1991 
L 2875 3500 
L 3609 3500 
L 1753 1863 
L 3688 0 
L 2938 0 
L 1159 1709 
L 1159 0 
L 581 0 
L 581 4863 
z
" transform="scale(0.015625)"/>
      <path id="DejaVuSans-7a" d="M 353 3500 
L 3084 3500 
L 3084 2975 
L 922 459 
L 3084 459 
L 3084 0 
L 275 0 
L 275 525 
L 2438 3041 
L 353 3041 
L 353 3500 
z
" transform="scale(0.015625)"/>
      <path id="DejaVuSans-221d" d="M 1647 1134 
Q 2163 1134 2472 1884 
Q 2075 2703 1647 2703 
Q 1334 2703 1175 2478 
Q 1006 2238 1006 1919 
Q 1006 1569 1175 1353 
Q 1350 1134 1647 1134 
z
M 3884 1128 
L 3884 716 
L 3644 716 
Q 3416 716 3247 809 
Q 3078 894 2916 1091 
Q 2819 1203 2666 1466 
Q 2456 1091 2272 925 
Q 2044 725 1681 725 
Q 1259 725 981 1041 
Q 688 1372 688 1919 
Q 688 2444 981 2800 
Q 1241 3116 1688 3116 
Q 1916 3116 2084 3022 
Q 2281 2919 2416 2741 
Q 2541 2581 2666 2366 
Q 2875 2741 3059 2906 
Q 3288 3106 3650 3106 
L 3884 3106 
L 3884 2697 
L 3684 2697 
Q 3222 2697 2859 1947 
Q 3256 1128 3684 1128 
L 3884 1128 
z
" transform="scale(0.015625)"/>
      <path id="DejaVuSans-23" d="M 3272 2816 
L 2363 2816 
L 2100 1772 
L 3016 1772 
L 3272 2816 
z
M 2803 4594 
L 2478 3297 
L 3391 3297 
L 3719 4594 
L 4219 4594 
L 3897 3297 
L 4872 3297 
L 4872 2816 
L 3775 2816 
L 3519 1772 
L 4513 1772 
L 4513 1294 
L 3397 1294 
L 3072 0 
L 2572 0 
L 2894 1294 
L 1978 1294 
L 1656 0 
L 1153 0 
L 1478 1294 
L 494 1294 
L 494 1772 
L 1594 1772 
L 1856 2816 
L 850 2816 
L 850 3297 
L 1978 3297 
L 2297 4594 
L 2803 4594 
z
" transform="scale(0.015625)"/>
     </defs>
     <use xlink:href="#DejaVuSans-28"/>
     <use xlink:href="#DejaVuSans-6d" transform="translate(39.013672 0)"/>
     <use xlink:href="#DejaVuSans-61" transform="translate(136.425781 0)"/>
     <use xlink:href="#DejaVuSans-72" transform="translate(197.705078 0)"/>
     <use xlink:href="#DejaVuSans-6b" transform="translate(238.818359 0)"/>
     <use xlink:href="#DejaVuSans-65" transform="translate(293.103516 0)"/>
     <use xlink:href="#DejaVuSans-72" transform="translate(354.626953 0)"/>
     <use xlink:href="#DejaVuSans-20" transform="translate(395.740234 0)"/>
     <use xlink:href="#DejaVuSans-73" transform="translate(427.527344 0)"/>
     <use xlink:href="#DejaVuSans-69" transform="translate(479.626953 0)"/>
     <use xlink:href="#DejaVuSans-7a" transform="translate(507.410156 0)"/>
     <use xlink:href="#DejaVuSans-65" transform="translate(559.900391 0)"/>
     <use xlink:href="#DejaVuSans-20" transform="translate(621.423828 0)"/>
     <use xlink:href="#DejaVuSans-221d" transform="translate(653.210938 0)"/>
     <use xlink:href="#DejaVuSans-20" transform="translate(724.646484 0)"/>
     <use xlink:href="#DejaVuSans-23" transform="translate(756.433594 0)"/>
     <use xlink:href="#DejaVuSans-20" transform="translate(840.222656 0)"/>
     <use xlink:href="#DejaVuSans-73" transform="translate(872.009766 0)"/>
     <use xlink:href="#DejaVuSans-69" transform="translate(924.109375 0)"/>
     <use xlink:href="#DejaVuSans-67" transform="translate(951.892578 0)"/>
     <use xlink:href="#DejaVuSans-6e" transform="translate(1015.369141 0)"/>
     <use xlink:href="#DejaVuSans-69" transform="translate(1078.748047 0)"/>
     <use xlink:href="#DejaVuSans-66" transform="translate(1106.53125 0)"/>
     <use xlink:href="#DejaVuSans-69" transform="translate(1141.736328 0)"/>
     <use xlink:href="#DejaVuSans-63" transform="translate(1169.519531 0)"/>
     <use xlink:href="#DejaVuSans-61" transform="translate(1224.5 0)"/>
     <use xlink:href="#DejaVuSans-6e" transform="translate(1285.779297 0)"/>
     <use xlink:href="#DejaVuSans-74" transform="translate(1349.158203 0)"/>
     <use xlink:href="#DejaVuSans-20" transform="translate(1388.367188 0)"/>
     <use xlink:href="#DejaVuSans-64" transform="translate(1420.154297 0)"/>
     <use xlink:href="#DejaVuSans-61" transform="translate(1483.630859 0)"/>
     <use xlink:href="#DejaVuSans-74" transform="translate(1544.910156 0)"/>
     <use xlink:href="#DejaVuSans-61" transform="translate(1584.119141 0)"/>
     <use xlink:href="#DejaVuSans-70" transform="translate(1645.398438 0)"/>
     <use xlink:href="#DejaVuSans-6f" transform="translate(1708.875 0)"/>
     <use xlink:href="#DejaVuSans-69" transform="translate(1770.056641 0)"/>
     <use xlink:href="#DejaVuSans-6e" transform="translate(1797.839844 0)"/>
     <use xlink:href="#DejaVuSans-74" transform="translate(1861.21875 0)"/>
     <use xlink:href="#DejaVuSans-73" transform="translate(1900.427734 0)"/>
     <use xlink:href="#DejaVuSans-29" transform="translate(1952.527344 0)"/>
    </g>
   </g>
   <g id="legend_1">
    <g id="patch_7">
     <path d="M 44.23 108.904125 
L 152.37625 108.904125 
Q 153.97625 108.904125 153.97625 107.304125 
L 153.97625 47.456 
Q 153.97625 45.856 152.37625 45.856 
L 44.23 45.856 
Q 42.63 45.856 42.63 47.456 
L 42.63 107.304125 
Q 42.63 108.904125 44.23 108.904125 
z
" style="fill: #ffffff; opacity: 0.8; stroke: #cccccc; stroke-linejoin: miter"/>
    </g>
    <g id="text_23">
     <!-- control role -->
     <g transform="translate(69.917188 56.654438) scale(0.1 -0.1)">
      <use xlink:href="#DejaVuSans-63"/>
      <use xlink:href="#DejaVuSans-6f" transform="translate(54.980469 0)"/>
      <use xlink:href="#DejaVuSans-6e" transform="translate(116.162109 0)"/>
      <use xlink:href="#DejaVuSans-74" transform="translate(179.541016 0)"/>
      <use xlink:href="#DejaVuSans-72" transform="translate(218.75 0)"/>
      <use xlink:href="#DejaVuSans-6f" transform="translate(257.613281 0)"/>
      <use xlink:href="#DejaVuSans-6c" transform="translate(318.794922 0)"/>
      <use xlink:href="#DejaVuSans-20" transform="translate(346.578125 0)"/>
      <use xlink:href="#DejaVuSans-72" transform="translate(378.365234 0)"/>
      <use xlink:href="#DejaVuSans-6f" transform="translate(417.228516 0)"/>
      <use xlink:href="#DejaVuSans-6c" transform="translate(478.410156 0)"/>
      <use xlink:href="#DejaVuSans-65" transform="translate(506.193359 0)"/>
     </g>
    </g>
    <g id="line2d_15">
     <defs>
      <path id="m4858c25f3b" d="M 0 3 
C 0.795609 3 1.55874 2.683901 2.12132 2.12132 
C 2.683901 1.55874 3 0.795609 3 0 
C 3 -0.795609 2.683901 -1.55874 2.12132 -2.12132 
C 1.55874 -2.683901 0.795609 -3 0 -3 
C -0.795609 -3 -1.55874 -2.683901 -2.12132 -2.12132 
C -2.683901 -1.55874 -3 -0.795609 -3 0 
C -3 0.795609 -2.683901 1.55874 -2.12132 2.12132 
C -1.55874 2.683901 -0.795609 3 0 3 
z
" style="stroke: #000000"/>
     </defs>
     <g>
      <use xlink:href="#m4858c25f3b" x="53.83" y="66.012875" style="fill: #16425b; stroke: #000000"/>
     </g>
    </g>
    <g id="text_24">
     <!-- positive broad -->
     <g transform="translate(68.23 68.812875) scale(0.08 -0.08)">
      <use xlink:href="#DejaVuSans-70"/>
      <use xlink:href="#DejaVuSans-6f" transform="translate(63.476562 0)"/>
      <use xlink:href="#DejaVuSans-73" transform="translate(124.658203 0)"/>
      <use xlink:href="#DejaVuSans-69" transform="translate(176.757812 0)"/>
      <use xlink:href="#DejaVuSans-74" transform="translate(204.541016 0)"/>
      <use xlink:href="#DejaVuSans-69" transform="translate(243.75 0)"/>
      <use xlink:href="#DejaVuSans-76" transform="translate(271.533203 0)"/>
      <use xlink:href="#DejaVuSans-65" transform="translate(330.712891 0)"/>
      <use xlink:href="#DejaVuSans-20" transform="translate(392.236328 0)"/>
      <use xlink:href="#DejaVuSans-62" transform="translate(424.023438 0)"/>
      <use xlink:href="#DejaVuSans-72" transform="translate(487.5 0)"/>
      <use xlink:href="#DejaVuSans-6f" transform="translate(526.363281 0)"/>
      <use xlink:href="#DejaVuSans-61" transform="translate(587.544922 0)"/>
      <use xlink:href="#DejaVuSans-64" transform="translate(648.824219 0)"/>
     </g>
    </g>
    <g id="line2d_16">
     <defs>
      <path id="made1d0c88d" d="M 0 3 
C 0.795609 3 1.55874 2.683901 2.12132 2.12132 
C 2.683901 1.55874 3 0.795609 3 0 
C 3 -0.795609 2.683901 -1.55874 2.12132 -2.12132 
C 1.55874 -2.683901 0.795609 -3 0 -3 
C -0.795609 -3 -1.55874 -2.683901 -2.12132 -2.12132 
C -2.683901 -1.55874 -3 -0.795609 -3 0 
C -3 0.795609 -2.683901 1.55874 -2.12132 2.12132 
C -1.55874 2.683901 -0.795609 3 0 3 
z
" style="stroke: #000000"/>
     </defs>
     <g>
      <use xlink:href="#made1d0c88d" x="53.83" y="77.755375" style="fill: #3a7ca5; stroke: #000000"/>
     </g>
    </g>
    <g id="text_25">
     <!-- positive moderate -->
     <g transform="translate(68.23 80.555375) scale(0.08 -0.08)">
      <use xlink:href="#DejaVuSans-70"/>
      <use xlink:href="#DejaVuSans-6f" transform="translate(63.476562 0)"/>
      <use xlink:href="#DejaVuSans-73" transform="translate(124.658203 0)"/>
      <use xlink:href="#DejaVuSans-69" transform="translate(176.757812 0)"/>
      <use xlink:href="#DejaVuSans-74" transform="translate(204.541016 0)"/>
      <use xlink:href="#DejaVuSans-69" transform="translate(243.75 0)"/>
      <use xlink:href="#DejaVuSans-76" transform="translate(271.533203 0)"/>
      <use xlink:href="#DejaVuSans-65" transform="translate(330.712891 0)"/>
      <use xlink:href="#DejaVuSans-20" transform="translate(392.236328 0)"/>
      <use xlink:href="#DejaVuSans-6d" transform="translate(424.023438 0)"/>
      <use xlink:href="#DejaVuSans-6f" transform="translate(521.435547 0)"/>
      <use xlink:href="#DejaVuSans-64" transform="translate(582.617188 0)"/>
      <use xlink:href="#DejaVuSans-65" transform="translate(646.09375 0)"/>
      <use xlink:href="#DejaVuSans-72" transform="translate(707.617188 0)"/>
      <use xlink:href="#DejaVuSans-61" transform="translate(748.730469 0)"/>
      <use xlink:href="#DejaVuSans-74" transform="translate(810.009766 0)"/>
      <use xlink:href="#DejaVuSans-65" transform="translate(849.21875 0)"/>
     </g>
    </g>
    <g id="line2d_17">
     <defs>
      <path id="mf1e4d25a6d" d="M 0 3 
C 0.795609 3 1.55874 2.683901 2.12132 2.12132 
C 2.683901 1.55874 3 0.795609 3 0 
C 3 -0.795609 2.683901 -1.55874 2.12132 -2.12132 
C 1.55874 -2.683901 0.795609 -3 0 -3 
C -0.795609 -3 -1.55874 -2.683901 -2.12132 -2.12132 
C -2.683901 -1.55874 -3 -0.795609 -3 0 
C -3 0.795609 -2.683901 1.55874 -2.12132 2.12132 
C -1.55874 2.683901 -0.795609 3 0 3 
z
" style="stroke: #000000"/>
     </defs>
     <g>
      <use xlink:href="#mf1e4d25a6d" x="53.83" y="89.497875" style="fill: #d1495b; stroke: #000000"/>
     </g>
    </g>
    <g id="text_26">
     <!-- prominent not broad -->
     <g transform="translate(68.23 92.297875) scale(0.08 -0.08)">
      <use xlink:href="#DejaVuSans-70"/>
      <use xlink:href="#DejaVuSans-72" transform="translate(63.476562 0)"/>
      <use xlink:href="#DejaVuSans-6f" transform="translate(102.339844 0)"/>
      <use xlink:href="#DejaVuSans-6d" transform="translate(163.521484 0)"/>
      <use xlink:href="#DejaVuSans-69" transform="translate(260.933594 0)"/>
      <use xlink:href="#DejaVuSans-6e" transform="translate(288.716797 0)"/>
      <use xlink:href="#DejaVuSans-65" transform="translate(352.095703 0)"/>
      <use xlink:href="#DejaVuSans-6e" transform="translate(413.619141 0)"/>
      <use xlink:href="#DejaVuSans-74" transform="translate(476.998047 0)"/>
      <use xlink:href="#DejaVuSans-20" transform="translate(516.207031 0)"/>
      <use xlink:href="#DejaVuSans-6e" transform="translate(547.994141 0)"/>
      <use xlink:href="#DejaVuSans-6f" transform="translate(611.373047 0)"/>
      <use xlink:href="#DejaVuSans-74" transform="translate(672.554688 0)"/>
      <use xlink:href="#DejaVuSans-20" transform="translate(711.763672 0)"/>
      <use xlink:href="#DejaVuSans-62" transform="translate(743.550781 0)"/>
      <use xlink:href="#DejaVuSans-72" transform="translate(807.027344 0)"/>
      <use xlink:href="#DejaVuSans-6f" transform="translate(845.890625 0)"/>
      <use xlink:href="#DejaVuSans-61" transform="translate(907.072266 0)"/>
      <use xlink:href="#DejaVuSans-64" transform="translate(968.351562 0)"/>
     </g>
    </g>
    <g id="line2d_18">
     <defs>
      <path id="mfb2ab76808" d="M 0 3 
C 0.795609 3 1.55874 2.683901 2.12132 2.12132 
C 2.683901 1.55874 3 0.795609 3 0 
C 3 -0.795609 2.683901 -1.55874 2.12132 -2.12132 
C 1.55874 -2.683901 0.795609 -3 0 -3 
C -0.795609 -3 -1.55874 -2.683901 -2.12132 -2.12132 
C -2.683901 -1.55874 -3 -0.795609 -3 0 
C -3 0.795609 -2.683901 1.55874 -2.12132 2.12132 
C -1.55874 2.683901 -0.795609 3 0 3 
z
" style="stroke: #000000"/>
     </defs>
     <g>
      <use xlink:href="#mfb2ab76808" x="53.83" y="101.240375" style="fill: #9e9e9e; stroke: #000000"/>
     </g>
    </g>
    <g id="text_27">
     <!-- negative narrow -->
     <g transform="translate(68.23 104.040375) scale(0.08 -0.08)">
      <defs>
       <path id="DejaVuSans-77" d="M 269 3500 
L 844 3500 
L 1563 769 
L 2278 3500 
L 2956 3500 
L 3675 769 
L 4391 3500 
L 4966 3500 
L 4050 0 
L 3372 0 
L 2619 2869 
L 1863 0 
L 1184 0 
L 269 3500 
z
" transform="scale(0.015625)"/>
      </defs>
      <use xlink:href="#DejaVuSans-6e"/>
      <use xlink:href="#DejaVuSans-65" transform="translate(63.378906 0)"/>
      <use xlink:href="#DejaVuSans-67" transform="translate(124.902344 0)"/>
      <use xlink:href="#DejaVuSans-61" transform="translate(188.378906 0)"/>
      <use xlink:href="#DejaVuSans-74" transform="translate(249.658203 0)"/>
      <use xlink:href="#DejaVuSans-69" transform="translate(288.867188 0)"/>
      <use xlink:href="#DejaVuSans-76" transform="translate(316.650391 0)"/>
      <use xlink:href="#DejaVuSans-65" transform="translate(375.830078 0)"/>
      <use xlink:href="#DejaVuSans-20" transform="translate(437.353516 0)"/>
      <use xlink:href="#DejaVuSans-6e" transform="translate(469.140625 0)"/>
      <use xlink:href="#DejaVuSans-61" transform="translate(532.519531 0)"/>
      <use xlink:href="#DejaVuSans-72" transform="translate(593.798828 0)"/>
      <use xlink:href="#DejaVuSans-72" transform="translate(633.162109 0)"/>
      <use xlink:href="#DejaVuSans-6f" transform="translate(672.025391 0)"/>
      <use xlink:href="#DejaVuSans-77" transform="translate(733.207031 0)"/>
     </g>
    </g>
   </g>
  </g>
 </g>
 <defs>
  <clipPath id="p8ccff78996">
   <rect x="38.63" y="41.856" width="451.375" height="276.184"/>
  </clipPath>
 </defs>
</svg>
