<?xml version="1.0" encoding="utf-8" standalone="no"?>
<!DOCTYPE svg PUBLIC "-//W3C//DTD SVG 1.1//EN"
  "http://www.w3.org/Graphics/SVG/1.1/DTD/svg11.dtd">
<svg xmlns:xlink="http://www.w3.org/1999/xlink" width="540pt" height="302.4pt" viewBox="0 0 540 302.4" xmlns="http://www.w3.org/2000/svg" version="1.1">
 <metadata>
  <rdf:RDF xmlns:dc="http://purl.org/dc/elements/1.1/" xmlns:cc="http://creativecommons.org/ns#" xmlns:rdf="http://www.w3.org/1999/02/22-rdf-syntax-ns#">
   <cc:Work>
    <dc:type rdf:resource="http://purl.org/dc/dcmitype/StillImage"/>
    <dc:date>2026-06-16T11:29:45.997313</dc:date>
    <dc:format>image/svg+xml</dc:format>
    <dc:creator>
     <cc:Agent>
      <dc:title>Matplotlib v3.10.9, https://matplotlib.org/</dc:title>
     </cc:Agent>
    </dc:creator>
   </cc:Work>
  </rdf:RDF>
 </metadata>
 <defs>
  <style type="text/css">*{stroke-linejoin: round; stroke-linecap: butt}</style>
 </defs>
 <g id="figure_1">
  <g id="patch_1">
   <path d="M 0 302.4 
L 540 302.4 
L 540 0 
L 0 0 
z
" style="fill: #ffffff"/>
  </g>
  <g id="axes_1">
   <g id="patch_2">
    <path d="M 54.02 260.44 
L 529.2 260.44 
L 529.2 26.88 
L 54.02 26.88 
z
" style="fill: #ffffff"/>
   </g>
   <g id="patch_3">
    <path d="M 75.619091 260.44 
L 114.890165 260.44 
L 114.890165 258.804426 
L 75.619091 258.804426 
z
" clip-path="url(#pf57fc33b43)" style="fill: #b0bec5; opacity: 0.6"/>
   </g>
   <g id="patch_4">
    <path d="M 114.890165 260.44 
L 154.16124 260.44 
L 154.16124 252.80732 
L 114.890165 252.80732 
z
" clip-path="url(#pf57fc33b43)" style="fill: #b0bec5; opacity: 0.6"/>
   </g>
   <g id="patch_5">
    <path d="M 154.16124 260.44 
L 193.432314 260.44 
L 193.432314 216.824687 
L 154.16124 216.824687 
z
" clip-path="url(#pf57fc33b43)" style="fill: #b0bec5; opacity: 0.6"/>
   </g>
   <g id="patch_6">
    <path d="M 193.432314 260.44 
L 232.703388 260.44 
L 232.703388 105.60564 
L 193.432314 105.60564 
z
" clip-path="url(#pf57fc33b43)" style="fill: #b0bec5; opacity: 0.6"/>
   </g>
   <g id="patch_7">
    <path d="M 232.703388 260.44 
L 271.974463 260.44 
L 271.974463 38.001905 
L 232.703388 38.001905 
z
" clip-path="url(#pf57fc33b43)" style="fill: #b0bec5; opacity: 0.6"/>
   </g>
   <g id="patch_8">
    <path d="M 271.974463 260.44 
L 311.245537 260.44 
L 311.245537 69.623007 
L 271.974463 69.623007 
z
" clip-path="url(#pf57fc33b43)" style="fill: #b0bec5; opacity: 0.6"/>
   </g>
   <g id="patch_9">
    <path d="M 311.245537 260.44 
L 350.516612 260.44 
L 350.516612 154.672866 
L 311.245537 154.672866 
z
" clip-path="url(#pf57fc33b43)" style="fill: #b0bec5; opacity: 0.6"/>
   </g>
   <g id="patch_10">
    <path d="M 350.516612 260.44 
L 389.787686 260.44 
L 389.787686 213.008347 
L 350.516612 213.008347 
z
" clip-path="url(#pf57fc33b43)" style="fill: #b0bec5; opacity: 0.6"/>
   </g>
   <g id="patch_11">
    <path d="M 389.787686 260.44 
L 429.05876 260.44 
L 429.05876 245.174641 
L 389.787686 245.174641 
z
" clip-path="url(#pf57fc33b43)" style="fill: #b0bec5; opacity: 0.6"/>
   </g>
   <g id="patch_12">
    <path d="M 429.05876 260.44 
L 468.329835 260.44 
L 468.329835 253.352512 
L 429.05876 253.352512 
z
" clip-path="url(#pf57fc33b43)" style="fill: #b0bec5; opacity: 0.6"/>
   </g>
   <g id="patch_13">
    <path d="M 468.329835 260.44 
L 507.600909 260.44 
L 507.600909 258.259234 
L 468.329835 258.259234 
z
" clip-path="url(#pf57fc33b43)" style="fill: #b0bec5; opacity: 0.6"/>
   </g>
   <g id="patch_14">
    <path d="M 75.619091 260.44 
L 114.890165 260.44 
L 114.890165 253.919956 
L 75.619091 253.919956 
z
" clip-path="url(#pf57fc33b43)" style="fill: #d1495b; opacity: 0.6"/>
   </g>
   <g id="patch_15">
    <path d="M 114.890165 260.44 
L 154.16124 260.44 
L 154.16124 188.719514 
L 114.890165 188.719514 
z
" clip-path="url(#pf57fc33b43)" style="fill: #d1495b; opacity: 0.6"/>
   </g>
   <g id="patch_16">
    <path d="M 154.16124 260.44 
L 193.432314 260.44 
L 193.432314 143.079204 
L 154.16124 143.079204 
z
" clip-path="url(#pf57fc33b43)" style="fill: #d1495b; opacity: 0.6"/>
   </g>
   <g id="patch_17">
    <path d="M 193.432314 260.44 
L 232.703388 260.44 
L 232.703388 90.918851 
L 193.432314 90.918851 
z
" clip-path="url(#pf57fc33b43)" style="fill: #d1495b; opacity: 0.6"/>
   </g>
   <g id="patch_18">
    <path d="M 232.703388 260.44 
L 271.974463 260.44 
L 271.974463 58.31863 
L 232.703388 58.31863 
z
" clip-path="url(#pf57fc33b43)" style="fill: #d1495b; opacity: 0.6"/>
   </g>
   <g id="patch_19">
    <path d="M 271.974463 260.44 
L 311.245537 260.44 
L 311.245537 126.779094 
L 271.974463 126.779094 
z
" clip-path="url(#pf57fc33b43)" style="fill: #d1495b; opacity: 0.6"/>
   </g>
   <g id="patch_20">
    <path d="M 311.245537 260.44 
L 350.516612 260.44 
L 350.516612 195.239558 
L 311.245537 195.239558 
z
" clip-path="url(#pf57fc33b43)" style="fill: #d1495b; opacity: 0.6"/>
   </g>
   <g id="patch_21">
    <path d="M 350.516612 260.44 
L 389.787686 260.44 
L 389.787686 237.619845 
L 350.516612 237.619845 
z
" clip-path="url(#pf57fc33b43)" style="fill: #d1495b; opacity: 0.6"/>
   </g>
   <g id="patch_22">
    <path d="M 389.787686 260.44 
L 429.05876 260.44 
L 429.05876 257.179978 
L 389.787686 257.179978 
z
" clip-path="url(#pf57fc33b43)" style="fill: #d1495b; opacity: 0.6"/>
   </g>
   <g id="patch_23">
    <path d="M 429.05876 260.44 
L 468.329835 260.44 
L 468.329835 253.919956 
L 429.05876 253.919956 
z
" clip-path="url(#pf57fc33b43)" style="fill: #d1495b; opacity: 0.6"/>
   </g>
   <g id="patch_24">
    <path d="M 468.329835 260.44 
L 507.600909 260.44 
L 507.600909 260.44 
L 468.329835 260.44 
z
" clip-path="url(#pf57fc33b43)" style="fill: #d1495b; opacity: 0.6"/>
   </g>
   <g id="matplotlib.axis_1">
    <g id="xtick_1">
     <g id="line2d_1">
      <defs>
       <path id="mc726f6c941" d="M 0 0 
L 0 3.5 
" style="stroke: #000000; stroke-width: 0.8"/>
      </defs>
      <g>
       <use xlink:href="#mc726f6c941" x="95.254628" y="260.44" style="stroke: #000000; stroke-width: 0.8"/>
      </g>
     </g>
     <g id="text_1">
      <!-- 0 -->
      <g transform="translate(92.073378 275.038438) scale(0.1 -0.1)">
       <defs>
        <path id="DejaVuSans-30" d="M 2034 4250 
Q 1547 4250 1301 3770 
Q 1056 3291 1056 2328 
Q 1056 1369 1301 889 
Q 1547 409 2034 409 
Q 2525 409 2770 889 
Q 3016 1369 3016 2328 
Q 3016 3291 2770 3770 
Q 2525 4250 2034 4250 
z
M 2034 4750 
Q 2819 4750 3233 4129 
Q 3647 3509 3647 2328 
Q 3647 1150 3233 529 
Q 2819 -91 2034 -91 
Q 1250 -91 836 529 
Q 422 1150 422 2328 
Q 422 3509 836 4129 
Q 1250 4750 2034 4750 
z
" transform="scale(0.015625)"/>
       </defs>
       <use xlink:href="#DejaVuSans-30"/>
      </g>
     </g>
    </g>
    <g id="xtick_2">
     <g id="line2d_2">
      <g>
       <use xlink:href="#mc726f6c941" x="134.525702" y="260.44" style="stroke: #000000; stroke-width: 0.8"/>
      </g>
     </g>
     <g id="text_2">
      <!-- 1 -->
      <g transform="translate(131.344452 275.038438) scale(0.1 -0.1)">
       <defs>
        <path id="DejaVuSans-31" d="M 794 531 
L 1825 531 
L 1825 4091 
L 703 3866 
L 703 4441 
L 1819 4666 
L 2450 4666 
L 2450 531 
L 3481 531 
L 3481 0 
L 794 0 
L 794 531 
z
" transform="scale(0.015625)"/>
       </defs>
       <use xlink:href="#DejaVuSans-31"/>
      </g>
     </g>
    </g>
    <g id="xtick_3">
     <g id="line2d_3">
      <g>
       <use xlink:href="#mc726f6c941" x="173.796777" y="260.44" style="stroke: #000000; stroke-width: 0.8"/>
      </g>
     </g>
     <g id="text_3">
      <!-- 2 -->
      <g transform="translate(170.615527 275.038438) scale(0.1 -0.1)">
       <defs>
        <path id="DejaVuSans-32" d="M 1228 531 
L 3431 531 
L 3431 0 
L 469 0 
L 469 531 
Q 828 903 1448 1529 
Q 2069 2156 2228 2338 
Q 2531 2678 2651 2914 
Q 2772 3150 2772 3378 
Q 2772 3750 2511 3984 
Q 2250 4219 1831 4219 
Q 1534 4219 1204 4116 
Q 875 4013 500 3803 
L 500 4441 
Q 881 4594 1212 4672 
Q 1544 4750 1819 4750 
Q 2544 4750 2975 4387 
Q 3406 4025 3406 3419 
Q 3406 3131 3298 2873 
Q 3191 2616 2906 2266 
Q 2828 2175 2409 1742 
Q 1991 1309 1228 531 
z
" transform="scale(0.015625)"/>
       </defs>
       <use xlink:href="#DejaVuSans-32"/>
      </g>
     </g>
    </g>
    <g id="xtick_4">
     <g id="line2d_4">
      <g>
       <use xlink:href="#mc726f6c941" x="213.067851" y="260.44" style="stroke: #000000; stroke-width: 0.8"/>
      </g>
     </g>
     <g id="text_4">
      <!-- 3 -->
      <g transform="translate(209.886601 275.038438) scale(0.1 -0.1)">
       <defs>
        <path id="DejaVuSans-33" d="M 2597 2516 
Q 3050 2419 3304 2112 
Q 3559 1806 3559 1356 
Q 3559 666 3084 287 
Q 2609 -91 1734 -91 
Q 1441 -91 1130 -33 
Q 819 25 488 141 
L 488 750 
Q 750 597 1062 519 
Q 1375 441 1716 441 
Q 2309 441 2620 675 
Q 2931 909 2931 1356 
Q 2931 1769 2642 2001 
Q 2353 2234 1838 2234 
L 1294 2234 
L 1294 2753 
L 1863 2753 
Q 2328 2753 2575 2939 
Q 2822 3125 2822 3475 
Q 2822 3834 2567 4026 
Q 2313 4219 1838 4219 
Q 1578 4219 1281 4162 
Q 984 4106 628 3988 
L 628 4550 
Q 988 4650 1302 4700 
Q 1616 4750 1894 4750 
Q 2613 4750 3031 4423 
Q 3450 4097 3450 3541 
Q 3450 3153 3228 2886 
Q 3006 2619 2597 2516 
z
" transform="scale(0.015625)"/>
       </defs>
       <use xlink:href="#DejaVuSans-33"/>
      </g>
     </g>
    </g>
    <g id="xtick_5">
     <g id="line2d_5">
      <g>
       <use xlink:href="#mc726f6c941" x="252.338926" y="260.44" style="stroke: #000000; stroke-width: 0.8"/>
      </g>
     </g>
     <g id="text_5">
      <!-- 4 -->
      <g transform="translate(249.157676 275.038438) scale(0.1 -0.1)">
       <defs>
        <path id="DejaVuSans-34" d="M 2419 4116 
L 825 1625 
L 2419 1625 
L 2419 4116 
z
M 2253 4666 
L 3047 4666 
L 3047 1625 
L 3713 1625 
L 3713 1100 
L 3047 1100 
L 3047 0 
L 2419 0 
L 2419 1100 
L 313 1100 
L 313 1709 
L 2253 4666 
z
" transform="scale(0.015625)"/>
       </defs>
       <use xlink:href="#DejaVuSans-34"/>
      </g>
     </g>
    </g>
    <g id="xtick_6">
     <g id="line2d_6">
      <g>
       <use xlink:href="#mc726f6c941" x="291.61" y="260.44" style="stroke: #000000; stroke-width: 0.8"/>
      </g>
     </g>
     <g id="text_6">
      <!-- 5 -->
      <g transform="translate(288.42875 275.038438) scale(0.1 -0.1)">
       <defs>
        <path id="DejaVuSans-35" d="M 691 4666 
L 3169 4666 
L 3169 4134 
L 1269 4134 
L 1269 2991 
Q 1406 3038 1543 3061 
Q 1681 3084 1819 3084 
Q 2600 3084 3056 2656 
Q 3513 2228 3513 1497 
Q 3513 744 3044 326 
Q 2575 -91 1722 -91 
Q 1428 -91 1123 -41 
Q 819 9 494 109 
L 494 744 
Q 775 591 1075 516 
Q 1375 441 1709 441 
Q 2250 441 2565 725 
Q 2881 1009 2881 1497 
Q 2881 1984 2565 2268 
Q 2250 2553 1709 2553 
Q 1456 2553 1204 2497 
Q 953 2441 691 2322 
L 691 4666 
z
" transform="scale(0.015625)"/>
       </defs>
       <use xlink:href="#DejaVuSans-35"/>
      </g>
     </g>
    </g>
    <g id="xtick_7">
     <g id="line2d_7">
      <g>
       <use xlink:href="#mc726f6c941" x="330.881074" y="260.44" style="stroke: #000000; stroke-width: 0.8"/>
      </g>
     </g>
     <g id="text_7">
      <!-- 6 -->
      <g transform="translate(327.699824 275.038438) scale(0.1 -0.1)">
       <defs>
        <path id="DejaVuSans-36" d="M 2113 2584 
Q 1688 2584 1439 2293 
Q 1191 2003 1191 1497 
Q 1191 994 1439 701 
Q 1688 409 2113 409 
Q 2538 409 2786 701 
Q 3034 994 3034 1497 
Q 3034 2003 2786 2293 
Q 2538 2584 2113 2584 
z
M 3366 4563 
L 3366 3988 
Q 3128 4100 2886 4159 
Q 2644 4219 2406 4219 
Q 1781 4219 1451 3797 
Q 1122 3375 1075 2522 
Q 1259 2794 1537 2939 
Q 1816 3084 2150 3084 
Q 2853 3084 3261 2657 
Q 3669 2231 3669 1497 
Q 3669 778 3244 343 
Q 2819 -91 2113 -91 
Q 1303 -91 875 529 
Q 447 1150 447 2328 
Q 447 3434 972 4092 
Q 1497 4750 2381 4750 
Q 2619 4750 2861 4703 
Q 3103 4656 3366 4563 
z
" transform="scale(0.015625)"/>
       </defs>
       <use xlink:href="#DejaVuSans-36"/>
      </g>
     </g>
    </g>
    <g id="xtick_8">
     <g id="line2d_8">
      <g>
       <use xlink:href="#mc726f6c941" x="370.152149" y="260.44" style="stroke: #000000; stroke-width: 0.8"/>
      </g>
     </g>
     <g id="text_8">
      <!-- 7 -->
      <g transform="translate(366.970899 275.038438) scale(0.1 -0.1)">
       <defs>
        <path id="DejaVuSans-37" d="M 525 4666 
L 3525 4666 
L 3525 4397 
L 1831 0 
L 1172 0 
L 2766 4134 
L 525 4134 
L 525 4666 
z
" transform="scale(0.015625)"/>
       </defs>
       <use xlink:href="#DejaVuSans-37"/>
      </g>
     </g>
    </g>
    <g id="xtick_9">
     <g id="line2d_9">
      <g>
       <use xlink:href="#mc726f6c941" x="409.423223" y="260.44" style="stroke: #000000; stroke-width: 0.8"/>
      </g>
     </g>
     <g id="text_9">
      <!-- 8 -->
      <g transform="translate(406.241973 275.038438) scale(0.1 -0.1)">
       <defs>
        <path id="DejaVuSans-38" d="M 2034 2216 
Q 1584 2216 1326 1975 
Q 1069 1734 1069 1313 
Q 1069 891 1326 650 
Q 1584 409 2034 409 
Q 2484 409 2743 651 
Q 3003 894 3003 1313 
Q 3003 1734 2745 1975 
Q 2488 2216 2034 2216 
z
M 1403 2484 
Q 997 2584 770 2862 
Q 544 3141 544 3541 
Q 544 4100 942 4425 
Q 1341 4750 2034 4750 
Q 2731 4750 3128 4425 
Q 3525 4100 3525 3541 
Q 3525 3141 3298 2862 
Q 3072 2584 2669 2484 
Q 3125 2378 3379 2068 
Q 3634 1759 3634 1313 
Q 3634 634 3220 271 
Q 2806 -91 2034 -91 
Q 1263 -91 848 271 
Q 434 634 434 1313 
Q 434 1759 690 2068 
Q 947 2378 1403 2484 
z
M 1172 3481 
Q 1172 3119 1398 2916 
Q 1625 2713 2034 2713 
Q 2441 2713 2670 2916 
Q 2900 3119 2900 3481 
Q 2900 3844 2670 4047 
Q 2441 4250 2034 4250 
Q 1625 4250 1398 4047 
Q 1172 3844 1172 3481 
z
" transform="scale(0.015625)"/>
       </defs>
       <use xlink:href="#DejaVuSans-38"/>
      </g>
     </g>
    </g>
    <g id="xtick_10">
     <g id="line2d_10">
      <g>
       <use xlink:href="#mc726f6c941" x="448.694298" y="260.44" style="stroke: #000000; stroke-width: 0.8"/>
      </g>
     </g>
     <g id="text_10">
      <!-- 9 -->
      <g transform="translate(445.513048 275.038438) scale(0.1 -0.1)">
       <defs>
        <path id="DejaVuSans-39" d="M 703 97 
L 703 672 
Q 941 559 1184 500 
Q 1428 441 1663 441 
Q 2288 441 2617 861 
Q 2947 1281 2994 2138 
Q 2813 1869 2534 1725 
Q 2256 1581 1919 1581 
Q 1219 1581 811 2004 
Q 403 2428 403 3163 
Q 403 3881 828 4315 
Q 1253 4750 1959 4750 
Q 2769 4750 3195 4129 
Q 3622 3509 3622 2328 
Q 3622 1225 3098 567 
Q 2575 -91 1691 -91 
Q 1453 -91 1209 -44 
Q 966 3 703 97 
z
M 1959 2075 
Q 2384 2075 2632 2365 
Q 2881 2656 2881 3163 
Q 2881 3666 2632 3958 
Q 2384 4250 1959 4250 
Q 1534 4250 1286 3958 
Q 1038 3666 1038 3163 
Q 1038 2656 1286 2365 
Q 1534 2075 1959 2075 
z
" transform="scale(0.015625)"/>
       </defs>
       <use xlink:href="#DejaVuSans-39"/>
      </g>
     </g>
    </g>
    <g id="xtick_11">
     <g id="line2d_11">
      <g>
       <use xlink:href="#mc726f6c941" x="487.965372" y="260.44" style="stroke: #000000; stroke-width: 0.8"/>
      </g>
     </g>
     <g id="text_11">
      <!-- 10 -->
      <g transform="translate(481.602872 275.038438) scale(0.1 -0.1)">
       <use xlink:href="#DejaVuSans-31"/>
       <use xlink:href="#DejaVuSans-30" transform="translate(63.623047 0)"/>
      </g>
     </g>
    </g>
    <g id="text_12">
     <!-- breadth (distinct treatment types responded, of 13) -->
     <g transform="translate(162.140469 288.716563) scale(0.1 -0.1)">
      <defs>
       <path id="DejaVuSans-62" d="M 3116 1747 
Q 3116 2381 2855 2742 
Q 2594 3103 2138 3103 
Q 1681 3103 1420 2742 
Q 1159 2381 1159 1747 
Q 1159 1113 1420 752 
Q 1681 391 2138 391 
Q 2594 391 2855 752 
Q 3116 1113 3116 1747 
z
M 1159 2969 
Q 1341 3281 1617 3432 
Q 1894 3584 2278 3584 
Q 2916 3584 3314 3078 
Q 3713 2572 3713 1747 
Q 3713 922 3314 415 
Q 2916 -91 2278 -91 
Q 1894 -91 1617 61 
Q 1341 213 1159 525 
L 1159 0 
L 581 0 
L 581 4863 
L 1159 4863 
L 1159 2969 
z
" transform="scale(0.015625)"/>
       <path id="DejaVuSans-72" d="M 2631 2963 
Q 2534 3019 2420 3045 
Q 2306 3072 2169 3072 
Q 1681 3072 1420 2755 
Q 1159 2438 1159 1844 
L 1159 0 
L 581 0 
L 581 3500 
L 1159 3500 
L 1159 2956 
Q 1341 3275 1631 3429 
Q 1922 3584 2338 3584 
Q 2397 3584 2469 3576 
Q 2541 3569 2628 3553 
L 2631 2963 
z
" transform="scale(0.015625)"/>
       <path id="DejaVuSans-65" d="M 3597 1894 
L 3597 1613 
L 953 1613 
Q 991 1019 1311 708 
Q 1631 397 2203 397 
Q 2534 397 2845 478 
Q 3156 559 3463 722 
L 3463 178 
Q 3153 47 2828 -22 
Q 2503 -91 2169 -91 
Q 1331 -91 842 396 
Q 353 884 353 1716 
Q 353 2575 817 3079 
Q 1281 3584 2069 3584 
Q 2775 3584 3186 3129 
Q 3597 2675 3597 1894 
z
M 3022 2063 
Q 3016 2534 2758 2815 
Q 2500 3097 2075 3097 
Q 1594 3097 1305 2825 
Q 1016 2553 972 2059 
L 3022 2063 
z
" transform="scale(0.015625)"/>
       <path id="DejaVuSans-61" d="M 2194 1759 
Q 1497 1759 1228 1600 
Q 959 1441 959 1056 
Q 959 750 1161 570 
Q 1363 391 1709 391 
Q 2188 391 2477 730 
Q 2766 1069 2766 1631 
L 2766 1759 
L 2194 1759 
z
M 3341 1997 
L 3341 0 
L 2766 0 
L 2766 531 
Q 2569 213 2275 61 
Q 1981 -91 1556 -91 
Q 1019 -91 701 211 
Q 384 513 384 1019 
Q 384 1609 779 1909 
Q 1175 2209 1959 2209 
L 2766 2209 
L 2766 2266 
Q 2766 2663 2505 2880 
Q 2244 3097 1772 3097 
Q 1472 3097 1187 3025 
Q 903 2953 641 2809 
L 641 3341 
Q 956 3463 1253 3523 
Q 1550 3584 1831 3584 
Q 2591 3584 2966 3190 
Q 3341 2797 3341 1997 
z
" transform="scale(0.015625)"/>
       <path id="DejaVuSans-64" d="M 2906 2969 
L 2906 4863 
L 3481 4863 
L 3481 0 
L 2906 0 
L 2906 525 
Q 2725 213 2448 61 
Q 2172 -91 1784 -91 
Q 1150 -91 751 415 
Q 353 922 353 1747 
Q 353 2572 751 3078 
Q 1150 3584 1784 3584 
Q 2172 3584 2448 3432 
Q 2725 3281 2906 2969 
z
M 947 1747 
Q 947 1113 1208 752 
Q 1469 391 1925 391 
Q 2381 391 2643 752 
Q 2906 1113 2906 1747 
Q 2906 2381 2643 2742 
Q 2381 3103 1925 3103 
Q 1469 3103 1208 2742 
Q 947 2381 947 1747 
z
" transform="scale(0.015625)"/>
       <path id="DejaVuSans-74" d="M 1172 4494 
L 1172 3500 
L 2356 3500 
L 2356 3053 
L 1172 3053 
L 1172 1153 
Q 1172 725 1289 603 
Q 1406 481 1766 481 
L 2356 481 
L 2356 0 
L 1766 0 
Q 1100 0 847 248 
Q 594 497 594 1153 
L 594 3053 
L 172 3053 
L 172 3500 
L 594 3500 
L 594 4494 
L 1172 4494 
z
" transform="scale(0.015625)"/>
       <path id="DejaVuSans-68" d="M 3513 2113 
L 3513 0 
L 2938 0 
L 2938 2094 
Q 2938 2591 2744 2837 
Q 2550 3084 2163 3084 
Q 1697 3084 1428 2787 
Q 1159 2491 1159 1978 
L 1159 0 
L 581 0 
L 581 4863 
L 1159 4863 
L 1159 2956 
Q 1366 3272 1645 3428 
Q 1925 3584 2291 3584 
Q 2894 3584 3203 3211 
Q 3513 2838 3513 2113 
z
" transform="scale(0.015625)"/>
       <path id="DejaVuSans-20" transform="scale(0.015625)"/>
       <path id="DejaVuSans-28" d="M 1984 4856 
Q 1566 4138 1362 3434 
Q 1159 2731 1159 2009 
Q 1159 1288 1364 580 
Q 1569 -128 1984 -844 
L 1484 -844 
Q 1016 -109 783 600 
Q 550 1309 550 2009 
Q 550 2706 781 3412 
Q 1013 4119 1484 4856 
L 1984 4856 
z
" transform="scale(0.015625)"/>
       <path id="DejaVuSans-69" d="M 603 3500 
L 1178 3500 
L 1178 0 
L 603 0 
L 603 3500 
z
M 603 4863 
L 1178 4863 
L 1178 4134 
L 603 4134 
L 603 4863 
z
" transform="scale(0.015625)"/>
       <path id="DejaVuSans-73" d="M 2834 3397 
L 2834 2853 
Q 2591 2978 2328 3040 
Q 2066 3103 1784 3103 
Q 1356 3103 1142 2972 
Q 928 2841 928 2578 
Q 928 2378 1081 2264 
Q 1234 2150 1697 2047 
L 1894 2003 
Q 2506 1872 2764 1633 
Q 3022 1394 3022 966 
Q 3022 478 2636 193 
Q 2250 -91 1575 -91 
Q 1294 -91 989 -36 
Q 684 19 347 128 
L 347 722 
Q 666 556 975 473 
Q 1284 391 1588 391 
Q 1994 391 2212 530 
Q 2431 669 2431 922 
Q 2431 1156 2273 1281 
Q 2116 1406 1581 1522 
L 1381 1569 
Q 847 1681 609 1914 
Q 372 2147 372 2553 
Q 372 3047 722 3315 
Q 1072 3584 1716 3584 
Q 2034 3584 2315 3537 
Q 2597 3491 2834 3397 
z
" transform="scale(0.015625)"/>
       <path id="DejaVuSans-6e" d="M 3513 2113 
L 3513 0 
L 2938 0 
L 2938 2094 
Q 2938 2591 2744 2837 
Q 2550 3084 2163 3084 
Q 1697 3084 1428 2787 
Q 1159 2491 1159 1978 
L 1159 0 
L 581 0 
L 581 3500 
L 1159 3500 
L 1159 2956 
Q 1366 3272 1645 3428 
Q 1925 3584 2291 3584 
Q 2894 3584 3203 3211 
Q 3513 2838 3513 2113 
z
" transform="scale(0.015625)"/>
       <path id="DejaVuSans-63" d="M 3122 3366 
L 3122 2828 
Q 2878 2963 2633 3030 
Q 2388 3097 2138 3097 
Q 1578 3097 1268 2742 
Q 959 2388 959 1747 
Q 959 1106 1268 751 
Q 1578 397 2138 397 
Q 2388 397 2633 464 
Q 2878 531 3122 666 
L 3122 134 
Q 2881 22 2623 -34 
Q 2366 -91 2075 -91 
Q 1284 -91 818 406 
Q 353 903 353 1747 
Q 353 2603 823 3093 
Q 1294 3584 2113 3584 
Q 2378 3584 2631 3529 
Q 2884 3475 3122 3366 
z
" transform="scale(0.015625)"/>
       <path id="DejaVuSans-6d" d="M 3328 2828 
Q 3544 3216 3844 3400 
Q 4144 3584 4550 3584 
Q 5097 3584 5394 3201 
Q 5691 2819 5691 2113 
L 5691 0 
L 5113 0 
L 5113 2094 
Q 5113 2597 4934 2840 
Q 4756 3084 4391 3084 
Q 3944 3084 3684 2787 
Q 3425 2491 3425 1978 
L 3425 0 
L 2847 0 
L 2847 2094 
Q 2847 2600 2669 2842 
Q 2491 3084 2119 3084 
Q 1678 3084 1418 2786 
Q 1159 2488 1159 1978 
L 1159 0 
L 581 0 
L 581 3500 
L 1159 3500 
L 1159 2956 
Q 1356 3278 1631 3431 
Q 1906 3584 2284 3584 
Q 2666 3584 2933 3390 
Q 3200 3197 3328 2828 
z
" transform="scale(0.015625)"/>
       <path id="DejaVuSans-79" d="M 2059 -325 
Q 1816 -950 1584 -1140 
Q 1353 -1331 966 -1331 
L 506 -1331 
L 506 -850 
L 844 -850 
Q 1081 -850 1212 -737 
Q 1344 -625 1503 -206 
L 1606 56 
L 191 3500 
L 800 3500 
L 1894 763 
L 2988 3500 
L 3597 3500 
L 2059 -325 
z
" transform="scale(0.015625)"/>
       <path id="DejaVuSans-70" d="M 1159 525 
L 1159 -1331 
L 581 -1331 
L 581 3500 
L 1159 3500 
L 1159 2969 
Q 1341 3281 1617 3432 
Q 1894 3584 2278 3584 
Q 2916 3584 3314 3078 
Q 3713 2572 3713 1747 
Q 3713 922 3314 415 
Q 2916 -91 2278 -91 
Q 1894 -91 1617 61 
Q 1341 213 1159 525 
z
M 3116 1747 
Q 3116 2381 2855 2742 
Q 2594 3103 2138 3103 
Q 1681 3103 1420 2742 
Q 1159 2381 1159 1747 
Q 1159 1113 1420 752 
Q 1681 391 2138 391 
Q 2594 391 2855 752 
Q 3116 1113 3116 1747 
z
" transform="scale(0.015625)"/>
       <path id="DejaVuSans-6f" d="M 1959 3097 
Q 1497 3097 1228 2736 
Q 959 2375 959 1747 
Q 959 1119 1226 758 
Q 1494 397 1959 397 
Q 2419 397 2687 759 
Q 2956 1122 2956 1747 
Q 2956 2369 2687 2733 
Q 2419 3097 1959 3097 
z
M 1959 3584 
Q 2709 3584 3137 3096 
Q 3566 2609 3566 1747 
Q 3566 888 3137 398 
Q 2709 -91 1959 -91 
Q 1206 -91 779 398 
Q 353 888 353 1747 
Q 353 2609 779 3096 
Q 1206 3584 1959 3584 
z
" transform="scale(0.015625)"/>
       <path id="DejaVuSans-2c" d="M 750 794 
L 1409 794 
L 1409 256 
L 897 -744 
L 494 -744 
L 750 256 
L 750 794 
z
" transform="scale(0.015625)"/>
       <path id="DejaVuSans-66" d="M 2375 4863 
L 2375 4384 
L 1825 4384 
Q 1516 4384 1395 4259 
Q 1275 4134 1275 3809 
L 1275 3500 
L 2222 3500 
L 2222 3053 
L 1275 3053 
L 1275 0 
L 697 0 
L 697 3053 
L 147 3053 
L 147 3500 
L 697 3500 
L 697 3744 
Q 697 4328 969 4595 
Q 1241 4863 1831 4863 
L 2375 4863 
z
" transform="scale(0.015625)"/>
       <path id="DejaVuSans-29" d="M 513 4856 
L 1013 4856 
Q 1481 4119 1714 3412 
Q 1947 2706 1947 2009 
Q 1947 1309 1714 600 
Q 1481 -109 1013 -844 
L 513 -844 
Q 928 -128 1133 580 
Q 1338 1288 1338 2009 
Q 1338 2731 1133 3434 
Q 928 4138 513 4856 
z
" transform="scale(0.015625)"/>
      </defs>
      <use xlink:href="#DejaVuSans-62"/>
      <use xlink:href="#DejaVuSans-72" transform="translate(63.476562 0)"/>
      <use xlink:href="#DejaVuSans-65" transform="translate(102.339844 0)"/>
      <use xlink:href="#DejaVuSans-61" transform="translate(163.863281 0)"/>
      <use xlink:href="#DejaVuSans-64" transform="translate(225.142578 0)"/>
      <use xlink:href="#DejaVuSans-74" transform="translate(288.619141 0)"/>
      <use xlink:href="#DejaVuSans-68" transform="translate(327.828125 0)"/>
      <use xlink:href="#DejaVuSans-20" transform="translate(391.207031 0)"/>
      <use xlink:href="#DejaVuSans-28" transform="translate(422.994141 0)"/>
      <use xlink:href="#DejaVuSans-64" transform="translate(462.007812 0)"/>
      <use xlink:href="#DejaVuSans-69" transform="translate(525.484375 0)"/>
      <use xlink:href="#DejaVuSans-73" transform="translate(553.267578 0)"/>
      <use xlink:href="#DejaVuSans-74" transform="translate(605.367188 0)"/>
      <use xlink:href="#DejaVuSans-69" transform="translate(644.576172 0)"/>
      <use xlink:href="#DejaVuSans-6e" transform="translate(672.359375 0)"/>
      <use xlink:href="#DejaVuSans-63" transform="translate(735.738281 0)"/>
      <use xlink:href="#DejaVuSans-74" transform="translate(790.71875 0)"/>
      <use xlink:href="#DejaVuSans-20" transform="translate(829.927734 0)"/>
      <use xlink:href="#DejaVuSans-74" transform="translate(861.714844 0)"/>
      <use xlink:href="#DejaVuSans-72" transform="translate(900.923828 0)"/>
      <use xlink:href="#DejaVuSans-65" transform="translate(939.787109 0)"/>
      <use xlink:href="#DejaVuSans-61" transform="translate(1001.310547 0)"/>
      <use xlink:href="#DejaVuSans-74" transform="translate(1062.589844 0)"/>
      <use xlink:href="#DejaVuSans-6d" transform="translate(1101.798828 0)"/>
      <use xlink:href="#DejaVuSans-65" transform="translate(1199.210938 0)"/>
      <use xlink:href="#DejaVuSans-6e" transform="translate(1260.734375 0)"/>
      <use xlink:href="#DejaVuSans-74" transform="translate(1324.113281 0)"/>
      <use xlink:href="#DejaVuSans-20" transform="translate(1363.322266 0)"/>
      <use xlink:href="#DejaVuSans-74" transform="translate(1395.109375 0)"/>
      <use xlink:href="#DejaVuSans-79" transform="translate(1434.318359 0)"/>
      <use xlink:href="#DejaVuSans-70" transform="translate(1493.498047 0)"/>
      <use xlink:href="#DejaVuSans-65" transform="translate(1556.974609 0)"/>
      <use xlink:href="#DejaVuSans-73" transform="translate(1618.498047 0)"/>
      <use xlink:href="#DejaVuSans-20" transform="translate(1670.597656 0)"/>
      <use xlink:href="#DejaVuSans-72" transform="translate(1702.384766 0)"/>
      <use xlink:href="#DejaVuSans-65" transform="translate(1741.248047 0)"/>
      <use xlink:href="#DejaVuSans-73" transform="translate(1802.771484 0)"/>
      <use xlink:href="#DejaVuSans-70" transform="translate(1854.871094 0)"/>
      <use xlink:href="#DejaVuSans-6f" transform="translate(1918.347656 0)"/>
      <use xlink:href="#DejaVuSans-6e" transform="translate(1979.529297 0)"/>
      <use xlink:href="#DejaVuSans-64" transform="translate(2042.908203 0)"/>
      <use xlink:href="#DejaVuSans-65" transform="translate(2106.384766 0)"/>
      <use xlink:href="#DejaVuSans-64" transform="translate(2167.908203 0)"/>
      <use xlink:href="#DejaVuSans-2c" transform="translate(2231.384766 0)"/>
      <use xlink:href="#DejaVuSans-20" transform="translate(2263.171875 0)"/>
      <use xlink:href="#DejaVuSans-6f" transform="translate(2294.958984 0)"/>
      <use xlink:href="#DejaVuSans-66" transform="translate(2356.140625 0)"/>
      <use xlink:href="#DejaVuSans-20" transform="translate(2391.345703 0)"/>
      <use xlink:href="#DejaVuSans-31" transform="translate(2423.132812 0)"/>
      <use xlink:href="#DejaVuSans-33" transform="translate(2486.755859 0)"/>
      <use xlink:href="#DejaVuSans-29" transform="translate(2550.378906 0)"/>
     </g>
    </g>
   </g>
   <g id="matplotlib.axis_2">
    <g id="ytick_1">
     <g id="line2d_12">
      <defs>
       <path id="m37e57e30d3" d="M 0 0 
L -3.5 0 
" style="stroke: #000000; stroke-width: 0.8"/>
      </defs>
      <g>
       <use xlink:href="#m37e57e30d3" x="54.02" y="260.44" style="stroke: #000000; stroke-width: 0.8"/>
      </g>
     </g>
     <g id="text_13">
      <!-- 0.00 -->
      <g transform="translate(24.754375 264.239219) scale(0.1 -0.1)">
       <defs>
        <path id="DejaVuSans-2e" d="M 684 794 
L 1344 794 
L 1344 0 
L 684 0 
L 684 794 
z
" transform="scale(0.015625)"/>
       </defs>
       <use xlink:href="#DejaVuSans-30"/>
       <use xlink:href="#DejaVuSans-2e" transform="translate(63.623047 0)"/>
       <use xlink:href="#DejaVuSans-30" transform="translate(95.410156 0)"/>
       <use xlink:href="#DejaVuSans-30" transform="translate(159.033203 0)"/>
      </g>
     </g>
    </g>
    <g id="ytick_2">
     <g id="line2d_13">
      <g>
       <use xlink:href="#m37e57e30d3" x="54.02" y="220.504729" style="stroke: #000000; stroke-width: 0.8"/>
      </g>
     </g>
     <g id="text_14">
      <!-- 0.05 -->
      <g transform="translate(24.754375 224.303948) scale(0.1 -0.1)">
       <use xlink:href="#DejaVuSans-30"/>
       <use xlink:href="#DejaVuSans-2e" transform="translate(63.623047 0)"/>
       <use xlink:href="#DejaVuSans-30" transform="translate(95.410156 0)"/>
       <use xlink:href="#DejaVuSans-35" transform="translate(159.033203 0)"/>
      </g>
     </g>
    </g>
    <g id="ytick_3">
     <g id="line2d_14">
      <g>
       <use xlink:href="#m37e57e30d3" x="54.02" y="180.569458" style="stroke: #000000; stroke-width: 0.8"/>
      </g>
     </g>
     <g id="text_15">
      <!-- 0.10 -->
      <g transform="translate(24.754375 184.368677) scale(0.1 -0.1)">
       <use xlink:href="#DejaVuSans-30"/>
       <use xlink:href="#DejaVuSans-2e" transform="translate(63.623047 0)"/>
       <use xlink:href="#DejaVuSans-31" transform="translate(95.410156 0)"/>
       <use xlink:href="#DejaVuSans-30" transform="translate(159.033203 0)"/>
      </g>
     </g>
    </g>
    <g id="ytick_4">
     <g id="line2d_15">
      <g>
       <use xlink:href="#m37e57e30d3" x="54.02" y="140.634188" style="stroke: #000000; stroke-width: 0.8"/>
      </g>
     </g>
     <g id="text_16">
      <!-- 0.15 -->
      <g transform="translate(24.754375 144.433406) scale(0.1 -0.1)">
       <use xlink:href="#DejaVuSans-30"/>
       <use xlink:href="#DejaVuSans-2e" transform="translate(63.623047 0)"/>
       <use xlink:href="#DejaVuSans-31" transform="translate(95.410156 0)"/>
       <use xlink:href="#DejaVuSans-35" transform="translate(159.033203 0)"/>
      </g>
     </g>
    </g>
    <g id="ytick_5">
     <g id="line2d_16">
      <g>
       <use xlink:href="#m37e57e30d3" x="54.02" y="100.698917" style="stroke: #000000; stroke-width: 0.8"/>
      </g>
     </g>
     <g id="text_17">
      <!-- 0.20 -->
      <g transform="translate(24.754375 104.498136) scale(0.1 -0.1)">
       <use xlink:href="#DejaVuSans-30"/>
       <use xlink:href="#DejaVuSans-2e" transform="translate(63.623047 0)"/>
       <use xlink:href="#DejaVuSans-32" transform="translate(95.410156 0)"/>
       <use xlink:href="#DejaVuSans-30" transform="translate(159.033203 0)"/>
      </g>
     </g>
    </g>
    <g id="ytick_6">
     <g id="line2d_17">
      <g>
       <use xlink:href="#m37e57e30d3" x="54.02" y="60.763646" style="stroke: #000000; stroke-width: 0.8"/>
      </g>
     </g>
     <g id="text_18">
      <!-- 0.25 -->
      <g transform="translate(24.754375 64.562865) scale(0.1 -0.1)">
       <use xlink:href="#DejaVuSans-30"/>
       <use xlink:href="#DejaVuSans-2e" transform="translate(63.623047 0)"/>
       <use xlink:href="#DejaVuSans-32" transform="translate(95.410156 0)"/>
       <use xlink:href="#DejaVuSans-35" transform="translate(159.033203 0)"/>
      </g>
     </g>
    </g>
    <g id="text_19">
     <!-- fraction of families (density) -->
     <g transform="translate(18.674688 214.230313) rotate(-90) scale(0.1 -0.1)">
      <defs>
       <path id="DejaVuSans-6c" d="M 603 4863 
L 1178 4863 
L 1178 0 
L 603 0 
L 603 4863 
z
" transform="scale(0.015625)"/>
      </defs>
      <use xlink:href="#DejaVuSans-66"/>
      <use xlink:href="#DejaVuSans-72" transform="translate(35.205078 0)"/>
      <use xlink:href="#DejaVuSans-61" transform="translate(76.318359 0)"/>
      <use xlink:href="#DejaVuSans-63" transform="translate(137.597656 0)"/>
      <use xlink:href="#DejaVuSans-74" transform="translate(192.578125 0)"/>
      <use xlink:href="#DejaVuSans-69" transform="translate(231.787109 0)"/>
      <use xlink:href="#DejaVuSans-6f" transform="translate(259.570312 0)"/>
      <use xlink:href="#DejaVuSans-6e" transform="translate(320.751953 0)"/>
      <use xlink:href="#DejaVuSans-20" transform="translate(384.130859 0)"/>
      <use xlink:href="#DejaVuSans-6f" transform="translate(415.917969 0)"/>
      <use xlink:href="#DejaVuSans-66" transform="translate(477.099609 0)"/>
      <use xlink:href="#DejaVuSans-20" transform="translate(512.304688 0)"/>
      <use xlink:href="#DejaVuSans-66" transform="translate(544.091797 0)"/>
      <use xlink:href="#DejaVuSans-61" transform="translate(579.296875 0)"/>
      <use xlink:href="#DejaVuSans-6d" transform="translate(640.576172 0)"/>
      <use xlink:href="#DejaVuSans-69" transform="translate(737.988281 0)"/>
      <use xlink:href="#DejaVuSans-6c" transform="translate(765.771484 0)"/>
      <use xlink:href="#DejaVuSans-69" transform="translate(793.554688 0)"/>
      <use xlink:href="#DejaVuSans-65" transform="translate(821.337891 0)"/>
      <use xlink:href="#DejaVuSans-73" transform="translate(882.861328 0)"/>
      <use xlink:href="#DejaVuSans-20" transform="translate(934.960938 0)"/>
      <use xlink:href="#DejaVuSans-28" transform="translate(966.748047 0)"/>
      <use xlink:href="#DejaVuSans-64" transform="translate(1005.761719 0)"/>
      <use xlink:href="#DejaVuSans-65" transform="translate(1069.238281 0)"/>
      <use xlink:href="#DejaVuSans-6e" transform="translate(1130.761719 0)"/>
      <use xlink:href="#DejaVuSans-73" transform="translate(1194.140625 0)"/>
      <use xlink:href="#DejaVuSans-69" transform="translate(1246.240234 0)"/>
      <use xlink:href="#DejaVuSans-74" transform="translate(1274.023438 0)"/>
      <use xlink:href="#DejaVuSans-79" transform="translate(1313.232422 0)"/>
      <use xlink:href="#DejaVuSans-29" transform="translate(1372.412109 0)"/>
     </g>
    </g>
   </g>
   <g id="line2d_18">
    <path d="M 330.881074 260.44 
L 330.881074 26.88 
" clip-path="url(#pf57fc33b43)" style="fill: none; stroke-dasharray: 3.7,1.6; stroke-dashoffset: 0; stroke: #333333"/>
   </g>
   <g id="patch_25">
    <path d="M 54.02 260.44 
L 54.02 26.88 
" style="fill: none; stroke: #000000; stroke-width: 0.8; stroke-linejoin: miter; stroke-linecap: square"/>
   </g>
   <g id="patch_26">
    <path d="M 529.2 260.44 
L 529.2 26.88 
" style="fill: none; stroke: #000000; stroke-width: 0.8; stroke-linejoin: miter; stroke-linecap: square"/>
   </g>
   <g id="patch_27">
    <path d="M 54.02 260.44 
L 529.2 260.44 
" style="fill: none; stroke: #000000; stroke-width: 0.8; stroke-linejoin: miter; stroke-linecap: square"/>
   </g>
   <g id="patch_28">
    <path d="M 54.02 26.88 
L 529.2 26.88 
" style="fill: none; stroke: #000000; stroke-width: 0.8; stroke-linejoin: miter; stroke-linecap: square"/>
   </g>
   <g id="text_20">
    <!-- Are conserved hypotheticals as broadly responsive as known genes? -->
    <g transform="translate(85.098438 20.88) scale(0.12 -0.12)">
     <defs>
      <path id="DejaVuSans-41" d="M 2188 4044 
L 1331 1722 
L 3047 1722 
L 2188 4044 
z
M 1831 4666 
L 2547 4666 
L 4325 0 
L 3669 0 
L 3244 1197 
L 1141 1197 
L 716 0 
L 50 0 
L 1831 4666 
z
" transform="scale(0.015625)"/>
      <path id="DejaVuSans-76" d="M 191 3500 
L 800 3500 
L 1894 563 
L 2988 3500 
L 3597 3500 
L 2284 0 
L 1503 0 
L 191 3500 
z
" transform="scale(0.015625)"/>
      <path id="DejaVuSans-6b" d="M 581 4863 
L 1159 4863 
L 1159 1991 
L 2875 3500 
L 3609 3500 
L 1753 1863 
L 3688 0 
L 2938 0 
L 1159 1709 
L 1159 0 
L 581 0 
L 581 4863 
z
" transform="scale(0.015625)"/>
      <path id="DejaVuSans-77" d="M 269 3500 
L 844 3500 
L 1563 769 
L 2278 3500 
L 2956 3500 
L 3675 769 
L 4391 3500 
L 4966 3500 
L 4050 0 
L 3372 0 
L 2619 2869 
L 1863 0 
L 1184 0 
L 269 3500 
z
" transform="scale(0.015625)"/>
      <path id="DejaVuSans-67" d="M 2906 1791 
Q 2906 2416 2648 2759 
Q 2391 3103 1925 3103 
Q 1463 3103 1205 2759 
Q 947 2416 947 1791 
Q 947 1169 1205 825 
Q 1463 481 1925 481 
Q 2391 481 2648 825 
Q 2906 1169 2906 1791 
z
M 3481 434 
Q 3481 -459 3084 -895 
Q 2688 -1331 1869 -1331 
Q 1566 -1331 1297 -1286 
Q 1028 -1241 775 -1147 
L 775 -588 
Q 1028 -725 1275 -790 
Q 1522 -856 1778 -856 
Q 2344 -856 2625 -561 
Q 2906 -266 2906 331 
L 2906 616 
Q 2728 306 2450 153 
Q 2172 0 1784 0 
Q 1141 0 747 490 
Q 353 981 353 1791 
Q 353 2603 747 3093 
Q 1141 3584 1784 3584 
Q 2172 3584 2450 3431 
Q 2728 3278 2906 2969 
L 2906 3500 
L 3481 3500 
L 3481 434 
z
" transform="scale(0.015625)"/>
      <path id="DejaVuSans-3f" d="M 1222 794 
L 1856 794 
L 1856 0 
L 1222 0 
L 1222 794 
z
M 1838 1253 
L 1241 1253 
L 1241 1734 
Q 1241 2050 1328 2253 
Q 1416 2456 1697 2725 
L 1978 3003 
Q 2156 3169 2236 3316 
Q 2316 3463 2316 3616 
Q 2316 3894 2111 4066 
Q 1906 4238 1569 4238 
Q 1322 4238 1042 4128 
Q 763 4019 459 3809 
L 459 4397 
Q 753 4575 1054 4662 
Q 1356 4750 1678 4750 
Q 2253 4750 2601 4447 
Q 2950 4144 2950 3647 
Q 2950 3409 2837 3195 
Q 2725 2981 2444 2713 
L 2169 2444 
Q 2022 2297 1961 2214 
Q 1900 2131 1875 2053 
Q 1856 1988 1847 1894 
Q 1838 1800 1838 1638 
L 1838 1253 
z
" transform="scale(0.015625)"/>
     </defs>
     <use xlink:href="#DejaVuSans-41"/>
     <use xlink:href="#DejaVuSans-72" transform="translate(68.408203 0)"/>
     <use xlink:href="#DejaVuSans-65" transform="translate(107.271484 0)"/>
     <use xlink:href="#DejaVuSans-20" transform="translate(168.794922 0)"/>
     <use xlink:href="#DejaVuSans-63" transform="translate(200.582031 0)"/>
     <use xlink:href="#DejaVuSans-6f" transform="translate(255.5625 0)"/>
     <use xlink:href="#DejaVuSans-6e" transform="translate(316.744141 0)"/>
     <use xlink:href="#DejaVuSans-73" transform="translate(380.123047 0)"/>
     <use xlink:href="#DejaVuSans-65" transform="translate(432.222656 0)"/>
     <use xlink:href="#DejaVuSans-72" transform="translate(493.746094 0)"/>
     <use xlink:href="#DejaVuSans-76" transform="translate(534.859375 0)"/>
     <use xlink:href="#DejaVuSans-65" transform="translate(594.039062 0)"/>
     <use xlink:href="#DejaVuSans-64" transform="translate(655.5625 0)"/>
     <use xlink:href="#DejaVuSans-20" transform="translate(719.039062 0)"/>
     <use xlink:href="#DejaVuSans-68" transform="translate(750.826172 0)"/>
     <use xlink:href="#DejaVuSans-79" transform="translate(814.205078 0)"/>
     <use xlink:href="#DejaVuSans-70" transform="translate(873.384766 0)"/>
     <use xlink:href="#DejaVuSans-6f" transform="translate(936.861328 0)"/>
     <use xlink:href="#DejaVuSans-74" transform="translate(998.042969 0)"/>
     <use xlink:href="#DejaVuSans-68" transform="translate(1037.251953 0)"/>
     <use xlink:href="#DejaVuSans-65" transform="translate(1100.630859 0)"/>
     <use xlink:href="#DejaVuSans-74" transform="translate(1162.154297 0)"/>
     <use xlink:href="#DejaVuSans-69" transform="translate(1201.363281 0)"/>
     <use xlink:href="#DejaVuSans-63" transform="translate(1229.146484 0)"/>
     <use xlink:href="#DejaVuSans-61" transform="translate(1284.126953 0)"/>
     <use xlink:href="#DejaVuSans-6c" transform="translate(1345.40625 0)"/>
     <use xlink:href="#DejaVuSans-73" transform="translate(1373.189453 0)"/>
     <use xlink:href="#DejaVuSans-20" transform="translate(1425.289062 0)"/>
     <use xlink:href="#DejaVuSans-61" transform="translate(1457.076172 0)"/>
     <use xlink:href="#DejaVuSans-73" transform="translate(1518.355469 0)"/>
     <use xlink:href="#DejaVuSans-20" transform="translate(1570.455078 0)"/>
     <use xlink:href="#DejaVuSans-62" transform="translate(1602.242188 0)"/>
     <use xlink:href="#DejaVuSans-72" transform="translate(1665.71875 0)"/>
     <use xlink:href="#DejaVuSans-6f" transform="translate(1704.582031 0)"/>
     <use xlink:href="#DejaVuSans-61" transform="translate(1765.763672 0)"/>
     <use xlink:href="#DejaVuSans-64" transform="translate(1827.042969 0)"/>
     <use xlink:href="#DejaVuSans-6c" transform="translate(1890.519531 0)"/>
     <use xlink:href="#DejaVuSans-79" transform="translate(1918.302734 0)"/>
     <use xlink:href="#DejaVuSans-20" transform="translate(1977.482422 0)"/>
     <use xlink:href="#DejaVuSans-72" transform="translate(2009.269531 0)"/>
     <use xlink:href="#DejaVuSans-65" transform="translate(2048.132812 0)"/>
     <use xlink:href="#DejaVuSans-73" transform="translate(2109.65625 0)"/>
     <use xlink:href="#DejaVuSans-70" transform="translate(2161.755859 0)"/>
     <use xlink:href="#DejaVuSans-6f" transform="translate(2225.232422 0)"/>
     <use xlink:href="#DejaVuSans-6e" transform="translate(2286.414062 0)"/>
     <use xlink:href="#DejaVuSans-73" transform="translate(2349.792969 0)"/>
     <use xlink:href="#DejaVuSans-69" transform="translate(2401.892578 0)"/>
     <use xlink:href="#DejaVuSans-76" transform="translate(2429.675781 0)"/>
     <use xlink:href="#DejaVuSans-65" transform="translate(2488.855469 0)"/>
     <use xlink:href="#DejaVuSans-20" transform="translate(2550.378906 0)"/>
     <use xlink:href="#DejaVuSans-61" transform="translate(2582.166016 0)"/>
     <use xlink:href="#DejaVuSans-73" transform="translate(2643.445312 0)"/>
     <use xlink:href="#DejaVuSans-20" transform="translate(2695.544922 0)"/>
     <use xlink:href="#DejaVuSans-6b" transform="translate(2727.332031 0)"/>
     <use xlink:href="#DejaVuSans-6e" transform="translate(2785.242188 0)"/>
     <use xlink:href="#DejaVuSans-6f" transform="translate(2848.621094 0)"/>
     <use xlink:href="#DejaVuSans-77" transform="translate(2909.802734 0)"/>
     <use xlink:href="#DejaVuSans-6e" transform="translate(2991.589844 0)"/>
     <use xlink:href="#DejaVuSans-20" transform="translate(3054.96875 0)"/>
     <use xlink:href="#DejaVuSans-67" transform="translate(3086.755859 0)"/>
     <use xlink:href="#DejaVuSans-65" transform="translate(3150.232422 0)"/>
     <use xlink:href="#DejaVuSans-6e" transform="translate(3211.755859 0)"/>
     <use xlink:href="#DejaVuSans-65" transform="translate(3275.134766 0)"/>
     <use xlink:href="#DejaVuSans-73" transform="translate(3336.658203 0)"/>
     <use xlink:href="#DejaVuSans-3f" transform="translate(3388.757812 0)"/>
    </g>
   </g>
   <g id="legend_1">
    <g id="patch_29">
     <path d="M 370.6375 64.23625 
L 522.2 64.23625 
Q 524.2 64.23625 524.2 62.23625 
L 524.2 33.88 
Q 524.2 31.88 522.2 31.88 
L 370.6375 31.88 
Q 368.6375 31.88 368.6375 33.88 
L 368.6375 62.23625 
Q 368.6375 64.23625 370.6375 64.23625 
z
" style="fill: #ffffff; opacity: 0.8; stroke: #cccccc; stroke-linejoin: miter"/>
    </g>
    <g id="patch_30">
     <path d="M 372.6375 43.478438 
L 392.6375 43.478438 
L 392.6375 36.478438 
L 372.6375 36.478438 
z
" style="fill: #b0bec5; opacity: 0.6"/>
    </g>
    <g id="text_21">
     <!-- characterized (n=1465) -->
     <g transform="translate(400.6375 43.478438) scale(0.1 -0.1)">
      <defs>
       <path id="DejaVuSans-7a" d="M 353 3500 
L 3084 3500 
L 3084 2975 
L 922 459 
L 3084 459 
L 3084 0 
L 275 0 
L 275 525 
L 2438 3041 
L 353 3041 
L 353 3500 
z
" transform="scale(0.015625)"/>
       <path id="DejaVuSans-3d" d="M 678 2906 
L 4684 2906 
L 4684 2381 
L 678 2381 
L 678 2906 
z
M 678 1631 
L 4684 1631 
L 4684 1100 
L 678 1100 
L 678 1631 
z
" transform="scale(0.015625)"/>
      </defs>
      <use xlink:href="#DejaVuSans-63"/>
      <use xlink:href="#DejaVuSans-68" transform="translate(54.980469 0)"/>
      <use xlink:href="#DejaVuSans-61" transform="translate(118.359375 0)"/>
      <use xlink:href="#DejaVuSans-72" transform="translate(179.638672 0)"/>
      <use xlink:href="#DejaVuSans-61" transform="translate(220.751953 0)"/>
      <use xlink:href="#DejaVuSans-63" transform="translate(282.03125 0)"/>
      <use xlink:href="#DejaVuSans-74" transform="translate(337.011719 0)"/>
      <use xlink:href="#DejaVuSans-65" transform="translate(376.220703 0)"/>
      <use xlink:href="#DejaVuSans-72" transform="translate(437.744141 0)"/>
      <use xlink:href="#DejaVuSans-69" transform="translate(478.857422 0)"/>
      <use xlink:href="#DejaVuSans-7a" transform="translate(506.640625 0)"/>
      <use xlink:href="#DejaVuSans-65" transform="translate(559.130859 0)"/>
      <use xlink:href="#DejaVuSans-64" transform="translate(620.654297 0)"/>
      <use xlink:href="#DejaVuSans-20" transform="translate(684.130859 0)"/>
      <use xlink:href="#DejaVuSans-28" transform="translate(715.917969 0)"/>
      <use xlink:href="#DejaVuSans-6e" transform="translate(754.931641 0)"/>
      <use xlink:href="#DejaVuSans-3d" transform="translate(818.310547 0)"/>
      <use xlink:href="#DejaVuSans-31" transform="translate(902.099609 0)"/>
      <use xlink:href="#DejaVuSans-34" transform="translate(965.722656 0)"/>
      <use xlink:href="#DejaVuSans-36" transform="translate(1029.345703 0)"/>
      <use xlink:href="#DejaVuSans-35" transform="translate(1092.96875 0)"/>
      <use xlink:href="#DejaVuSans-29" transform="translate(1156.591797 0)"/>
     </g>
    </g>
    <g id="patch_31">
     <path d="M 372.6375 58.156563 
L 392.6375 58.156563 
L 392.6375 51.156563 
L 372.6375 51.156563 
z
" style="fill: #d1495b; opacity: 0.6"/>
    </g>
    <g id="text_22">
     <!-- hypothetical (n=245) -->
     <g transform="translate(400.6375 58.156563) scale(0.1 -0.1)">
      <use xlink:href="#DejaVuSans-68"/>
      <use xlink:href="#DejaVuSans-79" transform="translate(63.378906 0)"/>
      <use xlink:href="#DejaVuSans-70" transform="translate(122.558594 0)"/>
      <use xlink:href="#DejaVuSans-6f" transform="translate(186.035156 0)"/>
      <use xlink:href="#DejaVuSans-74" transform="translate(247.216797 0)"/>
      <use xlink:href="#DejaVuSans-68" transform="translate(286.425781 0)"/>
      <use xlink:href="#DejaVuSans-65" transform="translate(349.804688 0)"/>
      <use xlink:href="#DejaVuSans-74" transform="translate(411.328125 0)"/>
      <use xlink:href="#DejaVuSans-69" transform="translate(450.537109 0)"/>
      <use xlink:href="#DejaVuSans-63" transform="translate(478.320312 0)"/>
      <use xlink:href="#DejaVuSans-61" transform="translate(533.300781 0)"/>
      <use xlink:href="#DejaVuSans-6c" transform="translate(594.580078 0)"/>
      <use xlink:href="#DejaVuSans-20" transform="translate(622.363281 0)"/>
      <use xlink:href="#DejaVuSans-28" transform="translate(654.150391 0)"/>
      <use xlink:href="#DejaVuSans-6e" transform="translate(693.164062 0)"/>
      <use xlink:href="#DejaVuSans-3d" transform="translate(756.542969 0)"/>
      <use xlink:href="#DejaVuSans-32" transform="translate(840.332031 0)"/>
      <use xlink:href="#DejaVuSans-34" transform="translate(903.955078 0)"/>
      <use xlink:href="#DejaVuSans-35" transform="translate(967.578125 0)"/>
      <use xlink:href="#DejaVuSans-29" transform="translate(1031.201172 0)"/>
     </g>
    </g>
   </g>
  </g>
 </g>
 <defs>
  <clipPath id="pf57fc33b43">
   <rect x="54.02" y="26.88" width="475.18" height="233.56"/>
  </clipPath>
 </defs>
</svg>
